<svg width="138" height="38" viewBox="0 0 138 38" fill="none" xmlns="http://www.w3.org/2000/svg">
<path d="M8.11328 26.8086H13.4102L13.1641 27.582H7.87891L7.52734 28.7539C7.27734 29.5977 7.15234 30.2227 7.15234 30.6289C7.15234 30.9023 7.24609 31.1094 7.43359 31.25C7.67578 31.4297 8.17969 31.5352 8.94531 31.5664L8.78125 32H2.74609L2.86328 31.5664C3.51953 31.5273 3.9375 31.4648 4.11719 31.3789C4.41406 31.2305 4.65625 31.0117 4.84375 30.7227C4.97656 30.5273 5.1875 29.9453 5.47656 28.9766L5.89844 27.582H0.835938L1.07031 26.8086H6.14453L6.88281 24.3594H1.57422L1.79688 23.5742H6.67188L5.23047 18.8516C4.94922 17.9375 4.69141 17.3477 4.45703 17.082C4.22266 16.8086 3.89062 16.6328 3.46094 16.5547L3.56641 16.1094H8.78125L8.66406 16.5547C7.97656 16.5547 7.51562 16.6484 7.28125 16.8359C7.04688 17.0156 6.92969 17.2539 6.92969 17.5508C6.92969 17.8789 7.02734 18.375 7.22266 19.0391L8.55859 23.5742L11.7812 19.1328C12.4844 18.1484 12.8359 17.4922 12.8359 17.1641C12.8359 17.0312 12.7578 16.9102 12.6016 16.8008C12.3828 16.6602 11.9531 16.5781 11.3125 16.5547L11.418 16.1094H15.9414L15.8125 16.5547C15.3594 16.6016 14.9414 16.7617 14.5586 17.0352C14.1758 17.3086 13.6641 17.8867 13.0234 18.7695L9.50781 23.5742H14.1367L13.9023 24.3594H8.93359L8.78125 24.5703L8.11328 26.8086Z" fill="#464646"/>
<path d="M30.1182 32H17.5938V31.3135C23.9766 25.7223 28.1947 21.3372 30.248 18.1582C31.2005 16.6862 31.6768 15.14 31.6768 13.5195C31.6768 12.2331 31.2809 11.1878 30.4893 10.3838C29.6976 9.56738 28.6709 9.15918 27.4092 9.15918C25.665 9.15918 24.2301 9.99414 23.1045 11.6641L22.4551 11.3672C23.0859 9.77148 24.0075 8.53451 25.2197 7.65625C26.432 6.76562 27.7432 6.32031 29.1533 6.32031C30.749 6.32031 32.0911 6.87077 33.1797 7.97168C34.2682 9.06022 34.8125 10.3838 34.8125 11.9424C34.8125 13.0309 34.6208 14.0391 34.2373 14.9668C33.6436 16.4141 32.5488 18.0345 30.9531 19.8281C28.5286 22.5742 25.2939 25.7347 21.249 29.3096H27.5576C28.5719 29.3096 29.4069 29.0993 30.0625 28.6787C30.7181 28.2581 31.1882 27.6953 31.4727 26.9902H32.2148L30.1182 32ZM48.3582 32H35.8337V31.3135C42.2166 25.7223 46.4347 21.3372 48.488 18.1582C49.4405 16.6862 49.9168 15.14 49.9168 13.5195C49.9168 12.2331 49.5209 11.1878 48.7293 10.3838C47.9376 9.56738 46.9109 9.15918 45.6492 9.15918C43.905 9.15918 42.4701 9.99414 41.3445 11.6641L40.6951 11.3672C41.3259 9.77148 42.2475 8.53451 43.4597 7.65625C44.672 6.76562 45.9832 6.32031 47.3933 6.32031C48.989 6.32031 50.3311 6.87077 51.4197 7.97168C52.5082 9.06022 53.0525 10.3838 53.0525 11.9424C53.0525 13.0309 52.8608 14.0391 52.4773 14.9668C51.8836 16.4141 50.7888 18.0345 49.1931 19.8281C46.7686 22.5742 43.5339 25.7347 39.489 29.3096H45.7976C46.8119 29.3096 47.6469 29.0993 48.3025 28.6787C48.9581 28.2581 49.4282 27.6953 49.7127 26.9902H50.4548L48.3582 32ZM53.0904 36.1748C54.0181 35.7542 54.7726 35.2223 55.354 34.5791C55.7993 34.0843 56.022 33.6081 56.022 33.1504C56.022 32.9277 55.9849 32.7236 55.9107 32.5381C55.8612 32.4391 55.688 32.2412 55.3911 31.9443C55.0943 31.6475 54.9273 31.4434 54.8902 31.332C54.8036 31.1217 54.7603 30.8805 54.7603 30.6084C54.7603 30.0765 54.9396 29.6188 55.2984 29.2354C55.6695 28.8519 56.1024 28.6602 56.5972 28.6602C57.1043 28.6602 57.5497 28.8643 57.9331 29.2725C58.329 29.6807 58.5269 30.194 58.5269 30.8125C58.5269 31.9134 58.0939 33.0267 57.228 34.1523C56.3622 35.278 55.1066 36.1501 53.4614 36.7686L53.0904 36.1748ZM75.3567 6.32031C76.9401 6.32031 78.2698 6.9821 79.346 8.30566C80.4345 9.62923 80.9788 11.7197 80.9788 14.5771C80.9788 17.0264 80.5768 19.5251 79.7727 22.0732C78.9687 24.6214 77.8369 26.8294 76.3772 28.6973C75.2145 30.1693 73.996 31.2331 72.722 31.8887C71.9798 32.2598 71.1201 32.4453 70.1429 32.4453C68.5348 32.4453 67.1865 31.7835 66.0979 30.46C65.0218 29.1364 64.4837 27.0397 64.4837 24.1699C64.4837 21.3372 65.0279 18.4922 66.1165 15.6348C67.3906 12.2949 69.0172 9.75911 70.9964 8.02734C72.2952 6.88932 73.7486 6.32031 75.3567 6.32031ZM75.3753 7.28516C74.6578 7.28516 73.928 7.56966 73.1858 8.13867C72.456 8.69531 71.6953 9.86426 70.9036 11.6455C70.1243 13.4268 69.3759 15.7214 68.6585 18.5293C67.7307 22.2031 67.2669 25.3327 67.2669 27.918C67.2669 29.2044 67.5452 30.1693 68.1018 30.8125C68.6585 31.4434 69.3326 31.7588 70.1243 31.7588C70.8789 31.7588 71.5221 31.5114 72.054 31.0166C73.4765 29.6807 74.6949 27.3984 75.7093 24.1699C77.3544 18.888 78.177 14.5957 78.177 11.293C78.177 9.91992 77.8987 8.91178 77.3421 8.26855C76.7854 7.61296 76.1298 7.28516 75.3753 7.28516ZM93.5967 6.32031C95.1801 6.32031 96.5098 6.9821 97.586 8.30566C98.6745 9.62923 99.2188 11.7197 99.2188 14.5771C99.2188 17.0264 98.8168 19.5251 98.0127 22.0732C97.2087 24.6214 96.0769 26.8294 94.6172 28.6973C93.4545 30.1693 92.236 31.2331 90.962 31.8887C90.2198 32.2598 89.3601 32.4453 88.3829 32.4453C86.7748 32.4453 85.4265 31.7835 84.3379 30.46C83.2618 29.1364 82.7237 27.0397 82.7237 24.1699C82.7237 21.3372 83.2679 18.4922 84.3565 15.6348C85.6306 12.2949 87.2572 9.75911 89.2364 8.02734C90.5352 6.88932 91.9886 6.32031 93.5967 6.32031ZM93.6153 7.28516C92.8978 7.28516 92.168 7.56966 91.4258 8.13867C90.696 8.69531 89.9353 9.86426 89.1436 11.6455C88.3643 13.4268 87.6159 15.7214 86.8985 18.5293C85.9707 22.2031 85.5069 25.3327 85.5069 27.918C85.5069 29.2044 85.7852 30.1693 86.3418 30.8125C86.8985 31.4434 87.5726 31.7588 88.3643 31.7588C89.1189 31.7588 89.7621 31.5114 90.294 31.0166C91.7165 29.6807 92.9349 27.3984 93.9493 24.1699C95.5944 18.888 96.417 14.5957 96.417 11.293C96.417 9.91992 96.1387 8.91178 95.5821 8.26855C95.0254 7.61296 94.3698 7.28516 93.6153 7.28516ZM111.837 6.32031C113.42 6.32031 114.75 6.9821 115.826 8.30566C116.915 9.62923 117.459 11.7197 117.459 14.5771C117.459 17.0264 117.057 19.5251 116.253 22.0732C115.449 24.6214 114.317 26.8294 112.857 28.6973C111.694 30.1693 110.476 31.2331 109.202 31.8887C108.46 32.2598 107.6 32.4453 106.623 32.4453C105.015 32.4453 103.666 31.7835 102.578 30.46C101.502 29.1364 100.964 27.0397 100.964 24.1699C100.964 21.3372 101.508 18.4922 102.596 15.6348C103.871 12.2949 105.497 9.75911 107.476 8.02734C108.775 6.88932 110.229 6.32031 111.837 6.32031ZM111.855 7.28516C111.138 7.28516 110.408 7.56966 109.666 8.13867C108.936 8.69531 108.175 9.86426 107.384 11.6455C106.604 13.4268 105.856 15.7214 105.138 18.5293C104.211 22.2031 103.747 25.3327 103.747 27.918C103.747 29.2044 104.025 30.1693 104.582 30.8125C105.138 31.4434 105.813 31.7588 106.604 31.7588C107.359 31.7588 108.002 31.5114 108.534 31.0166C109.957 29.6807 111.175 27.3984 112.189 24.1699C113.834 18.888 114.657 14.5957 114.657 11.293C114.657 9.91992 114.379 8.91178 113.822 8.26855C113.265 7.61296 112.61 7.28516 111.855 7.28516ZM136.274 19.4756H137.109C137.059 21.0837 136.602 22.3454 135.736 23.2607C134.87 24.1637 133.812 24.6152 132.563 24.6152C131.994 24.6152 131.382 24.5225 130.726 24.3369C130.071 24.139 128.376 23.4834 125.642 22.3701C123.737 21.5785 122.383 21.1826 121.579 21.1826C120.713 21.1826 119.983 21.4486 119.389 21.9805C118.795 22.5124 118.375 23.3783 118.128 24.5781H117.311C117.385 22.9082 117.843 21.6341 118.684 20.7559C119.525 19.8652 120.515 19.4199 121.653 19.4199C122.197 19.4199 122.754 19.5065 123.323 19.6797C124.609 20.0508 126.298 20.6878 128.388 21.5908C130.491 22.4814 131.969 22.9268 132.823 22.9268C133.751 22.9268 134.53 22.6299 135.161 22.0361C135.792 21.4424 136.163 20.5889 136.274 19.4756Z" fill="#464646"/>
</svg>
