<svg width="263" height="78" viewBox="0 0 263 78" fill="none" xmlns="http://www.w3.org/2000/svg">
<path d="M19.907 44.791C21.6577 44.791 23.4757 44.8247 25.361 44.892C27.2463 44.9593 29.0643 44.993 30.815 44.993C32.7003 44.993 34.5857 44.993 36.471 44.993C38.3563 44.9257 40.2417 44.8583 42.127 44.791L30.916 19.137L19.907 44.791ZM64.65 76.202C63.7073 76.0673 62.7983 76 61.923 76C61.115 76 60.2397 76 59.297 76C58.3543 76 57.4453 76 56.57 76C55.762 76 54.8867 76.0673 53.944 76.202C53.4727 74.6533 52.833 72.8017 52.025 70.647C51.217 68.425 50.308 66.1357 49.298 63.779C48.3553 61.355 47.379 58.931 46.369 56.507C45.359 54.0157 44.4163 51.659 43.541 49.437C41.3863 49.3697 39.198 49.336 36.976 49.336C34.754 49.2687 32.532 49.235 30.31 49.235C28.2227 49.235 26.169 49.2687 24.149 49.336C22.129 49.336 20.0753 49.3697 17.988 49.437C15.8333 54.689 13.8807 59.7053 12.13 64.486C10.3793 69.1993 9.06633 73.1047 8.191 76.202C7.04633 76.0673 5.80067 76 4.454 76C3.10733 76 1.86167 76.0673 0.717 76.202C6.171 64.4187 11.4903 52.7027 16.675 41.054C21.8597 29.4053 27.078 17.5547 32.33 5.502H34.249C35.865 9.40733 37.6157 13.6493 39.501 18.228C41.3863 22.7393 43.3053 27.318 45.258 31.964C47.2107 36.61 49.1633 41.2223 51.116 45.801C53.0687 50.3797 54.8867 54.6553 56.57 58.628C58.3207 62.5333 59.8693 66.0347 61.216 69.132C62.63 72.2293 63.7747 74.586 64.65 76.202ZM109.392 50.649C109.392 47.5517 108.988 44.8247 108.18 42.468C107.44 40.044 106.43 38.024 105.15 36.408C103.938 34.792 102.491 33.58 100.807 32.772C99.1912 31.8967 97.5079 31.459 95.7572 31.459C93.6699 31.459 91.6499 31.863 89.6972 32.671C87.8119 33.4117 86.1622 34.691 84.7482 36.509C83.3342 38.2597 82.1895 40.5827 81.3142 43.478C80.5062 46.306 80.1022 49.8073 80.1022 53.982C80.1022 67.516 85.0175 74.283 94.8482 74.283C96.9355 74.283 98.8545 73.7443 100.605 72.667C102.356 71.5223 103.871 69.9063 105.15 67.819C106.497 65.7317 107.541 63.2403 108.281 60.345C109.022 57.4497 109.392 54.2177 109.392 50.649ZM118.28 50.952C118.28 54.8573 117.674 58.426 116.462 61.658C115.318 64.89 113.702 67.6843 111.614 70.041C109.594 72.3303 107.17 74.1147 104.342 75.394C101.582 76.606 98.5852 77.212 95.3532 77.212C92.1212 77.212 89.1922 76.5387 86.5662 75.192C84.0075 73.778 82.0549 72.0947 80.7082 70.142C78.2842 72.0947 76.0285 74.0473 73.9412 76H72.1232C72.2579 74.384 72.3589 72.4313 72.4262 70.142C72.5609 67.8527 72.6619 65.4287 72.7292 62.87C72.7965 60.244 72.8302 57.5843 72.8302 54.891C72.8975 52.1977 72.9312 49.7063 72.9312 47.417V29.136C72.9312 26.8467 72.8975 24.3553 72.8302 21.662C72.8302 18.9687 72.7965 16.309 72.7292 13.683C72.6619 11.057 72.5609 8.56566 72.4262 6.209C72.3589 3.78499 72.2579 1.73133 72.1232 0.0479966C74.0085 0.384663 75.5235 0.552996 76.6682 0.552996C77.4089 0.552996 78.1832 0.51933 78.9912 0.451997C79.7992 0.317328 80.6745 0.182662 81.6172 0.0479966C81.4152 1.39466 81.2469 3.54933 81.1122 6.512C80.9775 9.40733 80.8765 12.673 80.8092 16.309C80.7419 19.8777 80.6745 23.581 80.6072 27.419C80.5399 31.1897 80.4725 34.6237 80.4052 37.721H80.6072C82.8965 34.085 85.4215 31.4253 88.1822 29.742C90.9429 28.0587 94.1412 27.217 97.7772 27.217C101.279 27.217 104.309 27.8903 106.867 29.237C109.426 30.5163 111.547 32.2333 113.23 34.388C114.914 36.5427 116.159 39.0677 116.967 41.963C117.843 44.791 118.28 47.7873 118.28 50.952ZM134.911 52.366C134.911 55.194 135.147 57.921 135.618 60.547C136.157 63.173 137.032 65.5297 138.244 67.617C139.456 69.637 141.072 71.253 143.092 72.465C145.112 73.677 147.604 74.283 150.566 74.283C153.529 74.283 156.02 73.677 158.04 72.465C160.06 71.253 161.676 69.637 162.888 67.617C164.1 65.5297 164.942 63.173 165.413 60.547C165.952 57.921 166.221 55.194 166.221 52.366C166.221 49.538 165.952 46.811 165.413 44.185C164.942 41.559 164.1 39.236 162.888 37.216C161.676 35.1287 160.06 33.479 158.04 32.267C156.02 31.055 153.529 30.449 150.566 30.449C147.604 30.449 145.112 31.055 143.092 32.267C141.072 33.479 139.456 35.1287 138.244 37.216C137.032 39.236 136.157 41.559 135.618 44.185C135.147 46.811 134.911 49.538 134.911 52.366ZM126.023 52.366C126.023 47.7873 126.73 43.9157 128.144 40.751C129.626 37.519 131.545 34.9267 133.901 32.974C136.258 30.954 138.884 29.5063 141.779 28.631C144.742 27.6883 147.671 27.217 150.566 27.217C153.529 27.217 156.458 27.6883 159.353 28.631C162.249 29.5063 164.875 30.954 167.231 32.974C169.588 34.9267 171.473 37.519 172.887 40.751C174.369 43.9157 175.109 47.7873 175.109 52.366C175.109 56.9447 174.369 60.85 172.887 64.082C171.473 67.2467 169.588 69.839 167.231 71.859C164.875 73.8117 162.249 75.192 159.353 76C156.458 76.808 153.529 77.212 150.566 77.212C147.671 77.212 144.742 76.808 141.779 76C138.884 75.192 136.258 73.8117 133.901 71.859C131.545 69.839 129.626 67.2467 128.144 64.082C126.73 60.85 126.023 56.9447 126.023 52.366ZM186.286 60.951C186.286 57.3823 186.32 54.3523 186.387 51.861C186.522 49.3023 186.589 46.7773 186.589 44.286C186.589 41.9293 186.556 39.3707 186.488 36.61C186.488 33.8493 186.455 31.055 186.387 28.227C188.071 28.5637 189.485 28.732 190.629 28.732C191.707 28.732 193.087 28.5637 194.77 28.227C194.434 32.267 194.164 36.711 193.962 41.559C193.828 46.3397 193.76 51.255 193.76 56.305C193.76 59.8063 194.063 62.4997 194.669 64.385C195.275 66.203 196.016 67.5833 196.891 68.526C197.834 69.6033 199.012 70.5123 200.426 71.253C201.908 71.9263 203.625 72.263 205.577 72.263C208.405 72.263 210.762 71.657 212.647 70.445C214.533 69.1657 215.913 67.617 216.788 65.799C217.26 64.6543 217.63 63.678 217.899 62.87C218.169 62.062 218.371 60.9847 218.505 59.638C218.707 58.2913 218.808 56.4733 218.808 54.184C218.876 51.8947 218.909 48.7637 218.909 44.791V36.307C218.909 34.8257 218.876 33.4117 218.808 32.065C218.808 30.7183 218.775 29.439 218.707 28.227C219.448 28.3617 220.155 28.4963 220.828 28.631C221.502 28.6983 222.209 28.732 222.949 28.732C223.69 28.732 224.397 28.6983 225.07 28.631C225.744 28.4963 226.417 28.3617 227.09 28.227C226.754 33.479 226.552 38.5627 226.484 43.478C226.417 48.326 226.383 53.477 226.383 58.931C226.383 61.961 226.417 64.9237 226.484 67.819C226.552 70.7143 226.653 73.5087 226.787 76.202C225.441 76.0673 224.128 76 222.848 76C221.569 76 220.256 76.0673 218.909 76.202C218.977 75.596 219.01 74.9563 219.01 74.283C219.078 73.6097 219.111 72.9027 219.111 72.162V67.819H218.909C217.159 71.051 214.903 73.4413 212.142 74.99C209.382 76.4713 206.385 77.212 203.153 77.212C197.901 77.212 193.76 75.8317 190.73 73.071C187.768 70.243 186.286 66.203 186.286 60.951ZM251.599 14.693C251.397 17.2517 251.229 19.7767 251.094 22.268C251.027 24.692 250.926 27.1497 250.791 29.641C251.532 29.641 252.912 29.641 254.932 29.641C256.952 29.5737 259.141 29.4727 261.497 29.338C261.43 29.54 261.396 29.9103 261.396 30.449V31.459V32.57C261.396 33.0413 261.43 33.378 261.497 33.58C260.622 33.5127 259.713 33.479 258.77 33.479C257.828 33.4117 256.818 33.378 255.74 33.378H250.791C250.724 33.6473 250.623 34.7247 250.488 36.61C250.421 38.4953 250.354 40.751 250.286 43.377C250.219 45.9357 250.152 48.629 250.084 51.457C250.084 54.285 250.084 56.81 250.084 59.032C250.084 60.9173 250.118 62.769 250.185 64.587C250.32 66.405 250.657 68.0547 251.195 69.536C251.734 70.95 252.542 72.0947 253.619 72.97C254.697 73.8453 256.245 74.283 258.265 74.283C258.804 74.283 259.511 74.2157 260.386 74.081C261.329 73.9463 262.137 73.778 262.81 73.576V76C261.666 76.202 260.386 76.4377 258.972 76.707C257.626 77.0437 256.313 77.212 255.033 77.212C250.791 77.212 247.66 76.1683 245.64 74.081C243.62 71.9937 242.61 68.93 242.61 64.89C242.61 63.072 242.644 61.1193 242.711 59.032C242.779 56.8773 242.846 54.5543 242.913 52.063C243.048 49.5043 243.149 46.71 243.216 43.68C243.284 40.5827 243.317 37.1487 243.317 33.378H240.085C239.547 33.378 238.974 33.4117 238.368 33.479C237.762 33.479 237.123 33.5127 236.449 33.58C236.517 33.176 236.55 32.8057 236.55 32.469C236.618 32.065 236.651 31.661 236.651 31.257C236.651 30.9203 236.618 30.5837 236.55 30.247C236.55 29.9103 236.517 29.5737 236.449 29.237C239.479 29.439 241.701 29.54 243.115 29.54C243.048 28.1933 242.981 26.51 242.913 24.49C242.913 22.47 242.846 20.3827 242.711 18.228L251.094 14.693H251.599Z" fill="#2A4072"/>
</svg>
