<svg width="154" height="50" viewBox="0 0 154 50" fill="none" xmlns="http://www.w3.org/2000/svg">
<path d="M89 25H152L146 19" stroke="#2A4072"/>
<path d="M13.968 26.36C14.0533 26.36 14.2613 26.504 14.592 26.792C14.9227 27.08 15.1253 27.304 15.2 27.464C15.2107 27.5173 15.2053 27.5707 15.184 27.624C15.12 27.7307 15.0027 27.784 14.832 27.784H11.2V29.176C11.232 30.3173 11.264 31.1813 11.296 31.768C11.296 31.832 11.2747 31.8853 11.232 31.928C11.1573 32.0133 11.0453 32.088 10.896 32.152C10.7467 32.216 10.5707 32.248 10.368 32.248C10.2933 32.248 10.224 32.216 10.16 32.152C10.1067 32.088 10.08 32.0133 10.08 31.928C10.144 31.0533 10.1867 30.168 10.208 29.272V27.784H9.024C8.39467 27.7947 7.696 27.864 6.928 27.992H6.88C6.83733 27.992 6.8 27.9653 6.768 27.912L6.416 27.208C6.256 27.3467 6.05333 27.4427 5.808 27.496V28.776C5.84 29.8213 5.872 30.6053 5.904 31.128C5.904 31.192 5.888 31.2453 5.856 31.288C5.77067 31.3733 5.63733 31.4533 5.456 31.528C5.28533 31.6027 5.13067 31.64 4.992 31.64C4.896 31.64 4.82667 31.56 4.784 31.4C4.784 31.3787 4.79467 31.3253 4.816 31.24L4.848 31.08V30.792H2.496V31.176L2.544 31.752C2.55467 31.816 2.544 31.8693 2.512 31.912C2.43733 31.9973 2.32533 32.072 2.176 32.136C2.02667 32.2107 1.872 32.248 1.712 32.248C1.648 32.248 1.58933 32.216 1.536 32.152C1.49333 32.088 1.472 32.0133 1.472 31.928C1.51467 31.4907 1.54667 30.9467 1.568 30.296V29.304C1.568 28.184 1.51467 27.2347 1.408 26.456V26.424C1.408 26.3813 1.41867 26.3547 1.44 26.344C1.46133 26.3333 1.49333 26.3387 1.536 26.36L2.576 26.84H4.72L4.944 26.536C4.976 26.504 5.024 26.4453 5.088 26.36C5.16267 26.2747 5.232 26.232 5.296 26.232C5.36 26.232 5.48267 26.296 5.664 26.424C5.856 26.552 6.032 26.696 6.192 26.856C6.352 27.0053 6.432 27.1173 6.432 27.192C7.01867 27.256 7.72267 27.2987 8.544 27.32H10.208V24.472H9.216C8.608 24.4827 8.03733 24.552 7.504 24.68H7.456C7.41333 24.68 7.376 24.6533 7.344 24.6L7.056 24.04C7.04533 24.0293 7.04 24.008 7.04 23.976C7.04 23.9227 7.07733 23.896 7.152 23.896C7.73867 23.9493 8.38933 23.9867 9.104 24.008H10.208V21.352H9.12C8.48 21.3733 7.86667 21.4427 7.28 21.56H7.232C7.18933 21.56 7.152 21.5333 7.12 21.48L6.832 20.92C6.82133 20.9093 6.816 20.888 6.816 20.856C6.816 20.8027 6.85333 20.776 6.928 20.776C7.51467 20.8293 8.16533 20.8667 8.88 20.888H11.456L11.552 20.648C11.744 20.1467 11.9147 19.6187 12.064 19.064C12.2133 18.5093 12.3093 18.024 12.352 17.608C12.3627 17.512 12.416 17.48 12.512 17.512C13.0453 17.6933 13.4187 17.8373 13.632 17.944C13.8453 18.04 13.952 18.12 13.952 18.184C13.952 18.216 13.904 18.2533 13.808 18.296L13.536 18.392C12.9387 19.3947 12.368 20.2267 11.824 20.888H13.008L13.312 20.44C13.3547 20.3867 13.3973 20.3227 13.44 20.248C13.4933 20.1733 13.5467 20.1093 13.6 20.056C13.6533 20.0027 13.7013 19.976 13.744 19.976C13.8293 19.976 14.0267 20.1147 14.336 20.392C14.656 20.6587 14.8533 20.8667 14.928 21.016C14.9387 21.0693 14.9333 21.1227 14.912 21.176C14.848 21.2933 14.72 21.352 14.528 21.352H11.2V24.008H12.672L12.976 23.56C13.0187 23.5067 13.0613 23.4427 13.104 23.368C13.1573 23.2933 13.2107 23.2293 13.264 23.176C13.3173 23.1227 13.3653 23.096 13.408 23.096C13.4933 23.096 13.6907 23.2347 14 23.512C14.32 23.7787 14.5173 23.9867 14.592 24.136C14.6027 24.1893 14.5973 24.2427 14.576 24.296C14.512 24.4133 14.3893 24.472 14.208 24.472H11.2V27.32H13.2L13.52 26.84C13.552 26.7973 13.6 26.7333 13.664 26.648C13.728 26.552 13.7813 26.4827 13.824 26.44C13.8773 26.3867 13.9253 26.36 13.968 26.36ZM9.28 20.648C9.152 20.648 9.024 20.6 8.896 20.504C8.85333 20.4613 8.832 20.408 8.832 20.344C8.78933 19.96 8.66667 19.544 8.464 19.096C8.272 18.648 8.04267 18.2427 7.776 17.88C7.73333 17.8053 7.73867 17.7467 7.792 17.704C7.84533 17.672 7.904 17.672 7.968 17.704C8.59733 18.024 9.056 18.3867 9.344 18.792C9.64267 19.1867 9.792 19.56 9.792 19.912C9.792 20.1253 9.744 20.3013 9.648 20.44C9.552 20.5787 9.42933 20.648 9.28 20.648ZM4.176 19.16C3.49333 19.1707 2.73067 19.24 1.888 19.368H1.84C1.79733 19.368 1.76 19.3413 1.728 19.288L1.44 18.728C1.42933 18.7173 1.424 18.696 1.424 18.664C1.424 18.6107 1.46667 18.584 1.552 18.584C2.064 18.6373 2.65067 18.6747 3.312 18.696H4.224L4.512 18.28C4.55467 18.2267 4.59733 18.168 4.64 18.104C4.68267 18.04 4.72533 17.9813 4.768 17.928C4.82133 17.8747 4.86933 17.848 4.912 17.848C5.008 17.848 5.21067 17.976 5.52 18.232C5.82933 18.4773 6.016 18.6747 6.08 18.824C6.09067 18.8773 6.08533 18.9253 6.064 18.968C6 19.096 5.872 19.16 5.68 19.16H4.176ZM2.768 21.16C2.256 21.1707 1.74933 21.2347 1.248 21.352C1.16267 21.3733 1.10933 21.352 1.088 21.288L0.816 20.744C0.805333 20.7333 0.8 20.712 0.8 20.68C0.8 20.6267 0.837333 20.6 0.912 20.6C1.49867 20.6533 2.14933 20.6907 2.864 20.712H4.864L5.168 20.28C5.2 20.2373 5.24267 20.1733 5.296 20.088C5.36 20.0027 5.41333 19.9387 5.456 19.896C5.49867 19.8533 5.54133 19.832 5.584 19.832C5.68 19.832 5.87733 19.9653 6.176 20.232C6.47467 20.488 6.66133 20.6907 6.736 20.84C6.74667 20.8933 6.74667 20.9413 6.736 20.984C6.672 21.1013 6.544 21.16 6.352 21.16H2.768ZM5.136 21.96C5.22133 21.96 5.39733 22.0773 5.664 22.312C5.93067 22.5467 6.096 22.7333 6.16 22.872C6.17067 22.9253 6.17067 22.9787 6.16 23.032C6.096 23.1493 5.97333 23.208 5.792 23.208H4.224C3.54133 23.2187 2.77867 23.288 1.936 23.416H1.888C1.84533 23.416 1.808 23.3893 1.776 23.336L1.488 22.76C1.47733 22.7493 1.472 22.728 1.472 22.696C1.472 22.6427 1.50933 22.616 1.584 22.616C2.16 22.6693 2.79467 22.7067 3.488 22.728H4.464L4.736 22.344C4.768 22.3013 4.81067 22.2427 4.864 22.168C4.928 22.0933 4.976 22.04 5.008 22.008C5.05067 21.976 5.09333 21.96 5.136 21.96ZM5.136 23.992C5.22133 23.992 5.39733 24.1093 5.664 24.344C5.93067 24.5787 6.096 24.7653 6.16 24.904C6.17067 24.9573 6.17067 25.0107 6.16 25.064C6.096 25.1813 5.97333 25.24 5.792 25.24H4.224C3.54133 25.2507 2.77867 25.32 1.936 25.448H1.888C1.84533 25.448 1.808 25.4213 1.776 25.368L1.488 24.824C1.47733 24.8133 1.472 24.792 1.472 24.76C1.472 24.7067 1.51467 24.68 1.6 24.68C2.15467 24.7333 2.784 24.7707 3.488 24.792H4.464L4.736 24.392C4.77867 24.3387 4.83733 24.2587 4.912 24.152C4.99733 24.0453 5.072 23.992 5.136 23.992ZM2.496 30.328H4.848V27.32H2.496V30.328ZM23.616 31.32C22.752 31.32 22.0693 31.1493 21.568 30.808C21.0773 30.456 20.7307 29.9547 20.528 29.304C20.336 28.6427 20.24 27.8053 20.24 26.792C20.24 25.7787 20.3093 24.5893 20.448 23.224C20.5333 22.328 20.576 21.736 20.576 21.448C20.576 20.9147 20.5333 20.504 20.448 20.216C20.3733 19.9173 20.1973 19.6827 19.92 19.512C19.8347 19.4587 19.792 19.4 19.792 19.336C19.792 19.2187 19.9413 19.16 20.24 19.16C20.7627 19.16 21.1253 19.3147 21.328 19.624C21.5307 19.9333 21.632 20.3547 21.632 20.888C21.632 21.24 21.5573 22.04 21.408 23.288C21.2373 24.7067 21.152 25.9067 21.152 26.888C21.152 27.784 21.2373 28.4827 21.408 28.984C21.5893 29.4853 21.8773 29.848 22.272 30.072C22.6773 30.2853 23.2427 30.392 23.968 30.392C25.248 30.392 26.944 29.6187 29.056 28.072C29.0773 28.0613 29.1253 28.0293 29.2 27.976C29.2853 27.9227 29.3493 27.896 29.392 27.896C29.424 27.896 29.44 27.9173 29.44 27.96C29.44 28.0347 29.3707 28.1413 29.232 28.28C28.3147 29.1973 27.3867 29.9333 26.448 30.488C25.52 31.0427 24.576 31.32 23.616 31.32ZM40.8 31.752C40.576 31.752 40.4053 31.6347 40.288 31.4C40.1707 31.176 40.032 30.8187 39.872 30.328C39.5413 29.2933 39.264 28.5467 39.04 28.088C38.816 27.6187 38.5227 27.1013 38.16 26.536C38.1067 26.4507 37.9893 26.2693 37.808 25.992C37.6267 25.7147 37.504 25.496 37.44 25.336C37.376 25.1653 37.344 25.0107 37.344 24.872C37.344 24.6907 37.392 24.488 37.488 24.264C37.5947 24.04 37.7707 23.736 38.016 23.352C38.9547 21.8373 39.5947 20.648 39.936 19.784C40.0427 19.5067 40.096 19.2827 40.096 19.112C40.096 18.9307 40.0427 18.7867 39.936 18.68C39.872 18.616 39.776 18.5413 39.648 18.456C39.5307 18.3707 39.472 18.3067 39.472 18.264C39.472 18.2 39.5413 18.168 39.68 18.168C39.8293 18.168 40.032 18.216 40.288 18.312C40.544 18.3973 40.7733 18.5147 40.976 18.664C41.2107 18.8347 41.328 19.048 41.328 19.304C41.328 19.432 41.2853 19.608 41.2 19.832C41.0507 20.1947 40.8853 20.5253 40.704 20.824C40.5333 21.1227 40.2667 21.4907 39.904 21.928C39.1253 22.8773 38.5013 23.688 38.032 24.36C37.9147 24.52 37.856 24.6907 37.856 24.872C37.856 25.0427 37.9307 25.2133 38.08 25.384C38.8053 26.184 39.5147 27.1387 40.208 28.248C40.912 29.3467 41.264 30.3067 41.264 31.128C41.264 31.3093 41.2267 31.4587 41.152 31.576C41.0773 31.6933 40.96 31.752 40.8 31.752ZM59.568 18.136C59.5893 18.104 59.6267 18.0507 59.68 17.976C59.7333 17.9013 59.7813 17.848 59.824 17.816C59.8667 17.7733 59.9093 17.752 59.952 17.752C60.0373 17.752 60.2293 17.8853 60.528 18.152C60.8373 18.408 61.0293 18.6107 61.104 18.76C61.136 18.8133 61.1253 18.8667 61.072 18.92C60.9333 19.0373 60.7307 19.128 60.464 19.192V23.512C60.4853 24.8453 60.528 26.0667 60.592 27.176C60.592 27.24 60.5707 27.2933 60.528 27.336C60.4213 27.432 60.2827 27.5173 60.112 27.592C59.9413 27.6667 59.7813 27.704 59.632 27.704C59.5147 27.704 59.4453 27.624 59.424 27.464L59.44 27.304C59.44 27.3147 59.4507 27.2667 59.472 27.16V26.872H57.936V30.648C57.936 30.776 57.9733 30.856 58.048 30.888C58.1227 30.92 58.2987 30.936 58.576 30.936H60.128C60.96 30.936 61.4453 30.9307 61.584 30.92C61.68 30.9093 61.744 30.8933 61.776 30.872C61.8187 30.84 61.856 30.7813 61.888 30.696C61.9733 30.5147 62.1013 29.9547 62.272 29.016C62.2933 28.8453 62.3147 28.7173 62.336 28.632C62.3467 28.5573 62.3893 28.52 62.464 28.52C62.5387 28.52 62.576 28.5627 62.576 28.648L62.608 30.776C62.768 30.8293 62.8747 30.888 62.928 30.952C62.9813 31.016 63.008 31.1067 63.008 31.224C63.008 31.3947 62.9333 31.528 62.784 31.624C62.6347 31.72 62.352 31.7893 61.936 31.832C61.5307 31.8747 60.9227 31.896 60.112 31.896H58.416C58.0107 31.896 57.7013 31.864 57.488 31.8C57.2853 31.736 57.1467 31.6293 57.072 31.48C56.9973 31.3413 56.96 31.1333 56.96 30.856V26.872H55.216C55.056 27.9387 54.7467 28.824 54.288 29.528C53.8293 30.2213 53.1893 30.776 52.368 31.192C51.5573 31.6187 50.5013 31.9547 49.2 32.2H49.168C49.104 32.2 49.0613 32.1627 49.04 32.088V32.056C49.04 31.992 49.072 31.9493 49.136 31.928C50.2347 31.608 51.12 31.2293 51.792 30.792C52.4747 30.3547 52.992 29.8213 53.344 29.192C53.7067 28.5627 53.952 27.7893 54.08 26.872H52.672V27.512C52.672 27.576 52.5813 27.6507 52.4 27.736C52.2293 27.8213 52.0427 27.864 51.84 27.864C51.7547 27.864 51.6747 27.832 51.6 27.768C51.536 27.704 51.504 27.6293 51.504 27.544C51.5467 26.9253 51.5787 26.312 51.6 25.704C51.632 25.096 51.6533 24.3333 51.664 23.416V21.192C51.664 19.9333 51.6053 18.8987 51.488 18.088V18.056C51.488 18.0133 51.4987 17.9867 51.52 17.976C51.5413 17.9653 51.5733 17.9707 51.616 17.992L52.752 18.504H59.312L59.568 18.136ZM59.472 21.096V18.984H52.672V21.096H59.472ZM52.672 23.72H59.472V21.56H52.672V23.72ZM59.472 24.2H52.672V26.392H59.472V24.2ZM72.624 24.424C73.2107 24.424 73.7707 24.536 74.304 24.76C74.8373 24.984 75.2747 25.3307 75.616 25.8C75.9573 26.2693 76.128 26.8453 76.128 27.528C76.128 28.1893 75.9307 28.776 75.536 29.288C75.1413 29.8 74.6293 30.2 74 30.488C73.3813 30.7653 72.736 30.904 72.064 30.904C71.4987 30.904 70.992 30.7813 70.544 30.536C70.096 30.28 69.872 29.9333 69.872 29.496C69.872 29.1333 70.016 28.8453 70.304 28.632C70.592 28.408 70.9227 28.296 71.296 28.296C71.7227 28.296 72.1173 28.4347 72.48 28.712C72.8427 28.9893 73.1093 29.3893 73.28 29.912C73.8133 29.656 74.256 29.2987 74.608 28.84C74.96 28.3813 75.136 27.8747 75.136 27.32C75.136 26.488 74.8587 25.88 74.304 25.496C73.7493 25.1013 73.104 24.904 72.368 24.904C71.6853 24.904 71.056 25.1173 70.48 25.544C69.904 25.96 69.3173 26.6747 68.72 27.688C68.6667 27.7733 68.5867 27.912 68.48 28.104C68.3733 28.2853 68.272 28.4187 68.176 28.504C68.08 28.5893 67.9733 28.632 67.856 28.632C67.664 28.632 67.52 28.5733 67.424 28.456C67.3387 28.3387 67.296 28.2 67.296 28.04C67.296 27.7413 67.4187 27.416 67.664 27.064C67.92 26.7013 68.304 26.2267 68.816 25.64C69.3387 25.0427 69.9627 24.2907 70.688 23.384C71.4133 22.4773 71.856 21.9227 72.016 21.72L72.512 21.096C72.5653 21.032 72.6293 20.952 72.704 20.856C72.7893 20.76 72.848 20.68 72.88 20.616C72.9227 20.5413 72.944 20.472 72.944 20.408C72.944 20.3013 72.9013 20.2 72.816 20.104C72.7413 20.008 72.6613 19.96 72.576 19.96C72.448 19.96 72.3093 20.0507 72.16 20.232C71.8507 20.616 71.504 20.936 71.12 21.192C70.736 21.4373 70.3733 21.56 70.032 21.56C69.456 21.56 69.1253 21.1653 69.04 20.376L69.024 20.072C69.024 19.9867 69.0453 19.944 69.088 19.944C69.12 19.944 69.2107 20.0293 69.36 20.2C69.4987 20.3493 69.6427 20.424 69.792 20.424C69.9413 20.424 70.2187 20.344 70.624 20.184C71.0293 20.0133 71.4507 19.8 71.888 19.544C72.1333 19.3947 72.352 19.32 72.544 19.32C72.7253 19.32 72.9493 19.3787 73.216 19.496C73.4933 19.6133 73.7333 19.768 73.936 19.96C74.1387 20.152 74.24 20.3547 74.24 20.568C74.24 20.8347 74.112 21.064 73.856 21.256C72.3733 22.4507 71.0613 23.8053 69.92 25.32C70.816 24.7227 71.7173 24.424 72.624 24.424ZM71.984 30.216C72.08 30.216 72.2027 30.2053 72.352 30.184C72.2773 29.8533 72.1387 29.5707 71.936 29.336C71.744 29.1013 71.472 28.984 71.12 28.984C70.928 28.984 70.784 29.032 70.688 29.128C70.592 29.2133 70.544 29.32 70.544 29.448C70.544 29.6507 70.6933 29.832 70.992 29.992C71.3013 30.1413 71.632 30.216 71.984 30.216Z" fill="#2A4072"/>
<path d="M93 0C106.807 0 118 11.1929 118 25C118 38.8071 106.807 50 93 50C84.8216 50 77.5611 46.0724 73 40.001C73.2104 39.721 73.4136 39.4355 73.6123 39.1465C77.9779 45.1193 85.0352 49 93 49C106.255 49 117 38.2548 117 25C117 11.7452 106.255 1 93 1C85.0355 1 77.9779 4.88011 73.6123 10.8525C73.4136 10.5636 73.2104 10.2781 73 9.99805C77.5611 3.92702 84.8219 0 93 0Z" fill="#2A4072"/>
</svg>
