<svg width="111" height="56" viewBox="0 0 111 56" fill="none" xmlns="http://www.w3.org/2000/svg">
<path d="M19.68 24.752C19.488 24.9227 19.1787 25.1147 18.752 25.328C18.3467 25.52 17.8453 25.7013 17.248 25.872C16.672 26.0213 16.0213 26.16 15.296 26.288C14.5707 26.416 13.8133 26.48 13.024 26.48C11.3387 26.48 9.78133 26.2453 8.352 25.776C6.92267 25.2853 5.68533 24.5493 4.64 23.568C3.616 22.5867 2.80533 21.392 2.208 19.984C1.632 18.5547 1.344 16.9333 1.344 15.12C1.344 13.3067 1.632 11.696 2.208 10.288C2.80533 8.85867 3.62667 7.65333 4.672 6.672C5.73867 5.69067 7.008 4.944 8.48 4.432C9.952 3.92 11.5733 3.664 13.344 3.664C14.752 3.664 16.032 3.81333 17.184 4.112C18.3573 4.38933 19.392 4.73067 20.288 5.136C20.1173 5.43467 19.9787 5.84 19.872 6.352C19.7653 6.864 19.68 7.29067 19.616 7.632L19.424 7.696C19.2107 7.44 18.912 7.152 18.528 6.832C18.144 6.512 17.696 6.20267 17.184 5.904C16.672 5.60533 16.096 5.36 15.456 5.168C14.816 4.95467 14.112 4.848 13.344 4.848C12.0853 4.848 10.912 5.05067 9.824 5.456C8.75733 5.86133 7.81867 6.49067 7.008 7.344C6.21867 8.176 5.6 9.24267 5.152 10.544C4.704 11.824 4.48 13.3493 4.48 15.12C4.48 16.8907 4.704 18.4267 5.152 19.728C5.6 21.008 6.21867 22.0747 7.008 22.928C7.81867 23.76 8.75733 24.3787 9.824 24.784C10.912 25.1893 12.0853 25.392 13.344 25.392C14.112 25.392 14.816 25.296 15.456 25.104C16.1173 24.912 16.7147 24.688 17.248 24.432C17.8027 24.1547 18.2933 23.8667 18.72 23.568C19.168 23.248 19.5413 22.9707 19.84 22.736L19.968 22.864L19.68 24.752ZM25.2798 18.512C25.2798 19.408 25.3544 20.272 25.5038 21.104C25.6744 21.936 25.9518 22.6827 26.3358 23.344C26.7198 23.984 27.2318 24.496 27.8718 24.88C28.5118 25.264 29.3011 25.456 30.2398 25.456C31.1784 25.456 31.9678 25.264 32.6078 24.88C33.2478 24.496 33.7598 23.984 34.1438 23.344C34.5278 22.6827 34.7944 21.936 34.9438 21.104C35.1144 20.272 35.1998 19.408 35.1998 18.512C35.1998 17.616 35.1144 16.752 34.9438 15.92C34.7944 15.088 34.5278 14.352 34.1438 13.712C33.7598 13.0507 33.2478 12.528 32.6078 12.144C31.9678 11.76 31.1784 11.568 30.2398 11.568C29.3011 11.568 28.5118 11.76 27.8718 12.144C27.2318 12.528 26.7198 13.0507 26.3358 13.712C25.9518 14.352 25.6744 15.088 25.5038 15.92C25.3544 16.752 25.2798 17.616 25.2798 18.512ZM22.4638 18.512C22.4638 17.0613 22.6878 15.8347 23.1358 14.832C23.6051 13.808 24.2131 12.9867 24.9598 12.368C25.7064 11.728 26.5384 11.2693 27.4558 10.992C28.3944 10.6933 29.3224 10.544 30.2398 10.544C31.1784 10.544 32.1064 10.6933 33.0238 10.992C33.9411 11.2693 34.7731 11.728 35.5198 12.368C36.2664 12.9867 36.8638 13.808 37.3118 14.832C37.7811 15.8347 38.0158 17.0613 38.0158 18.512C38.0158 19.9627 37.7811 21.2 37.3118 22.224C36.8638 23.2267 36.2664 24.048 35.5198 24.688C34.7731 25.3067 33.9411 25.744 33.0238 26C32.1064 26.256 31.1784 26.384 30.2398 26.384C29.3224 26.384 28.3944 26.256 27.4558 26C26.5384 25.744 25.7064 25.3067 24.9598 24.688C24.2131 24.048 23.6051 23.2267 23.1358 22.224C22.6878 21.2 22.4638 19.9627 22.4638 18.512ZM42.389 11.152C42.389 10.4267 42.3783 9.63733 42.357 8.784C42.357 7.93067 42.3463 7.088 42.325 6.256C42.3037 5.424 42.2717 4.63467 42.229 3.888C42.2077 3.12 42.1757 2.46933 42.133 1.936C42.7303 2.04267 43.2103 2.096 43.573 2.096C43.9357 2.096 44.4157 2.04267 45.013 1.936C44.9703 2.46933 44.9277 3.12 44.885 3.888C44.8637 4.63467 44.8423 5.424 44.821 6.256C44.7997 7.088 44.7783 7.93067 44.757 8.784C44.757 9.63733 44.757 10.4267 44.757 11.152V16.944C44.757 17.6693 44.757 18.4587 44.757 19.312C44.7783 20.1653 44.7997 21.008 44.821 21.84C44.8423 22.672 44.8637 23.4613 44.885 24.208C44.9277 24.9547 44.9703 25.5733 45.013 26.064C44.5223 26.0213 44.0423 26 43.573 26C43.1037 26 42.6237 26.0213 42.133 26.064C42.1757 25.5733 42.2077 24.9547 42.229 24.208C42.2717 23.4613 42.3037 22.672 42.325 21.84C42.3463 21.008 42.357 20.1653 42.357 19.312C42.3783 18.4587 42.389 17.6693 42.389 16.944V11.152ZM50.4633 21.232C50.4633 20.1013 50.4739 19.1413 50.4953 18.352C50.5379 17.5413 50.5593 16.7413 50.5593 15.952C50.5593 15.2053 50.5486 14.3947 50.5273 13.52C50.5273 12.6453 50.5166 11.76 50.4953 10.864C51.0286 10.9707 51.4766 11.024 51.8393 11.024C52.1806 11.024 52.6179 10.9707 53.1513 10.864C53.0446 12.144 52.9593 13.552 52.8953 15.088C52.8526 16.6027 52.8313 18.16 52.8313 19.76C52.8313 20.8693 52.9273 21.7227 53.1193 22.32C53.3113 22.896 53.5459 23.3333 53.8233 23.632C54.1219 23.9733 54.4953 24.2613 54.9433 24.496C55.4126 24.7093 55.9566 24.816 56.5753 24.816C57.4713 24.816 58.2179 24.624 58.8153 24.24C59.4126 23.8347 59.8499 23.344 60.1273 22.768C60.2766 22.4053 60.3939 22.096 60.4793 21.84C60.5646 21.584 60.6286 21.2427 60.6713 20.816C60.7353 20.3893 60.7673 19.8133 60.7673 19.088C60.7886 18.3627 60.7993 17.3707 60.7993 16.112V13.424C60.7993 12.9547 60.7886 12.5067 60.7673 12.08C60.7673 11.6533 60.7566 11.248 60.7353 10.864C60.9699 10.9067 61.1939 10.9493 61.4073 10.992C61.6206 11.0133 61.8446 11.024 62.0793 11.024C62.3139 11.024 62.5379 11.0133 62.7513 10.992C62.9646 10.9493 63.1779 10.9067 63.3913 10.864C63.2846 12.528 63.2206 14.1387 63.1993 15.696C63.1779 17.232 63.1673 18.864 63.1673 20.592C63.1673 21.552 63.1779 22.4907 63.1993 23.408C63.2206 24.3253 63.2526 25.2107 63.2953 26.064C62.8686 26.0213 62.4526 26 62.0473 26C61.6419 26 61.2259 26.0213 60.7993 26.064C60.8206 25.872 60.8313 25.6693 60.8313 25.456C60.8526 25.2427 60.8633 25.0187 60.8633 24.784V23.408H60.7993C60.2446 24.432 59.5299 25.1893 58.6553 25.68C57.7806 26.1493 56.8313 26.384 55.8073 26.384C54.1433 26.384 52.8313 25.9467 51.8713 25.072C50.9326 24.176 50.4633 22.896 50.4633 21.232ZM68.3085 16.848C68.3085 15.888 68.2872 14.8853 68.2445 13.84C68.2232 12.7733 68.1592 11.7813 68.0525 10.864C68.6498 10.9707 69.1298 11.024 69.4925 11.024C69.6632 11.024 69.8445 11.0133 70.0365 10.992C70.2498 10.9493 70.4952 10.9067 70.7725 10.864C70.7085 11.7173 70.6765 12.5707 70.6765 13.424H70.7405C71.8712 11.504 73.4605 10.544 75.5085 10.544C76.0418 10.544 76.5645 10.6293 77.0765 10.8C77.5885 10.9493 78.0472 11.1627 78.4525 11.44C78.8792 11.7173 79.2418 12.0587 79.5405 12.464C79.8392 12.848 80.0418 13.264 80.1485 13.712H80.2125C80.7245 12.688 81.4178 11.9093 82.2925 11.376C83.1885 10.8213 84.2125 10.544 85.3645 10.544C86.0685 10.544 86.7192 10.64 87.3165 10.832C87.9138 11.024 88.4258 11.3227 88.8525 11.728C89.3005 12.1333 89.6418 12.656 89.8765 13.296C90.1325 13.936 90.2605 14.704 90.2605 15.6C90.2605 15.9627 90.2498 16.3573 90.2285 16.784C90.2072 17.2107 90.1858 17.712 90.1645 18.288C90.1432 18.8427 90.1218 19.4827 90.1005 20.208C90.0792 20.912 90.0685 21.7333 90.0685 22.672C90.0685 23.248 90.0685 23.8027 90.0685 24.336C90.0898 24.8693 90.1218 25.4453 90.1645 26.064C89.9298 26.0213 89.6952 26 89.4605 26C89.2258 26 89.0018 26 88.7885 26C88.5538 26 88.3192 26 88.0845 26C87.8498 26 87.6152 26.0213 87.3805 26.064C87.4445 25.5307 87.5085 24.4533 87.5725 22.832C87.6578 21.2107 87.7005 18.9493 87.7005 16.048C87.7005 15.5147 87.6365 15.0133 87.5085 14.544C87.4018 14.0747 87.2205 13.6693 86.9645 13.328C86.7085 12.9867 86.3672 12.72 85.9405 12.528C85.5138 12.3147 84.9805 12.208 84.3405 12.208C83.5725 12.208 82.9218 12.3573 82.3885 12.656C81.8552 12.9547 81.4392 13.3067 81.1405 13.712C80.9698 13.9467 80.8312 14.1813 80.7245 14.416C80.6392 14.6507 80.5645 15.0133 80.5005 15.504C80.4578 15.9733 80.4258 16.6453 80.4045 17.52C80.3832 18.3733 80.3725 19.5573 80.3725 21.072C80.3725 21.9893 80.3832 22.832 80.4045 23.6C80.4472 24.3467 80.4898 25.168 80.5325 26.064C80.0418 26.0213 79.5725 26 79.1245 26C78.6765 26 78.2072 26.0213 77.7165 26.064C77.8232 24.8907 77.8978 23.696 77.9405 22.48C77.9832 21.264 78.0045 20.0693 78.0045 18.896C78.0045 17.8933 77.9938 17.1147 77.9725 16.56C77.9725 15.984 77.9512 15.536 77.9085 15.216C77.8658 14.8747 77.8018 14.5973 77.7165 14.384C77.6525 14.1707 77.5565 13.936 77.4285 13.68C77.1938 13.2747 76.8205 12.9333 76.3085 12.656C75.8178 12.3573 75.3058 12.208 74.7725 12.208C73.3645 12.208 72.3298 12.6667 71.6685 13.584C71.0072 14.5013 70.6765 15.792 70.6765 17.456V20.176C70.6765 21.136 70.6872 22.1493 70.7085 23.216C70.7512 24.2613 70.8258 25.2107 70.9325 26.064C70.4418 26.0213 69.9618 26 69.4925 26C69.0232 26 68.5432 26.0213 68.0525 26.064C68.1592 25.2107 68.2232 24.2613 68.2445 23.216C68.2872 22.1493 68.3085 21.136 68.3085 20.176V16.848ZM105.333 17.072C105.333 15.472 105.023 14.2667 104.405 13.456C103.786 12.624 102.933 12.208 101.845 12.208C100.351 12.208 99.2528 12.6667 98.5488 13.584C97.8661 14.5013 97.5248 15.792 97.5248 17.456V20.176C97.5248 21.136 97.5354 22.1493 97.5568 23.216C97.5994 24.2613 97.6741 25.2107 97.7808 26.064C97.2901 26.0213 96.8101 26 96.3408 26C95.8714 26 95.3914 26.0213 94.9008 26.064C95.0074 25.2107 95.0714 24.2613 95.0928 23.216C95.1354 22.1493 95.1568 21.136 95.1568 20.176V16.848C95.1568 15.888 95.1354 14.8853 95.0928 13.84C95.0714 12.7733 95.0074 11.7813 94.9008 10.864C95.4981 10.9707 95.9781 11.024 96.3408 11.024C96.5114 11.024 96.6928 11.0133 96.8848 10.992C97.0981 10.9493 97.3434 10.9067 97.6208 10.864C97.5568 11.7173 97.5248 12.5707 97.5248 13.424H97.5888C98.1861 12.5067 98.9008 11.8027 99.7328 11.312C100.565 10.8 101.557 10.544 102.709 10.544C103.306 10.544 103.903 10.6293 104.501 10.8C105.119 10.9707 105.674 11.2693 106.165 11.696C106.655 12.1013 107.05 12.6667 107.349 13.392C107.669 14.096 107.829 15.0027 107.829 16.112C107.829 17.0293 107.807 17.9787 107.765 18.96C107.722 19.92 107.701 20.944 107.701 22.032V24.112C107.701 24.4533 107.701 24.7947 107.701 25.136C107.722 25.456 107.743 25.7653 107.765 26.064C107.338 26.0213 106.89 26 106.421 26C105.973 26 105.535 26.0213 105.109 26.064C105.151 24.9547 105.194 23.8133 105.237 22.64C105.301 21.4667 105.333 20.2613 105.333 19.024V17.072Z" fill="#2A4072"/>
<line y1="48.5" x2="24" y2="48.5" stroke="#2A4072"/>
<path d="M43.632 45.754C43.716 45.754 43.898 45.8053 44.178 45.908C44.458 46.0013 44.71 46.118 44.934 46.258C45.1673 46.398 45.284 46.5473 45.284 46.706C45.284 46.7993 45.256 46.8787 45.2 46.944C45.144 47 45.0647 47.0653 44.962 47.14C44.8033 47.2613 44.71 47.364 44.682 47.448C44.5793 47.7373 44.4487 48.218 44.29 48.89C44.1407 49.5527 43.996 50.2293 43.856 50.92C44.4347 50.976 44.724 51.158 44.724 51.466C44.724 51.5593 44.654 51.6387 44.514 51.704C44.3833 51.7693 44.2013 51.802 43.968 51.802L43.562 51.774C43.4313 51.7647 43.2213 51.7553 42.932 51.746C42.652 51.7273 42.414 51.718 42.218 51.718C40.6967 51.718 39.3387 51.9 38.144 52.264C38.0787 52.2827 38.0133 52.292 37.948 52.292C37.7707 52.292 37.5887 52.236 37.402 52.124C37.2153 52.012 37.0567 51.8767 36.926 51.718C36.8047 51.5593 36.744 51.41 36.744 51.27C36.744 51.1113 36.786 51.032 36.87 51.032C36.898 51.032 36.94 51.046 36.996 51.074C37.1547 51.1673 37.304 51.2373 37.444 51.284C37.5933 51.3213 37.8033 51.34 38.074 51.34C38.3353 51.34 38.7833 51.2933 39.418 51.2L40.65 51.046C41.378 50.962 42.204 50.9107 43.128 50.892C43.2213 50.4067 43.3053 49.8233 43.38 49.142C43.464 48.4513 43.506 47.8867 43.506 47.448C43.506 47.224 43.4873 47.0793 43.45 47.014C43.4127 46.9393 43.3193 46.902 43.17 46.902C42.9273 46.9207 42.4747 46.9673 41.812 47.042C41.1587 47.1073 40.4727 47.1867 39.754 47.28C39.0447 47.3733 38.564 47.462 38.312 47.546C37.9293 47.6673 37.6447 47.728 37.458 47.728C37.2433 47.728 37.0613 47.672 36.912 47.56C36.772 47.4387 36.632 47.2287 36.492 46.93C36.4547 46.8553 36.436 46.79 36.436 46.734C36.436 46.6593 36.4827 46.622 36.576 46.622C36.632 46.622 36.702 46.636 36.786 46.664C37.0287 46.7293 37.2387 46.762 37.416 46.762C37.8827 46.762 38.802 46.706 40.174 46.594C41.5553 46.482 42.3907 46.3747 42.68 46.272C42.8853 46.1973 43.044 46.118 43.156 46.034C43.2773 45.95 43.3473 45.9033 43.366 45.894C43.478 45.8007 43.5667 45.754 43.632 45.754ZM52.83 44.886C52.6247 44.886 52.4287 44.8067 52.242 44.648C52.0367 44.4613 51.9013 44.2933 51.836 44.144C51.808 44.088 51.794 44.046 51.794 44.018C51.794 43.99 51.8033 43.9667 51.822 43.948C51.8407 43.9293 51.8593 43.92 51.878 43.92C51.9153 43.92 51.976 43.9387 52.06 43.976C52.144 44.0133 52.2233 44.0413 52.298 44.06C52.5033 44.116 52.732 44.144 52.984 44.144C53.1893 44.144 53.3993 44.1253 53.614 44.088C54.4073 43.9667 55.1027 43.8453 55.7 43.724C55.7933 43.7053 55.896 43.6587 56.008 43.584C56.092 43.528 56.1713 43.486 56.246 43.458C56.33 43.43 56.442 43.416 56.582 43.416C56.806 43.416 57.016 43.4627 57.212 43.556C57.4173 43.6493 57.5807 43.7613 57.702 43.892C57.8233 44.0227 57.884 44.1347 57.884 44.228C57.884 44.312 57.8513 44.3727 57.786 44.41C57.73 44.438 57.6133 44.452 57.436 44.452C57.2867 44.452 57.1607 44.4473 57.058 44.438C56.7407 44.4193 56.4327 44.41 56.134 44.41C55.742 44.41 55.2427 44.452 54.636 44.536C54.0293 44.6107 53.6187 44.69 53.404 44.774C53.2173 44.8487 53.026 44.886 52.83 44.886ZM50.198 54.308C50.1513 54.308 50.128 54.2893 50.128 54.252C50.128 54.224 50.1653 54.1913 50.24 54.154C51.9667 53.3887 53.4273 52.4693 54.622 51.396C55.8167 50.3133 56.8153 48.932 57.618 47.252C57.6647 47.14 57.688 47.0607 57.688 47.014C57.688 46.93 57.6273 46.888 57.506 46.888C57.394 46.888 56.7453 46.9953 55.56 47.21C54.384 47.4247 53.5953 47.588 53.194 47.7C52.9233 47.7747 52.746 47.8493 52.662 47.924C52.578 47.9893 52.522 48.0313 52.494 48.05C52.4287 48.0967 52.3353 48.12 52.214 48.12C51.9993 48.12 51.7753 48.05 51.542 47.91C51.3087 47.77 51.1127 47.602 50.954 47.406C50.8607 47.2847 50.814 47.1353 50.814 46.958C50.814 46.7993 50.8513 46.72 50.926 46.72C50.954 46.72 51.0007 46.7387 51.066 46.776C51.1313 46.8133 51.192 46.8413 51.248 46.86C51.3507 46.8973 51.5187 46.9393 51.752 46.986C51.9947 47.0233 52.2607 47.042 52.55 47.042C52.6433 47.042 52.802 47.0327 53.026 47.014C53.5673 46.9393 54.3513 46.8227 55.378 46.664C56.414 46.5053 57.03 46.4073 57.226 46.37C57.366 46.3327 57.5247 46.2533 57.702 46.132C57.8513 46.0387 57.9447 45.992 57.982 45.992C58.1033 45.992 58.2667 46.062 58.472 46.202C58.6867 46.3327 58.8733 46.4867 59.032 46.664C59.2 46.832 59.284 46.9673 59.284 47.07C59.284 47.1353 59.2467 47.21 59.172 47.294C59.0973 47.3687 59.0133 47.448 58.92 47.532C58.6587 47.756 58.4673 47.966 58.346 48.162C57.758 49.1513 57.1233 50.0193 56.442 50.766C55.7607 51.5127 54.916 52.1847 53.908 52.782C52.9093 53.3793 51.696 53.8833 50.268 54.294L50.198 54.308ZM70.806 48.652C71.0673 48.7267 71.422 48.8667 71.87 49.072C72.3273 49.268 72.766 49.5667 73.186 49.968C73.6153 50.36 73.83 50.822 73.83 51.354C73.83 51.6527 73.76 51.8627 73.62 51.984C73.4893 52.1053 73.3493 52.166 73.2 52.166C73.0507 52.166 72.92 52.096 72.808 51.956C72.7053 51.8067 72.6213 51.6153 72.556 51.382C72.4813 51.1487 72.388 50.92 72.276 50.696C71.352 50.948 70.1853 51.2653 68.776 51.648C67.3667 52.0213 66.55 52.222 66.326 52.25C66.186 52.2687 66.0787 52.3013 66.004 52.348C65.9293 52.3853 65.8547 52.4367 65.78 52.502C65.668 52.5953 65.5653 52.642 65.472 52.642C65.332 52.642 65.1733 52.586 64.996 52.474C64.828 52.362 64.674 52.18 64.534 51.928C64.394 51.676 64.3007 51.3493 64.254 50.948L64.24 50.752C64.24 50.6307 64.2633 50.57 64.31 50.57C64.338 50.57 64.3753 50.6073 64.422 50.682C64.4687 50.7567 64.5247 50.8313 64.59 50.906C64.702 51.0273 64.814 51.116 64.926 51.172C65.0473 51.2187 65.276 51.242 65.612 51.242C65.9387 50.766 66.2933 50.1547 66.676 49.408C67.0587 48.652 67.3947 47.9333 67.684 47.252C67.9733 46.5613 68.146 46.0993 68.202 45.866C68.2207 45.754 68.23 45.67 68.23 45.614C68.23 45.4553 68.202 45.306 68.146 45.166C68.0993 45.026 68.0387 44.9187 67.964 44.844C67.9173 44.7973 67.8613 44.7507 67.796 44.704C67.74 44.6573 67.712 44.6247 67.712 44.606C67.712 44.5407 67.7867 44.508 67.936 44.508C68.104 44.508 68.342 44.5733 68.65 44.704C68.9673 44.8347 69.2473 44.998 69.49 45.194C69.7327 45.3807 69.854 45.558 69.854 45.726C69.854 45.8007 69.826 45.8707 69.77 45.936C69.714 46.0013 69.6253 46.0807 69.504 46.174C69.2613 46.3607 69.0793 46.552 68.958 46.748L68.3 47.854C67.2733 49.59 66.5967 50.71 66.27 51.214C66.9793 51.158 67.908 51.046 69.056 50.878C70.204 50.71 71.2073 50.5373 72.066 50.36C71.7113 49.8 71.2493 49.3287 70.68 48.946C70.6707 48.9367 70.6287 48.9133 70.554 48.876C70.4887 48.8293 70.456 48.778 70.456 48.722C70.456 48.6567 70.5027 48.624 70.596 48.624C70.6427 48.624 70.7127 48.6333 70.806 48.652Z" fill="#2A4072"/>
</svg>
