<svg width="165" height="60" viewBox="0 0 165 60" fill="none" xmlns="http://www.w3.org/2000/svg">
<path d="M100.5 33H163.5L157.5 27" stroke="#2A4072"/>
<path d="M5.828 36.036C5.552 35.328 5.216 34.476 4.82 33.48C4.424 32.484 3.998 31.434 3.542 30.33C3.098 29.226 2.636 28.098 2.156 26.946C1.688 25.794 1.238 24.702 0.806 23.67C0.974 23.694 1.136 23.718 1.292 23.742C1.448 23.754 1.598 23.76 1.742 23.76C1.886 23.76 2.036 23.754 2.192 23.742C2.348 23.718 2.51 23.694 2.678 23.67C2.942 24.462 3.23 25.296 3.542 26.172C3.866 27.036 4.202 27.918 4.55 28.818C4.91 29.718 5.276 30.63 5.648 31.554C6.02 32.478 6.398 33.396 6.782 34.308C6.998 33.816 7.232 33.27 7.484 32.67C7.736 32.058 7.988 31.428 8.24 30.78C8.504 30.12 8.762 29.454 9.014 28.782C9.266 28.098 9.506 27.444 9.734 26.82C9.974 26.196 10.19 25.614 10.382 25.074C10.574 24.534 10.736 24.066 10.868 23.67C11.132 23.73 11.354 23.76 11.534 23.76C11.714 23.76 11.936 23.73 12.2 23.67C11.264 25.758 10.364 27.828 9.5 29.88C8.636 31.932 7.808 33.984 7.016 36.036C6.824 36.012 6.626 36 6.422 36C6.182 36 5.984 36.012 5.828 36.036ZM14.2699 28.332C14.2699 27.54 14.2519 26.766 14.2159 26.01C14.1919 25.242 14.1619 24.462 14.1259 23.67C14.2819 23.694 14.4319 23.718 14.5759 23.742C14.7199 23.754 14.8639 23.76 15.0079 23.76C15.1519 23.76 15.2959 23.754 15.4399 23.742C15.5839 23.718 15.7339 23.694 15.8899 23.67C15.8539 24.462 15.8179 25.242 15.7819 26.01C15.7579 26.766 15.7459 27.54 15.7459 28.332V31.428C15.7459 32.22 15.7579 33 15.7819 33.768C15.8179 34.536 15.8539 35.292 15.8899 36.036C15.6139 36.012 15.3199 36 15.0079 36C14.6959 36 14.4019 36.012 14.1259 36.036C14.1619 35.292 14.1919 34.536 14.2159 33.768C14.2519 33 14.2699 32.22 14.2699 31.428V28.332ZM19.2796 28.314C19.2796 27.522 19.2616 26.742 19.2256 25.974C19.2016 25.206 19.1716 24.438 19.1356 23.67C19.6756 23.694 20.2096 23.718 20.7376 23.742C21.2776 23.754 21.8176 23.76 22.3576 23.76C22.8976 23.76 23.4316 23.754 23.9596 23.742C24.4876 23.718 25.0216 23.694 25.5616 23.67C25.5256 23.85 25.5076 24.03 25.5076 24.21C25.5076 24.39 25.5256 24.57 25.5616 24.75C25.1776 24.726 24.8236 24.702 24.4996 24.678C24.1876 24.654 23.8516 24.63 23.4916 24.606C23.1436 24.582 22.7596 24.564 22.3396 24.552C21.9196 24.528 21.4156 24.516 20.8276 24.516C20.8156 24.9 20.7976 25.266 20.7736 25.614C20.7616 25.962 20.7556 26.358 20.7556 26.802C20.7556 27.27 20.7556 27.726 20.7556 28.17C20.7676 28.614 20.7736 28.95 20.7736 29.178C21.3016 29.178 21.7756 29.172 22.1956 29.16C22.6156 29.148 22.9996 29.136 23.3476 29.124C23.6956 29.1 24.0136 29.082 24.3016 29.07C24.6016 29.046 24.8836 29.022 25.1476 28.998C25.1116 29.178 25.0936 29.364 25.0936 29.556C25.0936 29.736 25.1116 29.916 25.1476 30.096C24.8356 30.06 24.4696 30.03 24.0496 30.006C23.6416 29.982 23.2276 29.97 22.8076 29.97C22.3996 29.958 22.0096 29.952 21.6376 29.952C21.2776 29.94 20.9896 29.934 20.7736 29.934C20.7736 30.042 20.7676 30.162 20.7556 30.294C20.7556 30.414 20.7556 30.57 20.7556 30.762V31.464V32.544C20.7556 33.228 20.7556 33.792 20.7556 34.236C20.7676 34.68 20.7796 35.016 20.7916 35.244C21.1876 35.244 21.6076 35.244 22.0516 35.244C22.5076 35.244 22.9516 35.238 23.3836 35.226C23.8276 35.202 24.2416 35.178 24.6256 35.154C25.0216 35.118 25.3636 35.07 25.6516 35.01C25.6276 35.094 25.6096 35.19 25.5976 35.298C25.5976 35.394 25.5976 35.484 25.5976 35.568C25.5976 35.76 25.6156 35.916 25.6516 36.036C25.1116 36.012 24.5716 36 24.0316 36C23.5036 36 22.9636 36 22.4116 36C21.8596 36 21.3136 36 20.7736 36C20.2336 36 19.6876 36.012 19.1356 36.036C19.1716 35.268 19.2016 34.506 19.2256 33.75C19.2616 32.982 19.2796 32.202 19.2796 31.41V28.314ZM30.6376 36.036C30.5416 35.736 30.3916 35.262 30.1876 34.614C29.9956 33.966 29.7736 33.234 29.5216 32.418C29.2696 31.602 29.0056 30.75 28.7296 29.862C28.4536 28.962 28.1896 28.11 27.9376 27.306C27.6856 26.49 27.4516 25.758 27.2356 25.11C27.0316 24.462 26.8696 23.982 26.7496 23.67C26.9056 23.694 27.0556 23.718 27.1996 23.742C27.3436 23.754 27.4936 23.76 27.6496 23.76C27.8056 23.76 27.9556 23.754 28.0996 23.742C28.2436 23.718 28.3936 23.694 28.5496 23.67C28.7776 24.582 28.9996 25.44 29.2156 26.244C29.4316 27.036 29.6596 27.846 29.8996 28.674C30.1516 29.49 30.4156 30.354 30.6916 31.266C30.9796 32.166 31.3036 33.186 31.6636 34.326H31.6996C31.8076 34.002 31.9576 33.558 32.1496 32.994C32.3416 32.418 32.5516 31.788 32.7796 31.104C33.0076 30.408 33.2476 29.688 33.4996 28.944C33.7516 28.2 33.9856 27.492 34.2016 26.82C34.4176 26.136 34.6096 25.518 34.7776 24.966C34.9456 24.402 35.0656 23.97 35.1376 23.67C35.3776 23.73 35.5756 23.76 35.7316 23.76C35.8876 23.76 36.0856 23.73 36.3256 23.67C36.4096 23.994 36.5356 24.438 36.7036 25.002C36.8836 25.566 37.0816 26.196 37.2976 26.892C37.5136 27.576 37.7416 28.29 37.9816 29.034C38.2336 29.778 38.4736 30.492 38.7016 31.176C38.9296 31.86 39.1336 32.478 39.3136 33.03C39.5056 33.582 39.6556 34.014 39.7636 34.326H39.7996C39.8836 34.062 40.0096 33.654 40.1776 33.102C40.3576 32.538 40.5556 31.908 40.7716 31.212C40.9996 30.504 41.2276 29.766 41.4556 28.998C41.6956 28.218 41.9176 27.48 42.1216 26.784C42.3376 26.076 42.5236 25.446 42.6796 24.894C42.8476 24.342 42.9616 23.934 43.0216 23.67C43.1296 23.694 43.2316 23.718 43.3276 23.742C43.4356 23.754 43.5436 23.76 43.6516 23.76C43.7596 23.76 43.8616 23.754 43.9576 23.742C44.0656 23.718 44.1736 23.694 44.2816 23.67C44.1616 23.946 43.9876 24.402 43.7596 25.038C43.5316 25.674 43.2736 26.4 42.9856 27.216C42.7096 28.032 42.4156 28.896 42.1036 29.808C41.8036 30.72 41.5096 31.59 41.2216 32.418C40.9456 33.234 40.6936 33.972 40.4656 34.632C40.2496 35.28 40.0876 35.748 39.9796 36.036C39.7876 36.012 39.5836 36 39.3676 36C39.1516 36 38.9476 36.012 38.7556 36.036C38.2156 34.368 37.6816 32.694 37.1536 31.014C36.6256 29.322 36.0556 27.576 35.4436 25.776H35.4076C35.3116 26.052 35.1796 26.424 35.0116 26.892C34.8556 27.348 34.6756 27.864 34.4716 28.44C34.2796 29.016 34.0696 29.634 33.8416 30.294C33.6136 30.954 33.3856 31.62 33.1576 32.292C32.9296 32.964 32.7076 33.624 32.4916 34.272C32.2756 34.92 32.0776 35.508 31.8976 36.036C31.7056 36.012 31.4956 36 31.2676 36C31.0396 36 30.8296 36.012 30.6376 36.036ZM52.5834 30.438C52.8954 30.438 53.2194 30.444 53.5554 30.456C53.8914 30.468 54.2154 30.474 54.5274 30.474C54.8634 30.474 55.1994 30.474 55.5354 30.474C55.8714 30.462 56.2074 30.45 56.5434 30.438L54.5454 25.866L52.5834 30.438ZM60.5574 36.036C60.3894 36.012 60.2274 36 60.0714 36C59.9274 36 59.7714 36 59.6034 36C59.4354 36 59.2734 36 59.1174 36C58.9734 36 58.8174 36.012 58.6494 36.036C58.5654 35.76 58.4514 35.43 58.3074 35.046C58.1634 34.65 58.0014 34.242 57.8214 33.822C57.6534 33.39 57.4794 32.958 57.2994 32.526C57.1194 32.082 56.9514 31.662 56.7954 31.266C56.4114 31.254 56.0214 31.248 55.6254 31.248C55.2294 31.236 54.8334 31.23 54.4374 31.23C54.0654 31.23 53.6994 31.236 53.3394 31.248C52.9794 31.248 52.6134 31.254 52.2414 31.266C51.8574 32.202 51.5094 33.096 51.1974 33.948C50.8854 34.788 50.6514 35.484 50.4954 36.036C50.2914 36.012 50.0694 36 49.8294 36C49.5894 36 49.3674 36.012 49.1634 36.036C50.1354 33.936 51.0834 31.848 52.0074 29.772C52.9314 27.696 53.8614 25.584 54.7974 23.436H55.1394C55.4274 24.132 55.7394 24.888 56.0754 25.704C56.4114 26.508 56.7534 27.324 57.1014 28.152C57.4494 28.98 57.7974 29.802 58.1454 30.618C58.4934 31.434 58.8174 32.196 59.1174 32.904C59.4294 33.6 59.7054 34.224 59.9454 34.776C60.1974 35.328 60.4014 35.748 60.5574 36.036ZM62.6273 28.332C62.6273 27.54 62.6093 26.766 62.5733 26.01C62.5493 25.242 62.5193 24.462 62.4833 23.67C62.6393 23.694 62.7893 23.718 62.9333 23.742C63.0773 23.754 63.2213 23.76 63.3653 23.76C63.5093 23.76 63.6533 23.754 63.7973 23.742C63.9413 23.718 64.0913 23.694 64.2473 23.67C64.2113 24.462 64.1753 25.242 64.1393 26.01C64.1153 26.766 64.1033 27.54 64.1033 28.332C64.1033 29.844 64.1093 31.158 64.1213 32.274C64.1333 33.378 64.1453 34.368 64.1573 35.244C65.0093 35.244 65.8253 35.238 66.6053 35.226C67.3853 35.202 68.2253 35.13 69.1253 35.01C69.0653 35.226 69.0353 35.406 69.0353 35.55C69.0353 35.682 69.0653 35.844 69.1253 36.036C68.5733 36.012 68.0213 36 67.4693 36C66.9173 36 66.3653 36 65.8133 36C65.2373 36 64.6793 36 64.1393 36C63.6113 36 63.0593 36.012 62.4833 36.036C62.5193 35.292 62.5493 34.536 62.5733 33.768C62.6093 33 62.6273 32.22 62.6273 31.428V28.332ZM71.6273 28.332C71.6273 27.54 71.6093 26.766 71.5733 26.01C71.5493 25.242 71.5193 24.462 71.4833 23.67C71.6393 23.694 71.7893 23.718 71.9333 23.742C72.0773 23.754 72.2213 23.76 72.3653 23.76C72.5093 23.76 72.6533 23.754 72.7973 23.742C72.9413 23.718 73.0913 23.694 73.2473 23.67C73.2113 24.462 73.1753 25.242 73.1393 26.01C73.1153 26.766 73.1033 27.54 73.1033 28.332C73.1033 29.844 73.1093 31.158 73.1213 32.274C73.1333 33.378 73.1453 34.368 73.1573 35.244C74.0093 35.244 74.8253 35.238 75.6053 35.226C76.3853 35.202 77.2253 35.13 78.1253 35.01C78.0653 35.226 78.0353 35.406 78.0353 35.55C78.0353 35.682 78.0653 35.844 78.1253 36.036C77.5733 36.012 77.0213 36 76.4693 36C75.9173 36 75.3653 36 74.8133 36C74.2373 36 73.6793 36 73.1393 36C72.6113 36 72.0593 36.012 71.4833 36.036C71.5193 35.292 71.5493 34.536 71.5733 33.768C71.6093 33 71.6273 32.22 71.6273 31.428V28.332Z" fill="#2A4072"/>
<path d="M100.5 0C117.069 0 130.5 13.4315 130.5 30C130.5 46.5685 117.069 60 100.5 60C90.6858 60 81.9733 55.2867 76.5 48.001C76.7101 47.7213 76.9138 47.4366 77.1143 47.1494C82.3924 54.3349 90.9007 59 100.5 59C116.516 59 129.5 46.0163 129.5 30C129.5 13.9837 116.516 1 100.5 1C90.901 1 82.3925 5.66452 77.1143 12.8496C76.9138 12.5624 76.7101 12.2778 76.5 11.998C81.9733 4.71268 90.6861 0 100.5 0Z" fill="#2A4072"/>
</svg>
