<svg width="80" height="56" viewBox="0 0 80 56" fill="none" xmlns="http://www.w3.org/2000/svg">
<path d="M5.184 3.664C6.656 6.69333 8.13867 9.63733 9.632 12.496C11.1467 15.3547 12.7253 18.288 14.368 21.296C14.5813 20.8907 14.8907 20.3147 15.296 19.568C15.7013 18.8 16.1707 17.9253 16.704 16.944C17.2373 15.9627 17.8027 14.9067 18.4 13.776C19.0187 12.624 19.6373 11.4613 20.256 10.288C20.896 9.11467 21.5253 7.96267 22.144 6.832C22.7627 5.70133 23.3387 4.64533 23.872 3.664H24.288C24.5227 5.712 24.736 7.696 24.928 9.616C25.1413 11.5147 25.3547 13.392 25.568 15.248C25.7813 17.0827 25.9947 18.9067 26.208 20.72C26.4213 22.512 26.656 24.2933 26.912 26.064C26.656 26.0213 26.4 26 26.144 26C25.9093 26 25.664 26 25.408 26C25.152 26 24.896 26 24.64 26C24.4053 26 24.16 26.0213 23.904 26.064C23.6693 23.2267 23.4347 20.4747 23.2 17.808C22.9653 15.1413 22.6773 12.4213 22.336 9.648H22.272C20.8 12.336 19.3493 15.0133 17.92 17.68C16.512 20.3253 15.168 23.0987 13.888 26H13.6C12.32 23.312 10.976 20.624 9.568 17.936C8.18133 15.2267 6.784 12.464 5.376 9.648H5.312C5.16267 10.9707 4.992 12.4107 4.8 13.968C4.62933 15.504 4.46933 17.0293 4.32 18.544C4.17067 20.0373 4.04267 21.456 3.936 22.8C3.82933 24.1227 3.776 25.2107 3.776 26.064C3.43467 26.0213 3.06133 26 2.656 26C2.25067 26 1.87733 26.0213 1.536 26.064C1.81333 24.336 2.10133 22.512 2.4 20.592C2.69867 18.672 2.98667 16.7413 3.264 14.8C3.54133 12.8587 3.79733 10.9493 4.032 9.072C4.26667 7.17333 4.46933 5.37067 4.64 3.664H5.184ZM36.9495 11.568C36.1602 11.568 35.4882 11.7493 34.9335 12.112C34.4002 12.4747 33.9522 12.9333 33.5895 13.488C33.2482 14.0213 32.9815 14.6187 32.7895 15.28C32.6188 15.92 32.5122 16.528 32.4695 17.104C33.1308 17.1253 33.8135 17.1467 34.5175 17.168C35.2428 17.1893 35.9468 17.2 36.6295 17.2C37.3335 17.2 38.0482 17.1893 38.7735 17.168C39.4988 17.1467 40.2028 17.1253 40.8855 17.104C40.8855 16.528 40.8322 15.92 40.7255 15.28C40.6402 14.64 40.4482 14.0427 40.1495 13.488C39.8722 12.9333 39.4775 12.4747 38.9655 12.112C38.4535 11.7493 37.7815 11.568 36.9495 11.568ZM29.5575 18.96C29.5575 16.336 30.1762 14.2773 31.4135 12.784C32.6722 11.2907 34.4962 10.544 36.8855 10.544C38.0162 10.544 38.9868 10.7253 39.7975 11.088C40.6295 11.4293 41.3228 11.8987 41.8775 12.496C42.4322 13.072 42.8375 13.7547 43.0935 14.544C43.3708 15.3333 43.5095 16.176 43.5095 17.072C43.5095 17.2853 43.4988 17.4987 43.4775 17.712C43.4775 17.904 43.4668 18.1067 43.4455 18.32C42.2935 18.2987 41.1522 18.2773 40.0215 18.256C38.8908 18.2347 37.7495 18.224 36.5975 18.224C35.8935 18.224 35.1895 18.2347 34.4855 18.256C33.8028 18.2773 33.1095 18.2987 32.4055 18.32C32.3842 18.4267 32.3735 18.5867 32.3735 18.8V19.216C32.3735 20.048 32.4908 20.8267 32.7255 21.552C32.9815 22.2773 33.3442 22.9067 33.8135 23.44C34.2828 23.952 34.8588 24.368 35.5415 24.688C36.2242 24.9867 37.0135 25.136 37.9095 25.136C38.3362 25.136 38.7735 25.0827 39.2215 24.976C39.6695 24.848 40.1068 24.688 40.5335 24.496C40.9602 24.2827 41.3548 24.0373 41.7175 23.76C42.1015 23.4827 42.4322 23.184 42.7095 22.864L42.8695 22.96L42.6775 24.528C42.0375 25.04 41.2375 25.4773 40.2775 25.84C39.3388 26.2027 38.3575 26.384 37.3335 26.384C36.1815 26.384 35.1255 26.2133 34.1655 25.872C33.2268 25.5093 32.4055 24.9973 31.7015 24.336C31.0188 23.6533 30.4855 22.8533 30.1015 21.936C29.7388 21.0187 29.5575 20.0267 29.5575 18.96ZM57.3015 17.072C57.3015 15.472 56.9922 14.2667 56.3735 13.456C55.7548 12.624 54.9015 12.208 53.8135 12.208C52.3202 12.208 51.2215 12.6667 50.5175 13.584C49.8348 14.5013 49.4935 15.792 49.4935 17.456V20.176C49.4935 21.136 49.5042 22.1493 49.5255 23.216C49.5682 24.2613 49.6428 25.2107 49.7495 26.064C49.2588 26.0213 48.7788 26 48.3095 26C47.8402 26 47.3602 26.0213 46.8695 26.064C46.9762 25.2107 47.0402 24.2613 47.0615 23.216C47.1042 22.1493 47.1255 21.136 47.1255 20.176V16.848C47.1255 15.888 47.1042 14.8853 47.0615 13.84C47.0402 12.7733 46.9762 11.7813 46.8695 10.864C47.4668 10.9707 47.9468 11.024 48.3095 11.024C48.4802 11.024 48.6615 11.0133 48.8535 10.992C49.0668 10.9493 49.3122 10.9067 49.5895 10.864C49.5255 11.7173 49.4935 12.5707 49.4935 13.424H49.5575C50.1548 12.5067 50.8695 11.8027 51.7015 11.312C52.5335 10.8 53.5255 10.544 54.6775 10.544C55.2748 10.544 55.8722 10.6293 56.4695 10.8C57.0882 10.9707 57.6428 11.2693 58.1335 11.696C58.6242 12.1013 59.0188 12.6667 59.3175 13.392C59.6375 14.096 59.7975 15.0027 59.7975 16.112C59.7975 17.0293 59.7762 17.9787 59.7335 18.96C59.6908 19.92 59.6695 20.944 59.6695 22.032V24.112C59.6695 24.4533 59.6695 24.7947 59.6695 25.136C59.6908 25.456 59.7122 25.7653 59.7335 26.064C59.3068 26.0213 58.8588 26 58.3895 26C57.9415 26 57.5042 26.0213 57.0775 26.064C57.1202 24.9547 57.1628 23.8133 57.2055 22.64C57.2695 21.4667 57.3015 20.2613 57.3015 19.024V17.072ZM64.6508 21.232C64.6508 20.1013 64.6614 19.1413 64.6828 18.352C64.7254 17.5413 64.7468 16.7413 64.7468 15.952C64.7468 15.2053 64.7361 14.3947 64.7148 13.52C64.7148 12.6453 64.7041 11.76 64.6828 10.864C65.2161 10.9707 65.6641 11.024 66.0268 11.024C66.3681 11.024 66.8054 10.9707 67.3388 10.864C67.2321 12.144 67.1468 13.552 67.0828 15.088C67.0401 16.6027 67.0188 18.16 67.0188 19.76C67.0188 20.8693 67.1148 21.7227 67.3068 22.32C67.4988 22.896 67.7334 23.3333 68.0108 23.632C68.3094 23.9733 68.6828 24.2613 69.1308 24.496C69.6001 24.7093 70.1441 24.816 70.7628 24.816C71.6588 24.816 72.4054 24.624 73.0028 24.24C73.6001 23.8347 74.0374 23.344 74.3148 22.768C74.4641 22.4053 74.5814 22.096 74.6668 21.84C74.7521 21.584 74.8161 21.2427 74.8588 20.816C74.9228 20.3893 74.9548 19.8133 74.9548 19.088C74.9761 18.3627 74.9868 17.3707 74.9868 16.112V13.424C74.9868 12.9547 74.9761 12.5067 74.9548 12.08C74.9548 11.6533 74.9441 11.248 74.9228 10.864C75.1574 10.9067 75.3814 10.9493 75.5948 10.992C75.8081 11.0133 76.0321 11.024 76.2668 11.024C76.5014 11.024 76.7254 11.0133 76.9388 10.992C77.1521 10.9493 77.3654 10.9067 77.5788 10.864C77.4721 12.528 77.4081 14.1387 77.3868 15.696C77.3654 17.232 77.3548 18.864 77.3548 20.592C77.3548 21.552 77.3654 22.4907 77.3868 23.408C77.4081 24.3253 77.4401 25.2107 77.4828 26.064C77.0561 26.0213 76.6401 26 76.2348 26C75.8294 26 75.4134 26.0213 74.9868 26.064C75.0081 25.872 75.0188 25.6693 75.0188 25.456C75.0401 25.2427 75.0508 25.0187 75.0508 24.784V23.408H74.9868C74.4321 24.432 73.7174 25.1893 72.8428 25.68C71.9681 26.1493 71.0188 26.384 69.9948 26.384C68.3308 26.384 67.0188 25.9467 66.0588 25.072C65.1201 24.176 64.6508 22.896 64.6508 21.232Z" fill="white"/>
<line y1="48.5" x2="24" y2="48.5" stroke="white"/>
<path d="M45.69 44.242C45.718 44.2047 45.76 44.1487 45.816 44.074C45.872 43.99 45.9187 43.9293 45.956 43.892C46.0027 43.8453 46.0447 43.822 46.082 43.822C46.1567 43.822 46.3433 43.9527 46.642 44.214C46.95 44.466 47.1367 44.6573 47.202 44.788C47.2113 44.8347 47.2113 44.8813 47.202 44.928C47.146 45.0307 47.0387 45.082 46.88 45.082H41.714C41.1727 45.9593 40.5753 46.6593 39.922 47.182C39.866 47.2287 39.81 47.224 39.754 47.168L39.74 47.154C39.6933 47.1073 39.6887 47.056 39.726 47C40.0993 46.5333 40.4773 45.9127 40.86 45.138C41.0467 44.7367 41.2147 44.2653 41.364 43.724C41.5227 43.1733 41.6207 42.6973 41.658 42.296C41.6767 42.212 41.7233 42.184 41.798 42.212C42.274 42.3707 42.6053 42.4967 42.792 42.59C42.988 42.674 43.086 42.744 43.086 42.8C43.086 42.828 43.044 42.8607 42.96 42.898L42.708 42.996C42.5213 43.5187 42.2693 44.074 41.952 44.662H45.41L45.69 44.242ZM45.83 46.86C45.858 46.832 45.9 46.776 45.956 46.692C46.0213 46.608 46.082 46.566 46.138 46.566C46.2127 46.566 46.362 46.6733 46.586 46.888C46.8193 47.0933 46.9687 47.2613 47.034 47.392C47.0527 47.4293 47.0387 47.4713 46.992 47.518C46.9173 47.5833 46.768 47.63 46.544 47.658C46.544 49.058 46.5113 50.0473 46.446 50.626C46.3807 51.2047 46.2547 51.5873 46.068 51.774C45.8813 51.9793 45.6013 52.096 45.228 52.124C45.1533 52.124 45.116 52.0867 45.116 52.012C45.0973 51.7973 45.046 51.6387 44.962 51.536C44.8967 51.452 44.7427 51.3773 44.5 51.312C44.4347 51.3027 44.402 51.2653 44.402 51.2V51.172C44.402 51.0973 44.4393 51.06 44.514 51.06C44.7567 51.088 44.99 51.102 45.214 51.102C45.3727 51.102 45.48 51.074 45.536 51.018C45.62 50.9153 45.676 50.612 45.704 50.108C45.7413 49.604 45.7647 48.7593 45.774 47.574L44.178 48.176V49.688C44.206 50.9387 44.2387 51.8907 44.276 52.544C44.276 52.5813 44.262 52.6233 44.234 52.67C44.1687 52.754 44.0707 52.8287 43.94 52.894C43.8093 52.9593 43.6787 52.992 43.548 52.992C43.4733 52.992 43.408 52.964 43.352 52.908C43.296 52.852 43.268 52.7867 43.268 52.712C43.3333 51.8813 43.3753 50.9713 43.394 49.982V48.47L41.938 49.016V53.594C41.938 53.7527 41.9847 53.8647 42.078 53.93C42.1807 53.986 42.3907 54.014 42.708 54.014H44.402C45.2607 54.014 45.788 54 45.984 53.972C46.0773 53.9627 46.1427 53.9533 46.18 53.944C46.2267 53.9253 46.2687 53.8927 46.306 53.846C46.418 53.706 46.5393 53.328 46.67 52.712C46.6793 52.6467 46.7213 52.614 46.796 52.614C46.852 52.614 46.88 52.6513 46.88 52.726L46.908 53.86C47.0667 53.9067 47.174 53.958 47.23 54.014C47.2953 54.07 47.328 54.1447 47.328 54.238C47.328 54.3873 47.2487 54.4993 47.09 54.574C46.9407 54.658 46.656 54.714 46.236 54.742C45.8253 54.7793 45.2047 54.798 44.374 54.798H42.624C42.232 54.798 41.9333 54.7653 41.728 54.7C41.5227 54.644 41.378 54.5413 41.294 54.392C41.21 54.252 41.168 54.0467 41.168 53.776V49.31L39.908 49.786C39.8613 49.8047 39.8147 49.7907 39.768 49.744L39.6 49.534C39.5347 50.9713 39.4273 52.0913 39.278 52.894C39.138 53.6873 38.9467 54.2147 38.704 54.476C38.564 54.6347 38.3867 54.756 38.172 54.84C37.9667 54.9333 37.7427 54.9847 37.5 54.994C37.4253 54.994 37.388 54.9567 37.388 54.882C37.3693 54.6487 37.2993 54.476 37.178 54.364C37.0567 54.2427 36.7533 54.1353 36.268 54.042C36.1933 54.0233 36.156 53.9813 36.156 53.916V53.888C36.156 53.8507 36.1653 53.8227 36.184 53.804C36.212 53.7853 36.2447 53.7807 36.282 53.79C37.0007 53.8553 37.458 53.888 37.654 53.888C37.7753 53.888 37.8687 53.8787 37.934 53.86C37.9993 53.8413 38.0647 53.7993 38.13 53.734C38.494 53.3513 38.7273 51.4147 38.83 47.924H37.346C37.2527 49.4173 37.0333 50.7427 36.688 51.9C36.3427 53.0573 35.7687 54.084 34.966 54.98C34.91 55.036 34.854 55.036 34.798 54.98L34.728 54.91C34.6813 54.8633 34.6767 54.812 34.714 54.756C35.2553 53.9347 35.652 53.02 35.904 52.012C36.1653 51.004 36.324 50.0193 36.38 49.058C36.436 48.0967 36.4687 46.8787 36.478 45.404H35.96C35.7173 45.4133 35.4513 45.4647 35.162 45.558C35.0967 45.586 35.05 45.5673 35.022 45.502L34.784 45.026C34.7747 45.0167 34.77 44.998 34.77 44.97C34.77 44.9233 34.8027 44.9 34.868 44.9C35.316 44.9467 35.8153 44.9793 36.366 44.998H37.136C37.136 44.0553 37.0847 43.2013 36.982 42.436C36.982 42.3427 37.0287 42.31 37.122 42.338C37.5793 42.478 37.8967 42.59 38.074 42.674C38.2513 42.7487 38.34 42.8187 38.34 42.884C38.34 42.912 38.3027 42.954 38.228 43.01L38.018 43.15V44.998H38.872L39.152 44.578C39.18 44.5313 39.222 44.4707 39.278 44.396C39.3433 44.312 39.3947 44.2513 39.432 44.214C39.4693 44.1673 39.5067 44.144 39.544 44.144C39.6187 44.144 39.8007 44.2747 40.09 44.536C40.3887 44.788 40.5707 44.984 40.636 45.124L40.65 45.18C40.65 45.2547 40.6173 45.3107 40.552 45.348C40.4867 45.3853 40.4027 45.404 40.3 45.404H37.43C37.4113 46.356 37.388 47.0653 37.36 47.532H38.704L38.914 47.252C38.942 47.2147 38.9887 47.1587 39.054 47.084C39.1193 47 39.18 46.958 39.236 46.958C39.32 46.958 39.4787 47.056 39.712 47.252C39.9453 47.448 40.0947 47.6113 40.16 47.742C40.188 47.7793 40.1787 47.8213 40.132 47.868C40.048 47.952 39.8893 48.008 39.656 48.036C39.6373 48.6613 39.6187 49.128 39.6 49.436L41.168 48.848V47.644C41.168 47.2053 41.1493 46.832 41.112 46.524C41.112 46.4307 41.1587 46.4027 41.252 46.44C41.9333 46.6733 42.274 46.8507 42.274 46.972C42.274 47.0187 42.2367 47.0653 42.162 47.112L41.938 47.252V48.554L43.394 48.008V46.748C43.394 46.2907 43.3753 45.8987 43.338 45.572C43.338 45.4787 43.3847 45.446 43.478 45.474C43.87 45.6047 44.1453 45.712 44.304 45.796C44.4627 45.8707 44.542 45.9407 44.542 46.006C44.542 46.0433 44.5 46.0947 44.416 46.16L44.178 46.314V47.714L45.578 47.182L45.634 47.154L45.83 46.86ZM51.976 43.136C51.6307 43.668 51.192 44.2233 50.66 44.802C50.1373 45.3713 49.596 45.866 49.036 46.286C48.9707 46.3327 48.9193 46.328 48.882 46.272C48.8353 46.2253 48.8353 46.1693 48.882 46.104C49.274 45.6653 49.6193 45.2127 49.918 44.746C50.1607 44.382 50.3847 43.9807 50.59 43.542C50.8047 43.1033 50.9633 42.6973 51.066 42.324C51.0753 42.2867 51.0893 42.2633 51.108 42.254C51.136 42.2447 51.1687 42.2493 51.206 42.268L51.85 42.66C52.2047 42.8 52.382 42.912 52.382 42.996C52.382 43.0427 52.3307 43.0753 52.228 43.094L51.976 43.136ZM55.378 45.656V51.298C55.3967 52.4553 55.434 53.5287 55.49 54.518C55.49 54.5647 55.476 54.6067 55.448 54.644C55.3733 54.7373 55.2613 54.8213 55.112 54.896C54.972 54.9707 54.832 55.008 54.692 55.008C54.608 55.008 54.5333 54.98 54.468 54.924C54.4027 54.868 54.37 54.8027 54.37 54.728C54.4073 54.1773 54.44 53.6453 54.468 53.132C54.496 52.6093 54.5147 51.928 54.524 51.088V45.656H53.838C53.4647 45.6653 53.0867 45.7213 52.704 45.824C52.6293 45.8427 52.5827 45.824 52.564 45.768L52.312 45.278L52.298 45.222C52.298 45.166 52.3353 45.1473 52.41 45.166C52.858 45.2127 53.3153 45.2407 53.782 45.25H54.524C54.524 44.2327 54.4727 43.3273 54.37 42.534V42.506C54.37 42.4313 54.412 42.408 54.496 42.436C55.308 42.6787 55.714 42.8607 55.714 42.982C55.714 43.0287 55.6767 43.0753 55.602 43.122L55.378 43.276V45.25H56.316L56.568 44.914C56.596 44.886 56.6427 44.8253 56.708 44.732C56.7827 44.6387 56.848 44.5827 56.904 44.564C56.848 44.5453 56.806 44.522 56.778 44.494C56.7407 44.4753 56.7127 44.4333 56.694 44.368C56.6567 44.1627 56.5727 43.9387 56.442 43.696C56.3113 43.444 56.1713 43.22 56.022 43.024C55.9847 42.9587 55.9893 42.9073 56.036 42.87C56.0733 42.842 56.1247 42.8373 56.19 42.856C56.6193 43.0333 56.932 43.2387 57.128 43.472C57.3333 43.7053 57.436 43.9247 57.436 44.13C57.436 44.2607 57.3987 44.3727 57.324 44.466C57.2493 44.55 57.156 44.592 57.044 44.592H57.016C57.1467 44.648 57.3193 44.7647 57.534 44.942C57.758 45.1193 57.898 45.2593 57.954 45.362C57.9633 45.4087 57.9587 45.4507 57.94 45.488C57.9027 45.6 57.8 45.656 57.632 45.656H55.378ZM59.76 44.06C59.144 44.0787 58.5607 44.1393 58.01 44.242H57.968C57.9307 44.242 57.898 44.2187 57.87 44.172L57.618 43.696L57.604 43.64C57.604 43.5747 57.6413 43.5513 57.716 43.57C57.9587 43.6073 58.3227 43.6353 58.808 43.654H59.396L59.662 43.248C59.69 43.2107 59.7273 43.1547 59.774 43.08C59.83 42.996 59.8767 42.9353 59.914 42.898C59.9513 42.8607 59.9887 42.842 60.026 42.842C60.1007 42.842 60.2827 42.9633 60.572 43.206C60.8613 43.4487 61.0387 43.6353 61.104 43.766C61.1133 43.7847 61.118 43.808 61.118 43.836C61.118 43.9107 61.0853 43.9667 61.02 44.004C60.9547 44.0413 60.8753 44.06 60.782 44.06H59.76ZM51.122 47.742C51.4207 47.9753 51.57 48.148 51.57 48.26C51.57 48.3067 51.528 48.3533 51.444 48.4L51.248 48.484V51.424C51.2667 52.5907 51.304 53.6593 51.36 54.63C51.36 54.686 51.3413 54.7327 51.304 54.77C51.22 54.854 51.108 54.924 50.968 54.98C50.828 55.0453 50.6927 55.078 50.562 55.078C50.4873 55.078 50.4173 55.05 50.352 54.994C50.2867 54.938 50.254 54.8727 50.254 54.798C50.2913 54.2473 50.324 53.7153 50.352 53.202C50.38 52.6793 50.3987 51.998 50.408 51.158V48.708C49.904 49.3333 49.414 49.8607 48.938 50.29C48.882 50.3367 48.8307 50.3367 48.784 50.29L48.756 50.262C48.7093 50.2153 48.7093 50.164 48.756 50.108C49.2693 49.4453 49.7547 48.6847 50.212 47.826C50.4173 47.434 50.604 47.0187 50.772 46.58C50.9493 46.132 51.08 45.7213 51.164 45.348C51.1733 45.264 51.2247 45.2453 51.318 45.292C52.0927 45.6747 52.48 45.9267 52.48 46.048C52.48 46.076 52.438 46.0993 52.354 46.118L52.102 46.16C51.822 46.664 51.4953 47.1913 51.122 47.742ZM60.208 45.964C60.2827 45.964 60.4647 46.09 60.754 46.342C61.0527 46.594 61.2347 46.7853 61.3 46.916C61.3093 46.9627 61.3047 47.0093 61.286 47.056C61.23 47.1587 61.1227 47.21 60.964 47.21H59.844V53.762C59.844 54.154 59.7647 54.4527 59.606 54.658C59.4473 54.8727 59.1253 55.0173 58.64 55.092H58.612C58.5653 55.092 58.5327 55.0593 58.514 54.994C58.486 54.742 58.4067 54.5647 58.276 54.462C58.108 54.3127 57.7953 54.2053 57.338 54.14C57.2633 54.1213 57.226 54.084 57.226 54.028C57.226 53.9627 57.254 53.93 57.31 53.93C57.4407 53.93 57.576 53.9347 57.716 53.944C57.8653 53.9533 58.0053 53.9627 58.136 53.972L58.696 54C58.808 54 58.8827 53.9813 58.92 53.944C58.9573 53.9067 58.976 53.8367 58.976 53.734V47.21H58.43C58.1407 47.2193 57.856 47.2753 57.576 47.378H57.534C57.4967 47.378 57.464 47.3547 57.436 47.308L57.184 46.818C57.1747 46.8087 57.17 46.79 57.17 46.762C57.17 46.7153 57.2073 46.692 57.282 46.692C57.7207 46.7387 58.2153 46.7713 58.766 46.79H59.536L59.816 46.384C59.844 46.3467 59.886 46.2907 59.942 46.216C59.998 46.132 60.0447 46.0713 60.082 46.034C60.1287 45.9873 60.1707 45.964 60.208 45.964ZM57.52 50.542C57.52 50.878 57.4687 51.1533 57.366 51.368C57.2727 51.5733 57.1607 51.676 57.03 51.676C56.946 51.676 56.862 51.6247 56.778 51.522C56.75 51.4753 56.736 51.4333 56.736 51.396C56.6333 49.576 56.3487 48.176 55.882 47.196L55.868 47.14C55.868 47.1027 55.8913 47.07 55.938 47.042L55.952 47.028L55.994 47.014C56.05 47.014 56.1107 47.056 56.176 47.14C56.6427 47.7653 56.9833 48.372 57.198 48.96C57.4127 49.548 57.52 50.0753 57.52 50.542ZM52.9 47.14C52.9 47.1027 52.9093 47.0793 52.928 47.07C52.956 47.0513 52.984 47.0467 53.012 47.056L53.712 47.224C54.076 47.252 54.258 47.308 54.258 47.392C54.258 47.4293 54.2113 47.4807 54.118 47.546L53.88 47.686C53.5253 49.8887 52.9653 51.5593 52.2 52.698C52.1907 52.7353 52.1673 52.7587 52.13 52.768C52.102 52.768 52.074 52.7587 52.046 52.74L52.018 52.712C51.9713 52.6653 51.9573 52.614 51.976 52.558C52.2747 51.7647 52.508 50.9387 52.676 50.08C52.7507 49.7253 52.8067 49.3287 52.844 48.89C52.8907 48.442 52.914 48.0313 52.914 47.658L52.9 47.154V47.14Z" fill="white"/>
</svg>
