<svg width="78" height="16" viewBox="0 0 78 16" fill="none" xmlns="http://www.w3.org/2000/svg">
<line y1="7.5" x2="24" y2="7.5" stroke="#2A4072"/>
<path d="M36.88 7.384C37.2427 7.46933 37.6213 7.512 38.016 7.512C38.3467 7.512 38.688 7.47467 39.04 7.4C39.392 7.32533 39.712 7.192 40 7C40.2987 6.79733 40.5387 6.52533 40.72 6.184C40.912 5.832 41.008 5.384 41.008 4.84C41.008 4.38133 40.944 4.008 40.816 3.72C40.688 3.432 40.5067 3.208 40.272 3.048C40.048 2.888 39.7707 2.78133 39.44 2.728C39.1093 2.664 38.736 2.632 38.32 2.632H36.88V7.384ZM35.568 6.184C35.568 5.48 35.552 4.792 35.52 4.12C35.4987 3.43733 35.472 2.744 35.44 2.04C35.696 2.06133 35.952 2.08267 36.208 2.104C36.4747 2.11467 36.736 2.12 36.992 2.12C37.12 2.12 37.2747 2.11467 37.456 2.104C37.6373 2.09333 37.8187 2.088 38 2.088C38.192 2.07733 38.3733 2.06667 38.544 2.056C38.7147 2.04533 38.8587 2.04 38.976 2.04C39.136 2.04 39.3333 2.04533 39.568 2.056C39.8027 2.06667 40.048 2.09867 40.304 2.152C40.5707 2.20533 40.832 2.28533 41.088 2.392C41.344 2.49867 41.5733 2.65333 41.776 2.856C41.9893 3.05867 42.16 3.31467 42.288 3.624C42.416 3.92267 42.48 4.296 42.48 4.744C42.48 5.448 42.3253 6.01867 42.016 6.456C41.7173 6.89333 41.344 7.23467 40.896 7.48C40.4587 7.72533 39.9893 7.89067 39.488 7.976C38.9973 8.06133 38.56 8.104 38.176 8.104C37.9307 8.104 37.7067 8.104 37.504 8.104C37.3013 8.09333 37.0933 8.07733 36.88 8.056V8.936C36.88 9.64 36.8907 10.3333 36.912 11.016C36.944 11.6987 36.976 12.3707 37.008 13.032C36.7627 13.0107 36.5013 13 36.224 13C35.9467 13 35.6853 13.0107 35.44 13.032C35.472 12.3707 35.4987 11.6987 35.52 11.016C35.552 10.3333 35.568 9.64 35.568 8.936V6.184ZM44.1399 9.256C44.1399 9.704 44.1772 10.136 44.2519 10.552C44.3372 10.968 44.4759 11.3413 44.6679 11.672C44.8599 11.992 45.1159 12.248 45.4359 12.44C45.7559 12.632 46.1505 12.728 46.6199 12.728C47.0892 12.728 47.4839 12.632 47.8039 12.44C48.1239 12.248 48.3799 11.992 48.5719 11.672C48.7639 11.3413 48.8972 10.968 48.9719 10.552C49.0572 10.136 49.0999 9.704 49.0999 9.256C49.0999 8.808 49.0572 8.376 48.9719 7.96C48.8972 7.544 48.7639 7.176 48.5719 6.856C48.3799 6.52533 48.1239 6.264 47.8039 6.072C47.4839 5.88 47.0892 5.784 46.6199 5.784C46.1505 5.784 45.7559 5.88 45.4359 6.072C45.1159 6.264 44.8599 6.52533 44.6679 6.856C44.4759 7.176 44.3372 7.544 44.2519 7.96C44.1772 8.376 44.1399 8.808 44.1399 9.256ZM42.7319 9.256C42.7319 8.53067 42.8439 7.91733 43.0679 7.416C43.3025 6.904 43.6065 6.49333 43.9799 6.184C44.3532 5.864 44.7692 5.63467 45.2279 5.496C45.6972 5.34667 46.1612 5.272 46.6199 5.272C47.0892 5.272 47.5532 5.34667 48.0119 5.496C48.4705 5.63467 48.8865 5.864 49.2599 6.184C49.6332 6.49333 49.9319 6.904 50.1559 7.416C50.3905 7.91733 50.5079 8.53067 50.5079 9.256C50.5079 9.98133 50.3905 10.6 50.1559 11.112C49.9319 11.6133 49.6332 12.024 49.2599 12.344C48.8865 12.6533 48.4705 12.872 48.0119 13C47.5532 13.128 47.0892 13.192 46.6199 13.192C46.1612 13.192 45.6972 13.128 45.2279 13C44.7692 12.872 44.3532 12.6533 43.9799 12.344C43.6065 12.024 43.3025 11.6133 43.0679 11.112C42.8439 10.6 42.7319 9.98133 42.7319 9.256ZM52.4705 2.648C52.4705 2.424 52.5505 2.232 52.7105 2.072C52.8705 1.912 53.0625 1.832 53.2865 1.832C53.5105 1.832 53.7025 1.912 53.8625 2.072C54.0225 2.232 54.1025 2.424 54.1025 2.648C54.1025 2.872 54.0225 3.064 53.8625 3.224C53.7025 3.384 53.5105 3.464 53.2865 3.464C53.0625 3.464 52.8705 3.384 52.7105 3.224C52.5505 3.064 52.4705 2.872 52.4705 2.648ZM52.6945 8.424C52.6945 7.944 52.6838 7.44267 52.6625 6.92C52.6518 6.38667 52.6198 5.89067 52.5665 5.432C52.8652 5.48533 53.1052 5.512 53.2865 5.512C53.4678 5.512 53.7078 5.48533 54.0065 5.432C53.9532 5.89067 53.9158 6.38667 53.8945 6.92C53.8838 7.44267 53.8785 7.944 53.8785 8.424V10.088C53.8785 10.568 53.8838 11.0747 53.8945 11.608C53.9158 12.1307 53.9532 12.6053 54.0065 13.032C53.7612 13.0107 53.5212 13 53.2865 13C53.0518 13 52.8118 13.0107 52.5665 13.032C52.6198 12.6053 52.6518 12.1307 52.6625 11.608C52.6838 11.0747 52.6945 10.568 52.6945 10.088V8.424ZM61.9476 8.536C61.9476 7.736 61.793 7.13333 61.4836 6.728C61.1743 6.312 60.7476 6.104 60.2036 6.104C59.457 6.104 58.9076 6.33333 58.5556 6.792C58.2143 7.25067 58.0436 7.896 58.0436 8.728V10.088C58.0436 10.568 58.049 11.0747 58.0596 11.608C58.081 12.1307 58.1183 12.6053 58.1716 13.032C57.9263 13.0107 57.6863 13 57.4516 13C57.217 13 56.977 13.0107 56.7316 13.032C56.785 12.6053 56.817 12.1307 56.8276 11.608C56.849 11.0747 56.8596 10.568 56.8596 10.088V8.424C56.8596 7.944 56.849 7.44267 56.8276 6.92C56.817 6.38667 56.785 5.89067 56.7316 5.432C57.0303 5.48533 57.2703 5.512 57.4516 5.512C57.537 5.512 57.6276 5.50667 57.7236 5.496C57.8303 5.47467 57.953 5.45333 58.0916 5.432C58.0596 5.85867 58.0436 6.28533 58.0436 6.712H58.0756C58.3743 6.25333 58.7316 5.90133 59.1476 5.656C59.5636 5.4 60.0596 5.272 60.6356 5.272C60.9343 5.272 61.233 5.31467 61.5316 5.4C61.841 5.48533 62.1183 5.63467 62.3636 5.848C62.609 6.05067 62.8063 6.33333 62.9556 6.696C63.1156 7.048 63.1956 7.50133 63.1956 8.056C63.1956 8.51467 63.185 8.98933 63.1636 9.48C63.1423 9.96 63.1316 10.472 63.1316 11.016V12.056C63.1316 12.2267 63.1316 12.3973 63.1316 12.568C63.1423 12.728 63.153 12.8827 63.1636 13.032C62.9503 13.0107 62.7263 13 62.4916 13C62.2676 13 62.049 13.0107 61.8356 13.032C61.857 12.4773 61.8783 11.9067 61.8996 11.32C61.9316 10.7333 61.9476 10.1307 61.9476 9.512V8.536ZM67.0783 3.288C67.0463 3.69333 67.0196 4.09333 66.9983 4.488C66.9876 4.872 66.9716 5.26133 66.9503 5.656C67.0676 5.656 67.2863 5.656 67.6063 5.656C67.9263 5.64533 68.2729 5.62933 68.6463 5.608C68.6356 5.64 68.6302 5.69867 68.6302 5.784V5.944V6.12C68.6302 6.19467 68.6356 6.248 68.6463 6.28C68.5076 6.26933 68.3636 6.264 68.2143 6.264C68.0649 6.25333 67.9049 6.248 67.7343 6.248H66.9503C66.9396 6.29067 66.9236 6.46133 66.9023 6.76C66.8916 7.05867 66.8809 7.416 66.8703 7.832C66.8596 8.23733 66.8489 8.664 66.8383 9.112C66.8383 9.56 66.8383 9.96 66.8383 10.312C66.8383 10.6107 66.8436 10.904 66.8543 11.192C66.8756 11.48 66.9289 11.7413 67.0143 11.976C67.0996 12.2 67.2276 12.3813 67.3983 12.52C67.5689 12.6587 67.8143 12.728 68.1343 12.728C68.2196 12.728 68.3316 12.7173 68.4703 12.696C68.6196 12.6747 68.7476 12.648 68.8543 12.616V13C68.6729 13.032 68.4703 13.0693 68.2463 13.112C68.0329 13.1653 67.8249 13.192 67.6223 13.192C66.9503 13.192 66.4543 13.0267 66.1343 12.696C65.8143 12.3653 65.6543 11.88 65.6543 11.24C65.6543 10.952 65.6596 10.6427 65.6703 10.312C65.6809 9.97067 65.6916 9.60267 65.7023 9.208C65.7236 8.80267 65.7396 8.36 65.7503 7.88C65.7609 7.38933 65.7663 6.84533 65.7663 6.248H65.2543C65.1689 6.248 65.0783 6.25333 64.9823 6.264C64.8863 6.264 64.7849 6.26933 64.6783 6.28C64.6889 6.216 64.6943 6.15733 64.6943 6.104C64.7049 6.04 64.7103 5.976 64.7103 5.912C64.7103 5.85867 64.7049 5.80533 64.6943 5.752C64.6943 5.69867 64.6889 5.64533 64.6783 5.592C65.1583 5.624 65.5103 5.64 65.7343 5.64C65.7236 5.42667 65.7129 5.16 65.7023 4.84C65.7023 4.52 65.6916 4.18933 65.6703 3.848L66.9983 3.288H67.0783ZM69.8834 3.832C70.2247 3.288 70.63 2.888 71.0994 2.632C71.5687 2.376 72.1394 2.248 72.8114 2.248C73.2274 2.248 73.622 2.30133 73.9954 2.408C74.3687 2.51467 74.6887 2.68533 74.9554 2.92C75.2327 3.15467 75.4514 3.448 75.6114 3.8C75.7714 4.152 75.8514 4.57867 75.8514 5.08C75.8514 5.44267 75.8087 5.784 75.7234 6.104C75.638 6.41333 75.51 6.71733 75.3394 7.016C75.1794 7.31467 74.9714 7.61867 74.7154 7.928C74.47 8.22667 74.1767 8.54667 73.8354 8.888C73.6327 9.09067 73.398 9.32533 73.1314 9.592C72.8647 9.85867 72.5927 10.136 72.3154 10.424C72.0487 10.7013 71.7927 10.9787 71.5474 11.256C71.302 11.5333 71.094 11.7893 70.9234 12.024H72.4434C73.2114 12.024 73.8887 12.0133 74.4754 11.992C75.0727 11.96 75.5954 11.928 76.0434 11.896C75.99 12.1307 75.9634 12.328 75.9634 12.488C75.9634 12.6373 75.99 12.8187 76.0434 13.032C75.4674 13.0107 74.8967 13 74.3314 13C73.766 13 73.1954 13 72.6194 13C72.0434 13 71.4674 13 70.8914 13C70.326 13 69.7554 13.0107 69.1794 13.032V12.84C69.926 12.104 70.5714 11.4587 71.1154 10.904C71.67 10.3387 72.1394 9.832 72.5234 9.384C72.9074 8.936 73.2167 8.53067 73.4514 8.168C73.6967 7.80533 73.8887 7.464 74.0274 7.144C74.166 6.81333 74.2567 6.49333 74.2994 6.184C74.3527 5.864 74.3794 5.52267 74.3794 5.16C74.3794 4.37067 74.198 3.78933 73.8354 3.416C73.4834 3.032 73.0674 2.84 72.5874 2.84C72.246 2.84 71.9527 2.904 71.7074 3.032C71.462 3.14933 71.2594 3.29867 71.0994 3.48C70.9394 3.65067 70.8167 3.83733 70.7314 4.04C70.646 4.24267 70.5874 4.424 70.5554 4.584L70.4434 4.616L69.8834 3.832Z" fill="#2A4072"/>
</svg>
