<svg width="65" height="12" viewBox="0 0 65 12" fill="none" xmlns="http://www.w3.org/2000/svg">
<path d="M0.872 5.036C0.872 4.42 0.858 3.818 0.83 3.23C0.811333 2.63267 0.788 2.026 0.76 1.41C1.03067 1.42867 1.29667 1.44733 1.558 1.466C1.81933 1.47533 2.08533 1.48 2.356 1.48C2.62667 1.48 2.89267 1.47067 3.154 1.452C3.41533 1.424 3.68133 1.41 3.952 1.41C4.344 1.41 4.71733 1.44733 5.072 1.522C5.42667 1.59667 5.73467 1.72267 5.996 1.9C6.26667 2.068 6.47667 2.292 6.626 2.572C6.78467 2.852 6.864 3.202 6.864 3.622C6.864 4.07 6.76133 4.45733 6.556 4.784C6.36 5.10133 6.11733 5.36733 5.828 5.582C5.53867 5.78733 5.226 5.95067 4.89 6.072C4.56333 6.184 4.26467 6.25867 3.994 6.296C4.106 6.436 4.26 6.632 4.456 6.884C4.652 7.136 4.87133 7.416 5.114 7.724C5.35667 8.02267 5.60867 8.34 5.87 8.676C6.13133 9.00267 6.38333 9.32 6.626 9.628C6.86867 9.92667 7.09733 10.202 7.312 10.454C7.52667 10.706 7.69933 10.8973 7.83 11.028C7.69 11.0093 7.55 11 7.41 11C7.27 11 7.13 11 6.99 11C6.85933 11 6.724 11 6.584 11C6.444 11 6.30867 11.0093 6.178 11.028C6.038 10.832 5.82333 10.538 5.534 10.146C5.254 9.754 4.94133 9.334 4.596 8.886C4.25067 8.438 3.896 7.99467 3.532 7.556C3.17733 7.108 2.85067 6.73 2.552 6.422H2.02V7.444C2.02 8.06 2.02933 8.66667 2.048 9.264C2.076 9.86133 2.104 10.4493 2.132 11.028C1.91733 11.0093 1.68867 11 1.446 11C1.20333 11 0.974667 11.0093 0.76 11.028C0.788 10.4493 0.811333 9.86133 0.83 9.264C0.858 8.66667 0.872 8.06 0.872 7.444V5.036ZM2.02 5.834C2.15067 5.862 2.29067 5.88067 2.44 5.89C2.59867 5.89933 2.77133 5.904 2.958 5.904C3.24733 5.904 3.546 5.87133 3.854 5.806C4.17133 5.74067 4.46067 5.62867 4.722 5.47C4.98333 5.302 5.198 5.08267 5.366 4.812C5.54333 4.532 5.632 4.182 5.632 3.762C5.632 3.398 5.562 3.09933 5.422 2.866C5.29133 2.62333 5.11867 2.432 4.904 2.292C4.68933 2.152 4.456 2.05867 4.204 2.012C3.952 1.956 3.70467 1.928 3.462 1.928C3.13533 1.928 2.86467 1.93733 2.65 1.956C2.43533 1.96533 2.25333 1.97933 2.104 1.998C2.08533 2.51133 2.06667 3.02 2.048 3.524C2.02933 4.028 2.02 4.532 2.02 5.036V5.834ZM11.7826 4.686C11.4373 4.686 11.1433 4.76533 10.9006 4.924C10.6673 5.08267 10.4713 5.28333 10.3126 5.526C10.1633 5.75933 10.0466 6.02067 9.96259 6.31C9.88793 6.59 9.84126 6.856 9.82259 7.108C10.1119 7.11733 10.4106 7.12667 10.7186 7.136C11.0359 7.14533 11.3439 7.15 11.6426 7.15C11.9506 7.15 12.2633 7.14533 12.5806 7.136C12.8979 7.12667 13.2059 7.11733 13.5046 7.108C13.5046 6.856 13.4813 6.59 13.4346 6.31C13.3973 6.03 13.3133 5.76867 13.1826 5.526C13.0613 5.28333 12.8886 5.08267 12.6646 4.924C12.4406 4.76533 12.1466 4.686 11.7826 4.686ZM8.54859 7.92C8.54859 6.772 8.81926 5.87133 9.36059 5.218C9.91126 4.56467 10.7093 4.238 11.7546 4.238C12.2493 4.238 12.6739 4.31733 13.0286 4.476C13.3926 4.62533 13.6959 4.83067 13.9386 5.092C14.1813 5.344 14.3586 5.64267 14.4706 5.988C14.5919 6.33333 14.6526 6.702 14.6526 7.094C14.6526 7.18733 14.6479 7.28067 14.6386 7.374C14.6386 7.458 14.6339 7.54667 14.6246 7.64C14.1206 7.63067 13.6213 7.62133 13.1266 7.612C12.6319 7.60267 12.1326 7.598 11.6286 7.598C11.3206 7.598 11.0126 7.60267 10.7046 7.612C10.4059 7.62133 10.1026 7.63067 9.79459 7.64C9.78526 7.68667 9.78059 7.75667 9.78059 7.85V8.032C9.78059 8.396 9.83193 8.73667 9.93459 9.054C10.0466 9.37133 10.2053 9.64667 10.4106 9.88C10.6159 10.104 10.8679 10.286 11.1666 10.426C11.4653 10.5567 11.8106 10.622 12.2026 10.622C12.3893 10.622 12.5806 10.5987 12.7766 10.552C12.9726 10.496 13.1639 10.426 13.3506 10.342C13.5373 10.2487 13.7099 10.1413 13.8686 10.02C14.0366 9.89867 14.1813 9.768 14.3026 9.628L14.3726 9.67L14.2886 10.356C14.0086 10.58 13.6586 10.7713 13.2386 10.93C12.8279 11.0887 12.3986 11.168 11.9506 11.168C11.4466 11.168 10.9846 11.0933 10.5646 10.944C10.1539 10.7853 9.79459 10.5613 9.48659 10.272C9.18793 9.97333 8.95459 9.62333 8.78659 9.222C8.62793 8.82067 8.54859 8.38667 8.54859 7.92ZM19.7206 7.542C19.5619 7.598 19.3753 7.64467 19.1606 7.682C18.9553 7.71933 18.7453 7.76133 18.5306 7.808C18.3159 7.84533 18.1013 7.89667 17.8866 7.962C17.6813 8.02733 17.4946 8.116 17.3266 8.228C17.1679 8.34 17.0373 8.48 16.9346 8.648C16.8413 8.816 16.7946 9.03067 16.7946 9.292C16.7946 9.73067 16.9206 10.062 17.1726 10.286C17.4246 10.51 17.7046 10.622 18.0126 10.622C18.3673 10.622 18.6893 10.524 18.9786 10.328C19.2773 10.132 19.5059 9.90333 19.6646 9.642L19.7206 7.542ZM16.2626 5.05C16.6826 4.73267 17.0699 4.518 17.4246 4.406C17.7793 4.294 18.1433 4.238 18.5166 4.238C18.8526 4.238 19.1606 4.28933 19.4406 4.392C19.7206 4.48533 19.9586 4.62533 20.1546 4.812C20.3506 4.98933 20.5046 5.20867 20.6166 5.47C20.7286 5.722 20.7846 6.002 20.7846 6.31C20.7846 6.842 20.7753 7.374 20.7566 7.906C20.7379 8.42867 20.7286 8.984 20.7286 9.572C20.7286 9.684 20.7286 9.80533 20.7286 9.936C20.7379 10.0573 20.7613 10.1693 20.7986 10.272C20.8359 10.3653 20.8873 10.4447 20.9526 10.51C21.0273 10.5753 21.1346 10.608 21.2746 10.608C21.3213 10.608 21.3679 10.608 21.4146 10.608C21.4706 10.5987 21.5219 10.58 21.5686 10.552V10.86C21.4659 10.9067 21.3353 10.944 21.1766 10.972C21.0273 11 20.8593 11.014 20.6726 11.014C20.3739 11.014 20.1453 10.9393 19.9866 10.79C19.8279 10.6313 19.7346 10.4307 19.7066 10.188C19.3706 10.524 19.0393 10.7713 18.7126 10.93C18.3859 11.0887 17.9846 11.168 17.5086 11.168C17.2753 11.168 17.0466 11.1353 16.8226 11.07C16.5986 11.0047 16.3979 10.8973 16.2206 10.748C16.0526 10.5987 15.9126 10.4213 15.8006 10.216C15.6979 10.0013 15.6466 9.75867 15.6466 9.488C15.6466 8.928 15.8193 8.494 16.1646 8.186C16.5193 7.878 17.0046 7.67267 17.6206 7.57C18.1246 7.486 18.5166 7.416 18.7966 7.36C19.0859 7.29467 19.2959 7.22933 19.4266 7.164C19.5666 7.09867 19.6506 7.024 19.6786 6.94C19.7066 6.84667 19.7206 6.73 19.7206 6.59C19.7206 6.35667 19.6926 6.13267 19.6366 5.918C19.5806 5.70333 19.4919 5.51667 19.3706 5.358C19.2493 5.19933 19.0906 5.07333 18.8946 4.98C18.6986 4.87733 18.4606 4.826 18.1806 4.826C17.8073 4.826 17.4573 4.91 17.1306 5.078C16.8133 5.246 16.5753 5.47933 16.4166 5.778H16.2626V5.05ZM23.8786 7.85C23.8786 8.41 23.9346 8.872 24.0466 9.236C24.1679 9.6 24.3173 9.894 24.4946 10.118C24.6813 10.3327 24.8913 10.482 25.1246 10.566C25.3579 10.65 25.5866 10.692 25.8106 10.692C26.1746 10.692 26.4873 10.6033 26.7486 10.426C27.0099 10.2393 27.2246 10.0013 27.3926 9.712C27.5699 9.41333 27.6959 9.07733 27.7706 8.704C27.8546 8.33067 27.8966 7.95733 27.8966 7.584C27.8966 6.688 27.7239 6.00667 27.3786 5.54C27.0333 5.064 26.5246 4.826 25.8526 4.826C25.5166 4.826 25.2226 4.90533 24.9706 5.064C24.7279 5.21333 24.5226 5.428 24.3546 5.708C24.1959 5.97867 24.0746 6.30067 23.9906 6.674C23.9159 7.038 23.8786 7.43 23.8786 7.85ZM27.8546 9.698C27.7799 9.84733 27.6773 10.0107 27.5466 10.188C27.4253 10.356 27.2666 10.5147 27.0706 10.664C26.8839 10.8133 26.6599 10.9347 26.3986 11.028C26.1373 11.1213 25.8339 11.168 25.4886 11.168C25.1339 11.168 24.7839 11.1073 24.4386 10.986C24.1026 10.8647 23.7993 10.6687 23.5286 10.398C23.2673 10.118 23.0526 9.76333 22.8846 9.334C22.7259 8.89533 22.6466 8.37267 22.6466 7.766C22.6466 7.16867 22.7353 6.65067 22.9126 6.212C23.0899 5.77333 23.3186 5.40933 23.5986 5.12C23.8879 4.82133 24.2099 4.602 24.5646 4.462C24.9286 4.31267 25.2926 4.238 25.6566 4.238C26.6926 4.238 27.4113 4.70467 27.8126 5.638H27.8406V4.266C27.8406 3.91133 27.8359 3.55667 27.8266 3.202C27.8266 2.838 27.8219 2.49267 27.8126 2.166C27.8126 1.83933 27.8079 1.53133 27.7986 1.242C27.7986 0.952666 27.7939 0.695999 27.7846 0.472C27.8966 0.490666 28.0039 0.509333 28.1066 0.528C28.2093 0.537333 28.3119 0.541999 28.4146 0.541999C28.5173 0.541999 28.6153 0.537333 28.7086 0.528C28.8113 0.509333 28.9233 0.490666 29.0446 0.472C29.0166 0.770666 28.9933 1.20467 28.9746 1.774C28.9559 2.334 28.9373 2.95467 28.9186 3.636C28.9093 4.31733 28.8999 5.01733 28.8906 5.736C28.8813 6.45467 28.8766 7.11267 28.8766 7.71C28.8766 8.354 28.8813 8.93267 28.8906 9.446C28.8999 9.95933 28.9093 10.4867 28.9186 11.028C28.7319 11.0093 28.5499 11 28.3726 11C28.2046 11 28.0273 11.0093 27.8406 11.028L27.8826 9.698H27.8546ZM34.8264 6.996C34.8264 6.576 34.817 6.13733 34.7984 5.68C34.789 5.21333 34.761 4.77933 34.7144 4.378C34.9757 4.42467 35.1857 4.448 35.3444 4.448C35.419 4.448 35.4984 4.44333 35.5824 4.434C35.6757 4.41533 35.783 4.39667 35.9044 4.378C35.8764 4.75133 35.8624 5.12467 35.8624 5.498H35.8904C36.385 4.658 37.0804 4.238 37.9764 4.238C38.2097 4.238 38.4384 4.27533 38.6624 4.35C38.8864 4.41533 39.087 4.50867 39.2644 4.63C39.451 4.75133 39.6097 4.90067 39.7404 5.078C39.871 5.246 39.9597 5.428 40.0064 5.624H40.0344C40.2584 5.176 40.5617 4.83533 40.9444 4.602C41.3364 4.35933 41.7844 4.238 42.2884 4.238C42.5964 4.238 42.881 4.28 43.1424 4.364C43.4037 4.448 43.6277 4.57867 43.8144 4.756C44.0104 4.93333 44.1597 5.162 44.2624 5.442C44.3744 5.722 44.4304 6.058 44.4304 6.45C44.4304 6.60867 44.4257 6.78133 44.4164 6.968C44.407 7.15467 44.3977 7.374 44.3884 7.626C44.379 7.86867 44.3697 8.14867 44.3604 8.466C44.351 8.774 44.3464 9.13333 44.3464 9.544C44.3464 9.796 44.3464 10.0387 44.3464 10.272C44.3557 10.5053 44.3697 10.7573 44.3884 11.028C44.2857 11.0093 44.183 11 44.0804 11C43.9777 11 43.8797 11 43.7864 11C43.6837 11 43.581 11 43.4784 11C43.3757 11 43.273 11.0093 43.1704 11.028C43.1984 10.7947 43.2264 10.3233 43.2544 9.614C43.2917 8.90467 43.3104 7.91533 43.3104 6.646C43.3104 6.41267 43.2824 6.19333 43.2264 5.988C43.1797 5.78267 43.1004 5.60533 42.9884 5.456C42.8764 5.30667 42.727 5.19 42.5404 5.106C42.3537 5.01267 42.1204 4.966 41.8404 4.966C41.5044 4.966 41.2197 5.03133 40.9864 5.162C40.753 5.29267 40.571 5.44667 40.4404 5.624C40.3657 5.72667 40.305 5.82933 40.2584 5.932C40.221 6.03467 40.1884 6.19333 40.1604 6.408C40.1417 6.61333 40.1277 6.90733 40.1184 7.29C40.109 7.66333 40.1044 8.18133 40.1044 8.844C40.1044 9.24533 40.109 9.614 40.1184 9.95C40.137 10.2767 40.1557 10.636 40.1744 11.028C39.9597 11.0093 39.7544 11 39.5584 11C39.3624 11 39.157 11.0093 38.9424 11.028C38.989 10.5147 39.0217 9.992 39.0404 9.46C39.059 8.928 39.0684 8.40533 39.0684 7.892C39.0684 7.45333 39.0637 7.11267 39.0544 6.87C39.0544 6.618 39.045 6.422 39.0264 6.282C39.0077 6.13267 38.9797 6.01133 38.9424 5.918C38.9144 5.82467 38.8724 5.722 38.8164 5.61C38.7137 5.43267 38.5504 5.28333 38.3264 5.162C38.1117 5.03133 37.8877 4.966 37.6544 4.966C37.0384 4.966 36.5857 5.16667 36.2964 5.568C36.007 5.96933 35.8624 6.534 35.8624 7.262V8.452C35.8624 8.872 35.867 9.31533 35.8764 9.782C35.895 10.2393 35.9277 10.6547 35.9744 11.028C35.7597 11.0093 35.5497 11 35.3444 11C35.139 11 34.929 11.0093 34.7144 11.028C34.761 10.6547 34.789 10.2393 34.7984 9.782C34.817 9.31533 34.8264 8.872 34.8264 8.452V6.996ZM47.1185 7.724C47.1185 8.116 47.1512 8.494 47.2165 8.858C47.2912 9.222 47.4125 9.54867 47.5805 9.838C47.7485 10.118 47.9725 10.342 48.2525 10.51C48.5325 10.678 48.8778 10.762 49.2885 10.762C49.6992 10.762 50.0445 10.678 50.3245 10.51C50.6045 10.342 50.8285 10.118 50.9965 9.838C51.1645 9.54867 51.2812 9.222 51.3465 8.858C51.4212 8.494 51.4585 8.116 51.4585 7.724C51.4585 7.332 51.4212 6.954 51.3465 6.59C51.2812 6.226 51.1645 5.904 50.9965 5.624C50.8285 5.33467 50.6045 5.106 50.3245 4.938C50.0445 4.77 49.6992 4.686 49.2885 4.686C48.8778 4.686 48.5325 4.77 48.2525 4.938C47.9725 5.106 47.7485 5.33467 47.5805 5.624C47.4125 5.904 47.2912 6.226 47.2165 6.59C47.1512 6.954 47.1185 7.332 47.1185 7.724ZM45.8865 7.724C45.8865 7.08933 45.9845 6.55267 46.1805 6.114C46.3858 5.666 46.6518 5.30667 46.9785 5.036C47.3052 4.756 47.6692 4.55533 48.0705 4.434C48.4812 4.30333 48.8872 4.238 49.2885 4.238C49.6992 4.238 50.1052 4.30333 50.5065 4.434C50.9078 4.55533 51.2718 4.756 51.5985 5.036C51.9252 5.30667 52.1865 5.666 52.3825 6.114C52.5878 6.55267 52.6905 7.08933 52.6905 7.724C52.6905 8.35867 52.5878 8.9 52.3825 9.348C52.1865 9.78667 51.9252 10.146 51.5985 10.426C51.2718 10.6967 50.9078 10.888 50.5065 11C50.1052 11.112 49.6992 11.168 49.2885 11.168C48.8872 11.168 48.4812 11.112 48.0705 11C47.6692 10.888 47.3052 10.6967 46.9785 10.426C46.6518 10.146 46.3858 9.78667 46.1805 9.348C45.9845 8.9 45.8865 8.35867 45.8865 7.724ZM57.4458 5.526C57.3991 5.47 57.3058 5.41867 57.1658 5.372C57.0351 5.32533 56.8998 5.302 56.7598 5.302C56.5358 5.302 56.3351 5.35333 56.1578 5.456C55.9804 5.55867 55.8311 5.69867 55.7098 5.876C55.5884 6.044 55.4951 6.24933 55.4298 6.492C55.3644 6.72533 55.3318 6.97733 55.3318 7.248V8.788C55.3318 9.41333 55.3318 9.894 55.3318 10.23C55.3411 10.5567 55.3598 10.8227 55.3878 11.028C55.2011 11.0093 55.0144 11 54.8278 11C54.6224 11 54.4264 11.0093 54.2398 11.028C54.2678 10.7107 54.2818 10.2813 54.2818 9.74C54.2911 9.18933 54.2958 8.51733 54.2958 7.724V7.276C54.2958 6.912 54.2911 6.492 54.2818 6.016C54.2818 5.54 54.2678 4.994 54.2398 4.378C54.3424 4.39667 54.4404 4.41533 54.5338 4.434C54.6271 4.44333 54.7251 4.448 54.8278 4.448C54.9118 4.448 55.0004 4.44333 55.0938 4.434C55.1871 4.41533 55.2851 4.39667 55.3878 4.378C55.3504 4.714 55.3271 4.98 55.3178 5.176C55.3178 5.372 55.3178 5.55867 55.3178 5.736L55.3458 5.75C55.8964 4.742 56.5124 4.238 57.1938 4.238C57.2778 4.238 57.3478 4.24267 57.4038 4.252C57.4691 4.26133 57.5484 4.28467 57.6418 4.322C57.5951 4.434 57.5671 4.60667 57.5578 4.84C57.5484 5.064 57.5438 5.26933 57.5438 5.456L57.4458 5.526ZM61.5619 4.686C61.2166 4.686 60.9226 4.76533 60.6799 4.924C60.4466 5.08267 60.2506 5.28333 60.0919 5.526C59.9426 5.75933 59.8259 6.02067 59.7419 6.31C59.6672 6.59 59.6206 6.856 59.6019 7.108C59.8912 7.11733 60.1899 7.12667 60.4979 7.136C60.8152 7.14533 61.1232 7.15 61.4219 7.15C61.7299 7.15 62.0426 7.14533 62.3599 7.136C62.6772 7.12667 62.9852 7.11733 63.2839 7.108C63.2839 6.856 63.2606 6.59 63.2139 6.31C63.1766 6.03 63.0926 5.76867 62.9619 5.526C62.8406 5.28333 62.6679 5.08267 62.4439 4.924C62.2199 4.76533 61.9259 4.686 61.5619 4.686ZM58.3279 7.92C58.3279 6.772 58.5986 5.87133 59.1399 5.218C59.6906 4.56467 60.4886 4.238 61.5339 4.238C62.0286 4.238 62.4532 4.31733 62.8079 4.476C63.1719 4.62533 63.4752 4.83067 63.7179 5.092C63.9606 5.344 64.1379 5.64267 64.2499 5.988C64.3712 6.33333 64.4319 6.702 64.4319 7.094C64.4319 7.18733 64.4272 7.28067 64.4179 7.374C64.4179 7.458 64.4132 7.54667 64.4039 7.64C63.8999 7.63067 63.4006 7.62133 62.9059 7.612C62.4112 7.60267 61.9119 7.598 61.4079 7.598C61.0999 7.598 60.7919 7.60267 60.4839 7.612C60.1852 7.62133 59.8819 7.63067 59.5739 7.64C59.5646 7.68667 59.5599 7.75667 59.5599 7.85V8.032C59.5599 8.396 59.6112 8.73667 59.7139 9.054C59.8259 9.37133 59.9846 9.64667 60.1899 9.88C60.3952 10.104 60.6472 10.286 60.9459 10.426C61.2446 10.5567 61.5899 10.622 61.9819 10.622C62.1686 10.622 62.3599 10.5987 62.5559 10.552C62.7519 10.496 62.9432 10.426 63.1299 10.342C63.3166 10.2487 63.4892 10.1413 63.6479 10.02C63.8159 9.89867 63.9606 9.768 64.0819 9.628L64.1519 9.67L64.0679 10.356C63.7879 10.58 63.4379 10.7713 63.0179 10.93C62.6072 11.0887 62.1779 11.168 61.7299 11.168C61.2259 11.168 60.7639 11.0933 60.3439 10.944C59.9332 10.7853 59.5739 10.5613 59.2659 10.272C58.9672 9.97333 58.7339 9.62333 58.5659 9.222C58.4072 8.82067 58.3279 8.38667 58.3279 7.92Z" fill="#2A4072"/>
</svg>
