<svg width="181" height="93" viewBox="0 0 181 93" fill="none" xmlns="http://www.w3.org/2000/svg">
<path d="M0.898 27.974C0.898 23.53 0.797001 19.187 0.595001 14.945C0.460334 10.6357 0.292 6.259 0.0900004 1.81499C3.12 1.94966 6.11633 2.08433 9.079 2.21899C12.109 2.28633 15.139 2.32 18.169 2.32C21.199 2.32 24.2627 2.28633 27.36 2.21899C30.4573 2.08433 33.824 1.94966 37.46 1.81499C37.258 2.825 37.157 3.835 37.157 4.845C37.157 5.855 37.258 6.865 37.46 7.875C35.642 7.673 33.4537 7.50466 30.895 7.36999C28.3363 7.168 25.7103 7.03333 23.017 6.966C20.391 6.83133 17.8323 6.73033 15.341 6.663C12.917 6.59567 10.897 6.562 9.281 6.562C9.21367 8.91866 9.14633 11.1743 9.079 13.329C9.079 15.4837 9.079 17.6383 9.079 19.793C9.079 22.1497 9.079 24.338 9.079 26.358C9.14633 28.3107 9.18 30.3643 9.18 32.519C13.624 32.519 18.0007 32.4517 22.31 32.317C26.6867 32.1823 30.996 31.913 35.238 31.509C34.9687 32.519 34.834 33.529 34.834 34.539C34.834 35.549 34.9687 36.559 35.238 37.569C33.5547 37.367 31.6357 37.2323 29.481 37.165C27.3937 37.0303 25.2053 36.9293 22.916 36.862C20.6267 36.7947 18.3037 36.761 15.947 36.761C13.5903 36.761 11.3347 36.761 9.18 36.761V45.346C9.18 49.79 9.24733 54.1667 9.382 58.476C9.584 62.7853 9.786 67.0273 9.988 71.202C8.43933 71.0673 6.78967 71 5.039 71C3.28833 71 1.63867 71.0673 0.0900004 71.202C0.292 67.0273 0.460334 62.7853 0.595001 58.476C0.797001 54.1667 0.898 49.79 0.898 45.346V27.974ZM56.8836 39.791C58.6342 39.791 60.4522 39.8247 62.3376 39.892C64.2229 39.9593 66.0409 39.993 67.7916 39.993C69.6769 39.993 71.5622 39.993 73.4476 39.993C75.3329 39.9257 77.2182 39.8583 79.1036 39.791L67.8926 14.137L56.8836 39.791ZM101.627 71.202C100.684 71.0673 99.7749 71 98.8996 71C98.0916 71 97.2162 71 96.2736 71C95.3309 71 94.4219 71 93.5466 71C92.7386 71 91.8632 71.0673 90.9206 71.202C90.4492 69.6533 89.8096 67.8017 89.0016 65.647C88.1936 63.425 87.2846 61.1357 86.2746 58.779C85.3319 56.355 84.3556 53.931 83.3456 51.507C82.3356 49.0157 81.3929 46.659 80.5176 44.437C78.3629 44.3697 76.1746 44.336 73.9526 44.336C71.7306 44.2687 69.5086 44.235 67.2866 44.235C65.1992 44.235 63.1456 44.2687 61.1256 44.336C59.1056 44.336 57.0519 44.3697 54.9646 44.437C52.8099 49.689 50.8572 54.7053 49.1066 59.486C47.3559 64.1993 46.0429 68.1047 45.1676 71.202C44.0229 71.0673 42.7772 71 41.4306 71C40.0839 71 38.8382 71.0673 37.6936 71.202C43.1476 59.4187 48.4669 47.7027 53.6516 36.054C58.8362 24.4053 64.0546 12.5547 69.3066 0.501999H71.2256C72.8416 4.40733 74.5922 8.64933 76.4776 13.228C78.3629 17.7393 80.2819 22.318 82.2346 26.964C84.1872 31.61 86.1399 36.2223 88.0926 40.801C90.0452 45.3797 91.8632 49.6553 93.5466 53.628C95.2972 57.5333 96.8459 61.0347 98.1926 64.132C99.6066 67.2293 100.751 69.586 101.627 71.202ZM104.527 36.66C104.527 30.9367 105.436 25.853 107.254 21.409C109.139 16.8977 111.732 13.0933 115.031 9.996C118.398 6.89866 122.404 4.542 127.05 2.926C131.696 1.31 136.78 0.501999 142.301 0.501999C147.89 0.501999 153.007 1.31 157.653 2.926C162.299 4.542 166.272 6.89866 169.571 9.996C172.938 13.0933 175.53 16.8977 177.348 21.409C179.233 25.853 180.176 30.9367 180.176 36.66C180.176 41.3733 179.536 45.6827 178.257 49.588C176.978 53.426 175.16 56.86 172.803 59.89C170.514 62.8527 167.719 65.3103 164.42 67.263C161.188 69.2157 157.552 70.5623 153.512 71.303C157.148 74.1983 160.818 77.0937 164.521 79.989C168.292 82.8843 172.231 85.7797 176.338 88.675C174.587 88.8097 172.971 89.3147 171.49 90.19C170.009 91.0653 168.999 91.9407 168.46 92.816C164.757 89.382 161.02 85.9817 157.249 82.615C153.478 79.2483 149.472 75.848 145.23 72.414C144.893 72.4813 144.388 72.515 143.715 72.515H142.301C136.78 72.515 131.696 71.7743 127.05 70.293C122.404 68.7443 118.398 66.4213 115.031 63.324C111.732 60.2267 109.139 56.456 107.254 52.012C105.436 47.5007 104.527 42.3833 104.527 36.66ZM170.278 36.66C170.278 31.0713 169.571 26.257 168.157 22.217C166.743 18.1097 164.757 14.743 162.198 12.117C159.707 9.42366 156.744 7.43733 153.31 6.158C149.943 4.87867 146.274 4.239 142.301 4.239C138.396 4.239 134.726 4.87867 131.292 6.158C127.925 7.43733 124.963 9.42366 122.404 12.117C119.913 14.743 117.96 18.1097 116.546 22.217C115.132 26.257 114.425 31.0713 114.425 36.66C114.425 42.2487 115.132 47.0967 116.546 51.204C117.96 55.244 119.913 58.6107 122.404 61.304C124.963 63.93 127.925 65.8827 131.292 67.162C134.726 68.4413 138.396 69.081 142.301 69.081C146.274 69.081 149.943 68.4413 153.31 67.162C156.744 65.8827 159.707 63.93 162.198 61.304C164.757 58.6107 166.743 55.244 168.157 51.204C169.571 47.0967 170.278 42.2487 170.278 36.66Z" fill="#2A4072"/>
</svg>
