<svg width="214" height="62" viewBox="0 0 214 62" fill="none" xmlns="http://www.w3.org/2000/svg">
<mask id="mask0_607_2433" style="mask-type:alpha" maskUnits="userSpaceOnUse" x="0" y="0" width="214" height="62">
<rect width="214" height="62" fill="#D9D9D9"/>
</mask>
<g mask="url(#mask0_607_2433)">
<path d="M38.13 48.582C37.758 48.9127 37.1587 49.2847 36.332 49.698C35.5467 50.07 34.5753 50.4213 33.418 50.752C32.302 51.0413 31.0413 51.31 29.636 51.558C28.2307 51.806 26.7633 51.93 25.234 51.93C21.9687 51.93 18.9513 51.4753 16.182 50.566C13.4127 49.6153 11.0153 48.1893 8.99 46.288C7.006 44.3867 5.43533 42.072 4.278 39.344C3.162 36.5747 2.604 33.4333 2.604 29.92C2.604 26.4067 3.162 23.286 4.278 20.558C5.43533 17.7887 7.02667 15.4533 9.052 13.552C11.1187 11.6507 13.578 10.204 16.43 9.212C19.282 8.22 22.4233 7.724 25.854 7.724C28.582 7.724 31.062 8.01333 33.294 8.592C35.5673 9.12933 37.572 9.79067 39.308 10.576C38.9773 11.1547 38.7087 11.94 38.502 12.932C38.2953 13.924 38.13 14.7507 38.006 15.412L37.634 15.536C37.2207 15.04 36.642 14.482 35.898 13.862C35.154 13.242 34.286 12.6427 33.294 12.064C32.302 11.4853 31.186 11.01 29.946 10.638C28.706 10.2247 27.342 10.018 25.854 10.018C23.4153 10.018 21.142 10.4107 19.034 11.196C16.9673 11.9813 15.1487 13.2007 13.578 14.854C12.0487 16.466 10.85 18.5327 9.982 21.054C9.114 23.534 8.68 26.4893 8.68 29.92C8.68 33.3507 9.114 36.3267 9.982 38.848C10.85 41.328 12.0487 43.3947 13.578 45.048C15.1487 46.66 16.9673 47.8587 19.034 48.644C21.142 49.4293 23.4153 49.822 25.854 49.822C27.342 49.822 28.706 49.636 29.946 49.264C31.2273 48.892 32.3847 48.458 33.418 47.962C34.4927 47.4247 35.4433 46.8667 36.27 46.288C37.138 45.668 37.8613 45.1307 38.44 44.676L38.688 44.924L38.13 48.582ZM48.9795 36.492C48.9795 38.228 49.1242 39.902 49.4135 41.514C49.7442 43.126 50.2815 44.5727 51.0255 45.854C51.7695 47.094 52.7615 48.086 54.0015 48.83C55.2415 49.574 56.7709 49.946 58.5895 49.946C60.4082 49.946 61.9375 49.574 63.1775 48.83C64.4175 48.086 65.4095 47.094 66.1535 45.854C66.8975 44.5727 67.4142 43.126 67.7035 41.514C68.0342 39.902 68.1995 38.228 68.1995 36.492C68.1995 34.756 68.0342 33.082 67.7035 31.47C67.4142 29.858 66.8975 28.432 66.1535 27.192C65.4095 25.9107 64.4175 24.898 63.1775 24.154C61.9375 23.41 60.4082 23.038 58.5895 23.038C56.7709 23.038 55.2415 23.41 54.0015 24.154C52.7615 24.898 51.7695 25.9107 51.0255 27.192C50.2815 28.432 49.7442 29.858 49.4135 31.47C49.1242 33.082 48.9795 34.756 48.9795 36.492ZM43.5235 36.492C43.5235 33.6813 43.9575 31.3047 44.8255 29.362C45.7348 27.378 46.9128 25.7867 48.3595 24.588C49.8062 23.348 51.4182 22.4593 53.1955 21.922C55.0142 21.3433 56.8122 21.054 58.5895 21.054C60.4082 21.054 62.2062 21.3433 63.9835 21.922C65.7609 22.4593 67.3729 23.348 68.8195 24.588C70.2662 25.7867 71.4235 27.378 72.2915 29.362C73.2009 31.3047 73.6555 33.6813 73.6555 36.492C73.6555 39.3027 73.2009 41.7 72.2915 43.684C71.4235 45.6267 70.2662 47.218 68.8195 48.458C67.3729 49.6567 65.7609 50.504 63.9835 51C62.2062 51.496 60.4082 51.744 58.5895 51.744C56.8122 51.744 55.0142 51.496 53.1955 51C51.4182 50.504 49.8062 49.6567 48.3595 48.458C46.9128 47.218 45.7348 45.6267 44.8255 43.684C43.9575 41.7 43.5235 39.3027 43.5235 36.492ZM82.1287 22.232C82.1287 20.8267 82.108 19.2973 82.0667 17.644C82.0667 15.9907 82.046 14.358 82.0047 12.746C81.9634 11.134 81.9014 9.60467 81.8187 8.158C81.7774 6.67 81.7154 5.40933 81.6327 4.376C82.79 4.58266 83.72 4.686 84.4227 4.686C85.1254 4.686 86.0554 4.58266 87.2127 4.376C87.13 5.40933 87.0474 6.67 86.9647 8.158C86.9234 9.60467 86.882 11.134 86.8407 12.746C86.7994 14.358 86.758 15.9907 86.7167 17.644C86.7167 19.2973 86.7167 20.8267 86.7167 22.232V33.454C86.7167 34.8593 86.7167 36.3887 86.7167 38.042C86.758 39.6953 86.7994 41.328 86.8407 42.94C86.882 44.552 86.9234 46.0813 86.9647 47.528C87.0474 48.9747 87.13 50.1733 87.2127 51.124C86.262 51.0413 85.332 51 84.4227 51C83.5134 51 82.5834 51.0413 81.6327 51.124C81.7154 50.1733 81.7774 48.9747 81.8187 47.528C81.9014 46.0813 81.9634 44.552 82.0047 42.94C82.046 41.328 82.0667 39.6953 82.0667 38.042C82.108 36.3887 82.1287 34.8593 82.1287 33.454V22.232ZM97.7725 41.762C97.7725 39.5713 97.7932 37.7113 97.8345 36.182C97.9172 34.6113 97.9585 33.0613 97.9585 31.532C97.9585 30.0853 97.9379 28.5147 97.8965 26.82C97.8965 25.1253 97.8759 23.41 97.8345 21.674C98.8679 21.8807 99.7359 21.984 100.439 21.984C101.1 21.984 101.947 21.8807 102.981 21.674C102.774 24.154 102.609 26.882 102.485 29.858C102.402 32.7927 102.361 35.81 102.361 38.91C102.361 41.0593 102.547 42.7127 102.919 43.87C103.291 44.986 103.745 45.8333 104.283 46.412C104.861 47.0733 105.585 47.6313 106.453 48.086C107.362 48.4993 108.416 48.706 109.615 48.706C111.351 48.706 112.797 48.334 113.955 47.59C115.112 46.8047 115.959 45.854 116.497 44.738C116.786 44.0353 117.013 43.436 117.179 42.94C117.344 42.444 117.468 41.7827 117.551 40.956C117.675 40.1293 117.737 39.0133 117.737 37.608C117.778 36.2027 117.799 34.2807 117.799 31.842V26.634C117.799 25.7247 117.778 24.8567 117.737 24.03C117.737 23.2033 117.716 22.418 117.675 21.674C118.129 21.7567 118.563 21.8393 118.977 21.922C119.39 21.9633 119.824 21.984 120.279 21.984C120.733 21.984 121.167 21.9633 121.581 21.922C121.994 21.8393 122.407 21.7567 122.821 21.674C122.614 24.898 122.49 28.0187 122.449 31.036C122.407 34.012 122.387 37.174 122.387 40.522C122.387 42.382 122.407 44.2007 122.449 45.978C122.49 47.7553 122.552 49.4707 122.635 51.124C121.808 51.0413 121.002 51 120.217 51C119.431 51 118.625 51.0413 117.799 51.124C117.84 50.752 117.861 50.3593 117.861 49.946C117.902 49.5327 117.923 49.0987 117.923 48.644V45.978H117.799C116.724 47.962 115.339 49.4293 113.645 50.38C111.95 51.2893 110.111 51.744 108.127 51.744C104.903 51.744 102.361 50.8967 100.501 49.202C98.6819 47.466 97.7725 44.986 97.7725 41.762ZM132.348 33.268C132.348 31.408 132.306 29.4653 132.224 27.44C132.182 25.3733 132.058 23.4513 131.852 21.674C133.009 21.8807 133.939 21.984 134.642 21.984C134.972 21.984 135.324 21.9633 135.696 21.922C136.109 21.8393 136.584 21.7567 137.122 21.674C136.998 23.3273 136.936 24.9807 136.936 26.634H137.06C139.25 22.914 142.33 21.054 146.298 21.054C147.331 21.054 148.344 21.2193 149.336 21.55C150.328 21.8393 151.216 22.2527 152.002 22.79C152.828 23.3273 153.531 23.9887 154.11 24.774C154.688 25.518 155.081 26.324 155.288 27.192H155.412C156.404 25.208 157.747 23.6993 159.442 22.666C161.178 21.5913 163.162 21.054 165.394 21.054C166.758 21.054 168.018 21.24 169.176 21.612C170.333 21.984 171.325 22.5627 172.152 23.348C173.02 24.1333 173.681 25.146 174.136 26.386C174.632 27.626 174.88 29.114 174.88 30.85C174.88 31.5527 174.859 32.3173 174.818 33.144C174.776 33.9707 174.735 34.942 174.694 36.058C174.652 37.1327 174.611 38.3727 174.57 39.778C174.528 41.142 174.508 42.7333 174.508 44.552C174.508 45.668 174.508 46.7427 174.508 47.776C174.549 48.8093 174.611 49.9253 174.694 51.124C174.239 51.0413 173.784 51 173.33 51C172.875 51 172.441 51 172.028 51C171.573 51 171.118 51 170.664 51C170.209 51 169.754 51.0413 169.3 51.124C169.424 50.0907 169.548 48.0033 169.672 44.862C169.837 41.7207 169.92 37.3393 169.92 31.718C169.92 30.6847 169.796 29.7133 169.548 28.804C169.341 27.8947 168.99 27.1093 168.494 26.448C167.998 25.7867 167.336 25.27 166.51 24.898C165.683 24.4847 164.65 24.278 163.41 24.278C161.922 24.278 160.661 24.5673 159.628 25.146C158.594 25.7247 157.788 26.4067 157.21 27.192C156.879 27.6467 156.61 28.1013 156.404 28.556C156.238 29.0107 156.094 29.7133 155.97 30.664C155.887 31.5733 155.825 32.8753 155.784 34.57C155.742 36.2233 155.722 38.5173 155.722 41.452C155.722 43.2293 155.742 44.862 155.784 46.35C155.866 47.7967 155.949 49.388 156.032 51.124C155.081 51.0413 154.172 51 153.304 51C152.436 51 151.526 51.0413 150.576 51.124C150.782 48.8507 150.927 46.536 151.01 44.18C151.092 41.824 151.134 39.5093 151.134 37.236C151.134 35.2933 151.113 33.7847 151.072 32.71C151.072 31.594 151.03 30.726 150.948 30.106C150.865 29.4447 150.741 28.9073 150.576 28.494C150.452 28.0807 150.266 27.626 150.018 27.13C149.563 26.3447 148.84 25.6833 147.848 25.146C146.897 24.5673 145.905 24.278 144.872 24.278C142.144 24.278 140.139 25.1667 138.858 26.944C137.576 28.7213 136.936 31.222 136.936 34.446V39.716C136.936 41.576 136.956 43.5393 136.998 45.606C137.08 47.6313 137.225 49.4707 137.432 51.124C136.481 51.0413 135.551 51 134.642 51C133.732 51 132.802 51.0413 131.852 51.124C132.058 49.4707 132.182 47.6313 132.224 45.606C132.306 43.5393 132.348 41.576 132.348 39.716V33.268ZM204.082 33.702C204.082 30.602 203.483 28.2667 202.284 26.696C201.086 25.084 199.432 24.278 197.324 24.278C194.431 24.278 192.302 25.1667 190.938 26.944C189.616 28.7213 188.954 31.222 188.954 34.446V39.716C188.954 41.576 188.975 43.5393 189.016 45.606C189.099 47.6313 189.244 49.4707 189.45 51.124C188.5 51.0413 187.57 51 186.66 51C185.751 51 184.821 51.0413 183.87 51.124C184.077 49.4707 184.201 47.6313 184.242 45.606C184.325 43.5393 184.366 41.576 184.366 39.716V33.268C184.366 31.408 184.325 29.4653 184.242 27.44C184.201 25.3733 184.077 23.4513 183.87 21.674C185.028 21.8807 185.958 21.984 186.66 21.984C186.991 21.984 187.342 21.9633 187.714 21.922C188.128 21.8393 188.603 21.7567 189.14 21.674C189.016 23.3273 188.954 24.9807 188.954 26.634H189.078C190.236 24.8567 191.62 23.4927 193.232 22.542C194.844 21.55 196.766 21.054 198.998 21.054C200.156 21.054 201.313 21.2193 202.47 21.55C203.669 21.8807 204.744 22.4593 205.694 23.286C206.645 24.0713 207.41 25.1667 207.988 26.572C208.608 27.936 208.918 29.6927 208.918 31.842C208.918 33.6193 208.877 35.4587 208.794 37.36C208.712 39.22 208.67 41.204 208.67 43.312V47.342C208.67 48.0033 208.67 48.6647 208.67 49.326C208.712 49.946 208.753 50.5453 208.794 51.124C207.968 51.0413 207.1 51 206.19 51C205.322 51 204.475 51.0413 203.648 51.124C203.731 48.9747 203.814 46.7633 203.896 44.49C204.02 42.2167 204.082 39.8813 204.082 37.484V33.702Z" fill="#2A4072"/>
</g>
</svg>
