<svg width="205" height="45" viewBox="0 0 205 45" fill="none" xmlns="http://www.w3.org/2000/svg">
<path d="M36.13 41.582C35.758 41.9127 35.1587 42.2847 34.332 42.698C33.5467 43.07 32.5753 43.4213 31.418 43.752C30.302 44.0413 29.0413 44.31 27.636 44.558C26.2307 44.806 24.7633 44.93 23.234 44.93C19.9687 44.93 16.9513 44.4753 14.182 43.566C11.4127 42.6153 9.01533 41.1893 6.99 39.288C5.006 37.3867 3.43533 35.072 2.278 32.344C1.162 29.5747 0.604 26.4333 0.604 22.92C0.604 19.4067 1.162 16.286 2.278 13.558C3.43533 10.7887 5.02667 8.45333 7.052 6.552C9.11867 4.65066 11.578 3.204 14.43 2.212C17.282 1.22 20.4233 0.723999 23.854 0.723999C26.582 0.723999 29.062 1.01333 31.294 1.592C33.5673 2.12933 35.572 2.79067 37.308 3.576C36.9773 4.15467 36.7087 4.94 36.502 5.932C36.2953 6.924 36.13 7.75067 36.006 8.412L35.634 8.536C35.2207 8.04 34.642 7.482 33.898 6.862C33.154 6.242 32.286 5.64267 31.294 5.064C30.302 4.48533 29.186 4.01 27.946 3.638C26.706 3.22467 25.342 3.018 23.854 3.018C21.4153 3.018 19.142 3.41067 17.034 4.196C14.9673 4.98133 13.1487 6.20067 11.578 7.854C10.0487 9.466 8.85 11.5327 7.982 14.054C7.114 16.534 6.68 19.4893 6.68 22.92C6.68 26.3507 7.114 29.3267 7.982 31.848C8.85 34.328 10.0487 36.3947 11.578 38.048C13.1487 39.66 14.9673 40.8587 17.034 41.644C19.142 42.4293 21.4153 42.822 23.854 42.822C25.342 42.822 26.706 42.636 27.946 42.264C29.2273 41.892 30.3847 41.458 31.418 40.962C32.4927 40.4247 33.4433 39.8667 34.27 39.288C35.138 38.668 35.8613 38.1307 36.44 37.676L36.688 37.924L36.13 41.582ZM46.9795 29.492C46.9795 31.228 47.1242 32.902 47.4135 34.514C47.7442 36.126 48.2815 37.5727 49.0255 38.854C49.7695 40.094 50.7615 41.086 52.0015 41.83C53.2415 42.574 54.7709 42.946 56.5895 42.946C58.4082 42.946 59.9375 42.574 61.1775 41.83C62.4175 41.086 63.4095 40.094 64.1535 38.854C64.8975 37.5727 65.4142 36.126 65.7035 34.514C66.0342 32.902 66.1995 31.228 66.1995 29.492C66.1995 27.756 66.0342 26.082 65.7035 24.47C65.4142 22.858 64.8975 21.432 64.1535 20.192C63.4095 18.9107 62.4175 17.898 61.1775 17.154C59.9375 16.41 58.4082 16.038 56.5895 16.038C54.7709 16.038 53.2415 16.41 52.0015 17.154C50.7615 17.898 49.7695 18.9107 49.0255 20.192C48.2815 21.432 47.7442 22.858 47.4135 24.47C47.1242 26.082 46.9795 27.756 46.9795 29.492ZM41.5235 29.492C41.5235 26.6813 41.9575 24.3047 42.8255 22.362C43.7348 20.378 44.9128 18.7867 46.3595 17.588C47.8062 16.348 49.4182 15.4593 51.1955 14.922C53.0142 14.3433 54.8122 14.054 56.5895 14.054C58.4082 14.054 60.2062 14.3433 61.9835 14.922C63.7609 15.4593 65.3729 16.348 66.8195 17.588C68.2662 18.7867 69.4235 20.378 70.2915 22.362C71.2009 24.3047 71.6555 26.6813 71.6555 29.492C71.6555 32.3027 71.2009 34.7 70.2915 36.684C69.4235 38.6267 68.2662 40.218 66.8195 41.458C65.3729 42.6567 63.7609 43.504 61.9835 44C60.2062 44.496 58.4082 44.744 56.5895 44.744C54.8122 44.744 53.0142 44.496 51.1955 44C49.4182 43.504 47.8062 42.6567 46.3595 41.458C44.9128 40.218 43.7348 38.6267 42.8255 36.684C41.9575 34.7 41.5235 32.3027 41.5235 29.492ZM98.7287 26.702C98.7287 23.602 98.1294 21.2667 96.9307 19.696C95.732 18.084 94.0787 17.278 91.9707 17.278C89.0774 17.278 86.9487 18.1667 85.5847 19.944C84.262 21.7213 83.6007 24.222 83.6007 27.446V32.716C83.6007 34.576 83.6214 36.5393 83.6627 38.606C83.7454 40.6313 83.89 42.4707 84.0967 44.124C83.146 44.0413 82.216 44 81.3067 44C80.3974 44 79.4674 44.0413 78.5167 44.124C78.7234 42.4707 78.8474 40.6313 78.8887 38.606C78.9714 36.5393 79.0127 34.576 79.0127 32.716V26.268C79.0127 24.408 78.9714 22.4653 78.8887 20.44C78.8474 18.3733 78.7234 16.4513 78.5167 14.674C79.674 14.8807 80.604 14.984 81.3067 14.984C81.6374 14.984 81.9887 14.9633 82.3607 14.922C82.774 14.8393 83.2494 14.7567 83.7867 14.674C83.6627 16.3273 83.6007 17.9807 83.6007 19.634H83.7247C84.882 17.8567 86.2667 16.4927 87.8787 15.542C89.4907 14.55 91.4127 14.054 93.6447 14.054C94.802 14.054 95.9594 14.2193 97.1167 14.55C98.3154 14.8807 99.39 15.4593 100.341 16.286C101.291 17.0713 102.056 18.1667 102.635 19.572C103.255 20.936 103.565 22.6927 103.565 24.842C103.565 26.6193 103.523 28.4587 103.441 30.36C103.358 32.22 103.317 34.204 103.317 36.312V40.342C103.317 41.0033 103.317 41.6647 103.317 42.326C103.358 42.946 103.399 43.5453 103.441 44.124C102.614 44.0413 101.746 44 100.837 44C99.9687 44 99.1214 44.0413 98.2947 44.124C98.3774 41.9747 98.46 39.7633 98.5427 37.49C98.6667 35.2167 98.7287 32.8813 98.7287 30.484V26.702ZM118.61 6.366C118.486 7.93667 118.383 9.48667 118.3 11.016C118.259 12.504 118.197 14.0127 118.114 15.542C118.569 15.542 119.416 15.542 120.656 15.542C121.896 15.5007 123.239 15.4387 124.686 15.356C124.645 15.48 124.624 15.7073 124.624 16.038V16.658V17.34C124.624 17.6293 124.645 17.836 124.686 17.96C124.149 17.9187 123.591 17.898 123.012 17.898C122.433 17.8567 121.813 17.836 121.152 17.836H118.114C118.073 18.0013 118.011 18.6627 117.928 19.82C117.887 20.9773 117.845 22.362 117.804 23.974C117.763 25.5447 117.721 27.198 117.68 28.934C117.68 30.67 117.68 32.22 117.68 33.584C117.68 34.7413 117.701 35.878 117.742 36.994C117.825 38.11 118.031 39.1227 118.362 40.032C118.693 40.9 119.189 41.6027 119.85 42.14C120.511 42.6773 121.462 42.946 122.702 42.946C123.033 42.946 123.467 42.9047 124.004 42.822C124.583 42.7393 125.079 42.636 125.492 42.512V44C124.789 44.124 124.004 44.2687 123.136 44.434C122.309 44.6407 121.503 44.744 120.718 44.744C118.114 44.744 116.192 44.1033 114.952 42.822C113.712 41.5407 113.092 39.66 113.092 37.18C113.092 36.064 113.113 34.8653 113.154 33.584C113.195 32.2613 113.237 30.8353 113.278 29.306C113.361 27.7353 113.423 26.02 113.464 24.16C113.505 22.2587 113.526 20.1507 113.526 17.836H111.542C111.211 17.836 110.86 17.8567 110.488 17.898C110.116 17.898 109.723 17.9187 109.31 17.96C109.351 17.712 109.372 17.4847 109.372 17.278C109.413 17.03 109.434 16.782 109.434 16.534C109.434 16.3273 109.413 16.1207 109.372 15.914C109.372 15.7073 109.351 15.5007 109.31 15.294C111.17 15.418 112.534 15.48 113.402 15.48C113.361 14.6533 113.319 13.62 113.278 12.38C113.278 11.14 113.237 9.85867 113.154 8.536L118.3 6.366H118.61ZM146.158 28.686C145.455 28.934 144.628 29.1407 143.678 29.306C142.768 29.4713 141.838 29.6573 140.888 29.864C139.937 30.0293 138.986 30.2567 138.036 30.546C137.126 30.8353 136.3 31.228 135.556 31.724C134.853 32.22 134.274 32.84 133.82 33.584C133.406 34.328 133.2 35.2787 133.2 36.436C133.2 38.3787 133.758 39.846 134.874 40.838C135.99 41.83 137.23 42.326 138.594 42.326C140.164 42.326 141.59 41.892 142.872 41.024C144.194 40.156 145.207 39.1433 145.91 37.986L146.158 28.686ZM130.844 17.65C132.704 16.2447 134.419 15.294 135.99 14.798C137.56 14.302 139.172 14.054 140.826 14.054C142.314 14.054 143.678 14.2813 144.918 14.736C146.158 15.1493 147.212 15.7693 148.08 16.596C148.948 17.3813 149.63 18.3527 150.126 19.51C150.622 20.626 150.87 21.866 150.87 23.23C150.87 25.586 150.828 27.942 150.746 30.298C150.663 32.6127 150.622 35.072 150.622 37.676C150.622 38.172 150.622 38.7093 150.622 39.288C150.663 39.8253 150.766 40.3213 150.932 40.776C151.097 41.1893 151.324 41.5407 151.614 41.83C151.944 42.1193 152.42 42.264 153.04 42.264C153.246 42.264 153.453 42.264 153.66 42.264C153.908 42.2227 154.135 42.14 154.342 42.016V43.38C153.887 43.5867 153.308 43.752 152.606 43.876C151.944 44 151.2 44.062 150.374 44.062C149.051 44.062 148.038 43.7313 147.336 43.07C146.633 42.3673 146.22 41.4787 146.096 40.404C144.608 41.892 143.14 42.9873 141.694 43.69C140.247 44.3927 138.47 44.744 136.362 44.744C135.328 44.744 134.316 44.5993 133.324 44.31C132.332 44.0207 131.443 43.5453 130.658 42.884C129.914 42.2227 129.294 41.4373 128.798 40.528C128.343 39.5773 128.116 38.5027 128.116 37.304C128.116 34.824 128.88 32.902 130.41 31.538C131.98 30.174 134.13 29.2647 136.858 28.81C139.09 28.438 140.826 28.128 142.066 27.88C143.347 27.5907 144.277 27.3013 144.856 27.012C145.476 26.7227 145.848 26.392 145.972 26.02C146.096 25.6067 146.158 25.09 146.158 24.47C146.158 23.4367 146.034 22.4447 145.786 21.494C145.538 20.5433 145.145 19.7167 144.608 19.014C144.07 18.3113 143.368 17.7533 142.5 17.34C141.632 16.8853 140.578 16.658 139.338 16.658C137.684 16.658 136.134 17.03 134.688 17.774C133.282 18.518 132.228 19.5513 131.526 20.874H130.844V17.65ZM159.116 29.492C159.116 26.8053 159.57 24.4907 160.48 22.548C161.389 20.6053 162.567 19.014 164.014 17.774C165.502 16.4927 167.196 15.5627 169.098 14.984C170.999 14.364 172.942 14.054 174.926 14.054C177.199 14.054 179.224 14.3433 181.002 14.922C182.82 15.4593 184.122 16.0793 184.908 16.782C184.618 17.402 184.35 18.0633 184.102 18.766C183.895 19.4273 183.709 20.13 183.544 20.874H183.048C182.758 20.3367 182.366 19.7993 181.87 19.262C181.374 18.6833 180.774 18.1667 180.072 17.712C179.41 17.216 178.666 16.8233 177.84 16.534C177.013 16.2033 176.104 16.038 175.112 16.038C173.252 16.038 171.64 16.3893 170.276 17.092C168.953 17.7533 167.858 18.6833 166.99 19.882C166.163 21.0807 165.543 22.5067 165.13 24.16C164.758 25.772 164.572 27.5287 164.572 29.43C164.572 33.6873 165.481 36.9113 167.3 39.102C169.118 41.2513 171.784 42.326 175.298 42.326C176.124 42.326 176.972 42.2227 177.84 42.016C178.708 41.768 179.555 41.458 180.382 41.086C181.208 40.6727 181.973 40.1973 182.676 39.66C183.42 39.1227 184.06 38.544 184.598 37.924L184.908 38.11C184.701 39.102 184.577 40.1147 184.536 41.148C183.296 42.14 181.746 42.9873 179.886 43.69C178.067 44.3927 176.166 44.744 174.182 44.744C172.404 44.744 170.606 44.496 168.788 44C167.01 43.4627 165.398 42.5947 163.952 41.396C162.505 40.156 161.327 38.5647 160.418 36.622C159.55 34.6793 159.116 32.3027 159.116 29.492ZM197.866 6.366C197.742 7.93667 197.638 9.48667 197.556 11.016C197.514 12.504 197.452 14.0127 197.37 15.542C197.824 15.542 198.672 15.542 199.912 15.542C201.152 15.5007 202.495 15.4387 203.942 15.356C203.9 15.48 203.88 15.7073 203.88 16.038V16.658V17.34C203.88 17.6293 203.9 17.836 203.942 17.96C203.404 17.9187 202.846 17.898 202.268 17.898C201.689 17.8567 201.069 17.836 200.408 17.836H197.37C197.328 18.0013 197.266 18.6627 197.184 19.82C197.142 20.9773 197.101 22.362 197.06 23.974C197.018 25.5447 196.977 27.198 196.936 28.934C196.936 30.67 196.936 32.22 196.936 33.584C196.936 34.7413 196.956 35.878 196.998 36.994C197.08 38.11 197.287 39.1227 197.618 40.032C197.948 40.9 198.444 41.6027 199.106 42.14C199.767 42.6773 200.718 42.946 201.958 42.946C202.288 42.946 202.722 42.9047 203.26 42.822C203.838 42.7393 204.334 42.636 204.748 42.512V44C204.045 44.124 203.26 44.2687 202.392 44.434C201.565 44.6407 200.759 44.744 199.974 44.744C197.37 44.744 195.448 44.1033 194.208 42.822C192.968 41.5407 192.348 39.66 192.348 37.18C192.348 36.064 192.368 34.8653 192.41 33.584C192.451 32.2613 192.492 30.8353 192.534 29.306C192.616 27.7353 192.678 26.02 192.72 24.16C192.761 22.2587 192.782 20.1507 192.782 17.836H190.798C190.467 17.836 190.116 17.8567 189.744 17.898C189.372 17.898 188.979 17.9187 188.566 17.96C188.607 17.712 188.628 17.4847 188.628 17.278C188.669 17.03 188.69 16.782 188.69 16.534C188.69 16.3273 188.669 16.1207 188.628 15.914C188.628 15.7073 188.607 15.5007 188.566 15.294C190.426 15.418 191.79 15.48 192.658 15.48C192.616 14.6533 192.575 13.62 192.534 12.38C192.534 11.14 192.492 9.85867 192.41 8.536L197.556 6.366H197.866Z" fill="#2A4072"/>
</svg>
