<svg width="149" height="45" viewBox="0 0 149 45" fill="none" xmlns="http://www.w3.org/2000/svg">
<path d="M8.044 0.723999C10.896 6.59333 13.7687 12.2973 16.662 17.836C19.5967 23.3747 22.6553 29.058 25.838 34.886C26.2513 34.1007 26.8507 32.9847 27.636 31.538C28.4213 30.05 29.3307 28.3553 30.364 26.454C31.3973 24.5527 32.4927 22.5067 33.65 20.316C34.8487 18.084 36.0473 15.8313 37.246 13.558C38.486 11.2847 39.7053 9.05267 40.904 6.862C42.1027 4.67133 43.2187 2.62533 44.252 0.723999H45.058C45.5127 4.692 45.926 8.536 46.298 12.256C46.7113 15.9347 47.1247 19.572 47.538 23.168C47.9513 26.7227 48.3647 30.2567 48.778 33.77C49.1913 37.242 49.646 40.6933 50.142 44.124C49.646 44.0413 49.15 44 48.654 44C48.1993 44 47.724 44 47.228 44C46.732 44 46.236 44 45.74 44C45.2853 44 44.81 44.0413 44.314 44.124C43.8593 38.6267 43.4047 33.2947 42.95 28.128C42.4953 22.9613 41.9373 17.6913 41.276 12.318H41.152C38.3 17.526 35.4893 22.7133 32.72 27.88C29.992 33.0053 27.388 38.3787 24.908 44H24.35C21.87 38.792 19.266 33.584 16.538 28.376C13.8513 23.1267 11.144 17.774 8.416 12.318H8.292C8.00267 14.8807 7.672 17.6707 7.3 20.688C6.96933 23.664 6.65933 26.6193 6.37 29.554C6.08067 32.4473 5.83267 35.196 5.626 37.8C5.41933 40.3627 5.316 42.4707 5.316 44.124C4.65467 44.0413 3.93133 44 3.146 44C2.36067 44 1.63733 44.0413 0.976 44.124C1.51333 40.776 2.07133 37.242 2.65 33.522C3.22867 29.802 3.78667 26.0613 4.324 22.3C4.86133 18.5387 5.35733 14.8393 5.812 11.202C6.26667 7.52333 6.65933 4.03067 6.99 0.723999H8.044ZM69.5897 16.038C68.0603 16.038 66.7583 16.3893 65.6837 17.092C64.6503 17.7947 63.7823 18.6833 63.0797 19.758C62.4183 20.7913 61.9017 21.9487 61.5297 23.23C61.199 24.47 60.9923 25.648 60.9097 26.764C62.191 26.8053 63.5137 26.8467 64.8777 26.888C66.283 26.9293 67.647 26.95 68.9697 26.95C70.3337 26.95 71.7183 26.9293 73.1237 26.888C74.529 26.8467 75.893 26.8053 77.2157 26.764C77.2157 25.648 77.1123 24.47 76.9057 23.23C76.7403 21.99 76.3683 20.8327 75.7897 19.758C75.2523 18.6833 74.4877 17.7947 73.4957 17.092C72.5037 16.3893 71.2017 16.038 69.5897 16.038ZM55.2677 30.36C55.2677 25.276 56.4663 21.2873 58.8637 18.394C61.3023 15.5007 64.8363 14.054 69.4657 14.054C71.6563 14.054 73.537 14.4053 75.1077 15.108C76.7197 15.7693 78.063 16.6787 79.1377 17.836C80.2123 18.952 80.9977 20.2747 81.4937 21.804C82.031 23.3333 82.2997 24.966 82.2997 26.702C82.2997 27.1153 82.279 27.5287 82.2377 27.942C82.2377 28.314 82.217 28.7067 82.1757 29.12C79.9437 29.0787 77.7323 29.0373 75.5417 28.996C73.351 28.9547 71.1397 28.934 68.9077 28.934C67.5437 28.934 66.1797 28.9547 64.8157 28.996C63.493 29.0373 62.1497 29.0787 60.7857 29.12C60.7443 29.3267 60.7237 29.6367 60.7237 30.05V30.856C60.7237 32.468 60.951 33.9767 61.4057 35.382C61.9017 36.7873 62.6043 38.0067 63.5137 39.04C64.423 40.032 65.539 40.838 66.8617 41.458C68.1843 42.0367 69.7137 42.326 71.4497 42.326C72.2763 42.326 73.1237 42.2227 73.9917 42.016C74.8597 41.768 75.707 41.458 76.5337 41.086C77.3603 40.6727 78.125 40.1973 78.8277 39.66C79.5717 39.1227 80.2123 38.544 80.7497 37.924L81.0597 38.11L80.6877 41.148C79.4477 42.14 77.8977 42.9873 76.0377 43.69C74.219 44.3927 72.3177 44.744 70.3337 44.744C68.1017 44.744 66.0557 44.4133 64.1957 43.752C62.377 43.0493 60.7857 42.0573 59.4217 40.776C58.099 39.4533 57.0657 37.9033 56.3217 36.126C55.619 34.3487 55.2677 32.4267 55.2677 30.36ZM109.022 26.702C109.022 23.602 108.422 21.2667 107.224 19.696C106.025 18.084 104.372 17.278 102.264 17.278C99.3703 17.278 97.2417 18.1667 95.8777 19.944C94.555 21.7213 93.8937 24.222 93.8937 27.446V32.716C93.8937 34.576 93.9143 36.5393 93.9557 38.606C94.0383 40.6313 94.183 42.4707 94.3897 44.124C93.439 44.0413 92.509 44 91.5997 44C90.6903 44 89.7603 44.0413 88.8097 44.124C89.0163 42.4707 89.1403 40.6313 89.1817 38.606C89.2643 36.5393 89.3057 34.576 89.3057 32.716V26.268C89.3057 24.408 89.2643 22.4653 89.1817 20.44C89.1403 18.3733 89.0163 16.4513 88.8097 14.674C89.967 14.8807 90.897 14.984 91.5997 14.984C91.9303 14.984 92.2817 14.9633 92.6537 14.922C93.067 14.8393 93.5423 14.7567 94.0797 14.674C93.9557 16.3273 93.8937 17.9807 93.8937 19.634H94.0177C95.175 17.8567 96.5597 16.4927 98.1717 15.542C99.7837 14.55 101.706 14.054 103.938 14.054C105.095 14.054 106.252 14.2193 107.41 14.55C108.608 14.8807 109.683 15.4593 110.634 16.286C111.584 17.0713 112.349 18.1667 112.928 19.572C113.548 20.936 113.858 22.6927 113.858 24.842C113.858 26.6193 113.816 28.4587 113.734 30.36C113.651 32.22 113.61 34.204 113.61 36.312V40.342C113.61 41.0033 113.61 41.6647 113.61 42.326C113.651 42.946 113.692 43.5453 113.734 44.124C112.907 44.0413 112.039 44 111.13 44C110.262 44 109.414 44.0413 108.588 44.124C108.67 41.9747 108.753 39.7633 108.836 37.49C108.96 35.2167 109.022 32.8813 109.022 30.484V26.702ZM123.261 34.762C123.261 32.5713 123.281 30.7113 123.323 29.182C123.405 27.6113 123.447 26.0613 123.447 24.532C123.447 23.0853 123.426 21.5147 123.385 19.82C123.385 18.1253 123.364 16.41 123.323 14.674C124.356 14.8807 125.224 14.984 125.927 14.984C126.588 14.984 127.435 14.8807 128.469 14.674C128.262 17.154 128.097 19.882 127.973 22.858C127.89 25.7927 127.849 28.81 127.849 31.91C127.849 34.0593 128.035 35.7127 128.407 36.87C128.779 37.986 129.233 38.8333 129.771 39.412C130.349 40.0733 131.073 40.6313 131.941 41.086C132.85 41.4993 133.904 41.706 135.103 41.706C136.839 41.706 138.285 41.334 139.443 40.59C140.6 39.8047 141.447 38.854 141.985 37.738C142.274 37.0353 142.501 36.436 142.667 35.94C142.832 35.444 142.956 34.7827 143.039 33.956C143.163 33.1293 143.225 32.0133 143.225 30.608C143.266 29.2027 143.287 27.2807 143.287 24.842V19.634C143.287 18.7247 143.266 17.8567 143.225 17.03C143.225 16.2033 143.204 15.418 143.163 14.674C143.617 14.7567 144.051 14.8393 144.465 14.922C144.878 14.9633 145.312 14.984 145.767 14.984C146.221 14.984 146.655 14.9633 147.069 14.922C147.482 14.8393 147.895 14.7567 148.309 14.674C148.102 17.898 147.978 21.0187 147.937 24.036C147.895 27.012 147.875 30.174 147.875 33.522C147.875 35.382 147.895 37.2007 147.937 38.978C147.978 40.7553 148.04 42.4707 148.123 44.124C147.296 44.0413 146.49 44 145.705 44C144.919 44 144.113 44.0413 143.287 44.124C143.328 43.752 143.349 43.3593 143.349 42.946C143.39 42.5327 143.411 42.0987 143.411 41.644V38.978H143.287C142.212 40.962 140.827 42.4293 139.133 43.38C137.438 44.2893 135.599 44.744 133.615 44.744C130.391 44.744 127.849 43.8967 125.989 42.202C124.17 40.466 123.261 37.986 123.261 34.762Z" fill="#2A4072"/>
</svg>
