<svg width="128" height="45" viewBox="0 0 128 45" fill="none" xmlns="http://www.w3.org/2000/svg">
<path d="M6.16 22.238C7.56533 22.5687 9.03267 22.734 10.562 22.734C11.8433 22.734 13.166 22.5893 14.53 22.3C15.894 22.0107 17.134 21.494 18.25 20.75C19.4073 19.9647 20.3373 18.9107 21.04 17.588C21.784 16.224 22.156 14.488 22.156 12.38C22.156 10.6027 21.908 9.156 21.412 8.04C20.916 6.924 20.2133 6.056 19.304 5.436C18.436 4.816 17.3613 4.40267 16.08 4.196C14.7987 3.948 13.352 3.824 11.74 3.824H6.16V22.238ZM1.076 17.588C1.076 14.86 1.014 12.194 0.89 9.59C0.807334 6.94467 0.704 4.258 0.58 1.53C1.572 1.61266 2.564 1.69533 3.556 1.778C4.58933 1.81933 5.602 1.84 6.594 1.84C7.09 1.84 7.68933 1.81933 8.392 1.778C9.09467 1.73666 9.79733 1.716 10.5 1.716C11.244 1.67466 11.9467 1.63333 12.608 1.592C13.2693 1.55066 13.8273 1.53 14.282 1.53C14.902 1.53 15.6667 1.55066 16.576 1.592C17.4853 1.63333 18.436 1.75733 19.428 1.964C20.4613 2.17066 21.474 2.48066 22.466 2.894C23.458 3.30733 24.3467 3.90666 25.132 4.692C25.9587 5.47733 26.62 6.46933 27.116 7.668C27.612 8.82533 27.86 10.272 27.86 12.008C27.86 14.736 27.2607 16.9473 26.062 18.642C24.9047 20.3367 23.458 21.6593 21.722 22.61C20.0273 23.5607 18.2087 24.2013 16.266 24.532C14.3647 24.8627 12.67 25.028 11.182 25.028C10.2313 25.028 9.36333 25.028 8.578 25.028C7.79267 24.9867 6.98667 24.9247 6.16 24.842V28.252C6.16 30.98 6.20133 33.6667 6.284 36.312C6.408 38.9573 6.532 41.5613 6.656 44.124C5.70533 44.0413 4.69267 44 3.618 44C2.54333 44 1.53067 44.0413 0.58 44.124C0.704 41.5613 0.807334 38.9573 0.89 36.312C1.014 33.6667 1.076 30.98 1.076 28.252V17.588ZM48.3612 19.758C48.1545 19.51 47.7412 19.2827 47.1212 19.076C46.5425 18.8693 45.9432 18.766 45.3232 18.766C44.3312 18.766 43.4425 18.9933 42.6572 19.448C41.8718 19.9027 41.2105 20.5227 40.6732 21.308C40.1358 22.052 39.7225 22.9613 39.4332 24.036C39.1438 25.0693 38.9992 26.1853 38.9992 27.384V34.204C38.9992 36.9733 38.9992 39.102 38.9992 40.59C39.0405 42.0367 39.1232 43.2147 39.2472 44.124C38.4205 44.0413 37.5938 44 36.7672 44C35.8578 44 34.9898 44.0413 34.1632 44.124C34.2872 42.7187 34.3492 40.8173 34.3492 38.42C34.3905 35.9813 34.4112 33.0053 34.4112 29.492V27.508C34.4112 25.896 34.3905 24.036 34.3492 21.928C34.3492 19.82 34.2872 17.402 34.1632 14.674C34.6178 14.7567 35.0518 14.8393 35.4652 14.922C35.8785 14.9633 36.3125 14.984 36.7672 14.984C37.1392 14.984 37.5318 14.9633 37.9452 14.922C38.3585 14.8393 38.7925 14.7567 39.2472 14.674C39.0818 16.162 38.9785 17.34 38.9372 18.208C38.9372 19.076 38.9372 19.9027 38.9372 20.688L39.0612 20.75C41.4998 16.286 44.2278 14.054 47.2452 14.054C47.6172 14.054 47.9272 14.0747 48.1752 14.116C48.4645 14.1573 48.8158 14.2607 49.2292 14.426C49.0225 14.922 48.8985 15.6867 48.8572 16.72C48.8158 17.712 48.7952 18.6213 48.7952 19.448L48.3612 19.758ZM55.5537 3.886C55.5537 3.018 55.8637 2.274 56.4837 1.654C57.1037 1.034 57.8477 0.723999 58.7157 0.723999C59.5837 0.723999 60.3277 1.034 60.9477 1.654C61.5677 2.274 61.8777 3.018 61.8777 3.886C61.8777 4.754 61.5677 5.498 60.9477 6.118C60.3277 6.738 59.5837 7.048 58.7157 7.048C57.8477 7.048 57.1037 6.738 56.4837 6.118C55.8637 5.498 55.5537 4.754 55.5537 3.886ZM56.4217 26.268C56.4217 24.408 56.3803 22.4653 56.2977 20.44C56.2563 18.3733 56.1323 16.4513 55.9257 14.674C57.083 14.8807 58.013 14.984 58.7157 14.984C59.4183 14.984 60.3483 14.8807 61.5057 14.674C61.299 16.4513 61.1543 18.3733 61.0717 20.44C61.0303 22.4653 61.0097 24.408 61.0097 26.268V32.716C61.0097 34.576 61.0303 36.5393 61.0717 38.606C61.1543 40.6313 61.299 42.4707 61.5057 44.124C60.555 44.0413 59.625 44 58.7157 44C57.8063 44 56.8763 44.0413 55.9257 44.124C56.1323 42.4707 56.2563 40.6313 56.2977 38.606C56.3803 36.5393 56.4217 34.576 56.4217 32.716V26.268ZM69.9575 29.492C69.9575 26.8053 70.4122 24.4907 71.3215 22.548C72.2308 20.6053 73.4088 19.014 74.8555 17.774C76.3435 16.4927 78.0382 15.5627 79.9395 14.984C81.8408 14.364 83.7835 14.054 85.7675 14.054C88.0409 14.054 90.0662 14.3433 91.8435 14.922C93.6622 15.4593 94.9642 16.0793 95.7495 16.782C95.4602 17.402 95.1915 18.0633 94.9435 18.766C94.7369 19.4273 94.5509 20.13 94.3855 20.874H93.8895C93.6002 20.3367 93.2075 19.7993 92.7115 19.262C92.2155 18.6833 91.6162 18.1667 90.9135 17.712C90.2522 17.216 89.5082 16.8233 88.6815 16.534C87.8548 16.2033 86.9455 16.038 85.9535 16.038C84.0935 16.038 82.4815 16.3893 81.1175 17.092C79.7948 17.7533 78.6995 18.6833 77.8315 19.882C77.0048 21.0807 76.3848 22.5067 75.9715 24.16C75.5995 25.772 75.4135 27.5287 75.4135 29.43C75.4135 33.6873 76.3228 36.9113 78.1415 39.102C79.9602 41.2513 82.6262 42.326 86.1395 42.326C86.9662 42.326 87.8135 42.2227 88.6815 42.016C89.5495 41.768 90.3968 41.458 91.2235 41.086C92.0502 40.6727 92.8149 40.1973 93.5175 39.66C94.2615 39.1227 94.9022 38.544 95.4395 37.924L95.7495 38.11C95.5429 39.102 95.4188 40.1147 95.3775 41.148C94.1375 42.14 92.5875 42.9873 90.7275 43.69C88.9088 44.3927 87.0075 44.744 85.0235 44.744C83.2462 44.744 81.4482 44.496 79.6295 44C77.8522 43.4627 76.2402 42.5947 74.7935 41.396C73.3468 40.156 72.1688 38.5647 71.2595 36.622C70.3915 34.6793 69.9575 32.3027 69.9575 29.492ZM114.846 16.038C113.316 16.038 112.014 16.3893 110.94 17.092C109.906 17.7947 109.038 18.6833 108.336 19.758C107.674 20.7913 107.158 21.9487 106.786 23.23C106.455 24.47 106.248 25.648 106.166 26.764C107.447 26.8053 108.77 26.8467 110.134 26.888C111.539 26.9293 112.903 26.95 114.226 26.95C115.59 26.95 116.974 26.9293 118.38 26.888C119.785 26.8467 121.149 26.8053 122.472 26.764C122.472 25.648 122.368 24.47 122.162 23.23C121.996 21.99 121.624 20.8327 121.046 19.758C120.508 18.6833 119.744 17.7947 118.752 17.092C117.76 16.3893 116.458 16.038 114.846 16.038ZM100.524 30.36C100.524 25.276 101.722 21.2873 104.12 18.394C106.558 15.5007 110.092 14.054 114.722 14.054C116.912 14.054 118.793 14.4053 120.364 15.108C121.976 15.7693 123.319 16.6787 124.394 17.836C125.468 18.952 126.254 20.2747 126.75 21.804C127.287 23.3333 127.556 24.966 127.556 26.702C127.556 27.1153 127.535 27.5287 127.494 27.942C127.494 28.314 127.473 28.7067 127.432 29.12C125.2 29.0787 122.988 29.0373 120.798 28.996C118.607 28.9547 116.396 28.934 114.164 28.934C112.8 28.934 111.436 28.9547 110.072 28.996C108.749 29.0373 107.406 29.0787 106.042 29.12C106 29.3267 105.98 29.6367 105.98 30.05V30.856C105.98 32.468 106.207 33.9767 106.662 35.382C107.158 36.7873 107.86 38.0067 108.77 39.04C109.679 40.032 110.795 40.838 112.118 41.458C113.44 42.0367 114.97 42.326 116.706 42.326C117.532 42.326 118.38 42.2227 119.248 42.016C120.116 41.768 120.963 41.458 121.79 41.086C122.616 40.6727 123.381 40.1973 124.084 39.66C124.828 39.1227 125.468 38.544 126.006 37.924L126.316 38.11L125.944 41.148C124.704 42.14 123.154 42.9873 121.294 43.69C119.475 44.3927 117.574 44.744 115.59 44.744C113.358 44.744 111.312 44.4133 109.452 43.752C107.633 43.0493 106.042 42.0573 104.678 40.776C103.355 39.4533 102.322 37.9033 101.578 36.126C100.875 34.3487 100.524 32.4267 100.524 30.36Z" fill="#2A4072"/>
</svg>
