<svg width="97" height="56" viewBox="0 0 97 56" fill="none" xmlns="http://www.w3.org/2000/svg">
<path d="M5.76 14.768C6.48533 14.9387 7.24267 15.024 8.032 15.024C8.69333 15.024 9.376 14.9493 10.08 14.8C10.784 14.6507 11.424 14.384 12 14C12.5973 13.5947 13.0773 13.0507 13.44 12.368C13.824 11.664 14.016 10.768 14.016 9.68C14.016 8.76267 13.888 8.016 13.632 7.44C13.376 6.864 13.0133 6.416 12.544 6.096C12.096 5.776 11.5413 5.56267 10.88 5.456C10.2187 5.328 9.472 5.264 8.64 5.264H5.76V14.768ZM3.136 12.368C3.136 10.96 3.104 9.584 3.04 8.24C2.99733 6.87467 2.944 5.488 2.88 4.08C3.392 4.12267 3.904 4.16533 4.416 4.208C4.94933 4.22933 5.472 4.24 5.984 4.24C6.24 4.24 6.54933 4.22933 6.912 4.208C7.27467 4.18667 7.63733 4.176 8 4.176C8.384 4.15467 8.74667 4.13333 9.088 4.112C9.42933 4.09067 9.71733 4.08 9.952 4.08C10.272 4.08 10.6667 4.09067 11.136 4.112C11.6053 4.13333 12.096 4.19733 12.608 4.304C13.1413 4.41067 13.664 4.57067 14.176 4.784C14.688 4.99733 15.1467 5.30667 15.552 5.712C15.9787 6.11733 16.32 6.62933 16.576 7.248C16.832 7.84533 16.96 8.592 16.96 9.488C16.96 10.896 16.6507 12.0373 16.032 12.912C15.4347 13.7867 14.688 14.4693 13.792 14.96C12.9173 15.4507 11.9787 15.7813 10.976 15.952C9.99467 16.1227 9.12 16.208 8.352 16.208C7.86133 16.208 7.41333 16.208 7.008 16.208C6.60267 16.1867 6.18667 16.1547 5.76 16.112V17.872C5.76 19.28 5.78133 20.6667 5.824 22.032C5.888 23.3973 5.952 24.7413 6.016 26.064C5.52533 26.0213 5.00267 26 4.448 26C3.89333 26 3.37067 26.0213 2.88 26.064C2.944 24.7413 2.99733 23.3973 3.04 22.032C3.104 20.6667 3.136 19.28 3.136 17.872V12.368ZM27.5413 13.488C27.4346 13.36 27.2213 13.2427 26.9013 13.136C26.6026 13.0293 26.2933 12.976 25.9733 12.976C25.4613 12.976 25.0026 13.0933 24.5973 13.328C24.1919 13.5627 23.8506 13.8827 23.5733 14.288C23.2959 14.672 23.0826 15.1413 22.9333 15.696C22.7839 16.2293 22.7093 16.8053 22.7093 17.424V20.944C22.7093 22.3733 22.7093 23.472 22.7093 24.24C22.7306 24.9867 22.7733 25.5947 22.8373 26.064C22.4106 26.0213 21.9839 26 21.5573 26C21.0879 26 20.6399 26.0213 20.2133 26.064C20.2773 25.3387 20.3093 24.3573 20.3093 23.12C20.3306 21.8613 20.3413 20.3253 20.3413 18.512V17.488C20.3413 16.656 20.3306 15.696 20.3093 14.608C20.3093 13.52 20.2773 12.272 20.2133 10.864C20.4479 10.9067 20.6719 10.9493 20.8853 10.992C21.0986 11.0133 21.3226 11.024 21.5573 11.024C21.7493 11.024 21.9519 11.0133 22.1653 10.992C22.3786 10.9493 22.6026 10.9067 22.8373 10.864C22.7519 11.632 22.6986 12.24 22.6773 12.688C22.6773 13.136 22.6773 13.5627 22.6773 13.968L22.7413 14C23.9999 11.696 25.4079 10.544 26.9653 10.544C27.1573 10.544 27.3173 10.5547 27.4453 10.576C27.5946 10.5973 27.7759 10.6507 27.9893 10.736C27.8826 10.992 27.8186 11.3867 27.7973 11.92C27.7759 12.432 27.7653 12.9013 27.7653 13.328L27.5413 13.488ZM31.2535 5.296C31.2535 4.848 31.4135 4.464 31.7335 4.144C32.0535 3.824 32.4375 3.664 32.8855 3.664C33.3335 3.664 33.7175 3.824 34.0375 4.144C34.3575 4.464 34.5175 4.848 34.5175 5.296C34.5175 5.744 34.3575 6.128 34.0375 6.448C33.7175 6.768 33.3335 6.928 32.8855 6.928C32.4375 6.928 32.0535 6.768 31.7335 6.448C31.4135 6.128 31.2535 5.744 31.2535 5.296ZM31.7015 16.848C31.7015 15.888 31.6802 14.8853 31.6375 13.84C31.6162 12.7733 31.5522 11.7813 31.4455 10.864C32.0428 10.9707 32.5228 11.024 32.8855 11.024C33.2482 11.024 33.7282 10.9707 34.3255 10.864C34.2188 11.7813 34.1442 12.7733 34.1015 13.84C34.0802 14.8853 34.0695 15.888 34.0695 16.848V20.176C34.0695 21.136 34.0802 22.1493 34.1015 23.216C34.1442 24.2613 34.2188 25.2107 34.3255 26.064C33.8348 26.0213 33.3548 26 32.8855 26C32.4162 26 31.9362 26.0213 31.4455 26.064C31.5522 25.2107 31.6162 24.2613 31.6375 23.216C31.6802 22.1493 31.7015 21.136 31.7015 20.176V16.848ZM38.6878 18.512C38.6878 17.1253 38.9224 15.9307 39.3918 14.928C39.8611 13.9253 40.4691 13.104 41.2158 12.464C41.9838 11.8027 42.8584 11.3227 43.8398 11.024C44.8211 10.704 45.8238 10.544 46.8478 10.544C48.0211 10.544 49.0664 10.6933 49.9838 10.992C50.9224 11.2693 51.5944 11.5893 51.9998 11.952C51.8504 12.272 51.7118 12.6133 51.5838 12.976C51.4771 13.3173 51.3811 13.68 51.2958 14.064H51.0398C50.8904 13.7867 50.6878 13.5093 50.4318 13.232C50.1758 12.9333 49.8664 12.6667 49.5038 12.432C49.1624 12.176 48.7784 11.9733 48.3518 11.824C47.9251 11.6533 47.4558 11.568 46.9438 11.568C45.9838 11.568 45.1518 11.7493 44.4478 12.112C43.7651 12.4533 43.1998 12.9333 42.7518 13.552C42.3251 14.1707 42.0051 14.9067 41.7918 15.76C41.5998 16.592 41.5038 17.4987 41.5038 18.48C41.5038 20.6773 41.9731 22.3413 42.9118 23.472C43.8504 24.5813 45.2264 25.136 47.0398 25.136C47.4664 25.136 47.9038 25.0827 48.3518 24.976C48.7998 24.848 49.2371 24.688 49.6638 24.496C50.0904 24.2827 50.4851 24.0373 50.8478 23.76C51.2318 23.4827 51.5624 23.184 51.8398 22.864L51.9998 22.96C51.8931 23.472 51.8291 23.9947 51.8078 24.528C51.1678 25.04 50.3678 25.4773 49.4078 25.84C48.4691 26.2027 47.4878 26.384 46.4638 26.384C45.5464 26.384 44.6184 26.256 43.6798 26C42.7624 25.7227 41.9304 25.2747 41.1838 24.656C40.4371 24.016 39.8291 23.1947 39.3598 22.192C38.9118 21.1893 38.6878 19.9627 38.6878 18.512ZM56.1598 5.296C56.1598 4.848 56.3198 4.464 56.6398 4.144C56.9598 3.824 57.3438 3.664 57.7918 3.664C58.2398 3.664 58.6238 3.824 58.9438 4.144C59.2638 4.464 59.4238 4.848 59.4238 5.296C59.4238 5.744 59.2638 6.128 58.9438 6.448C58.6238 6.768 58.2398 6.928 57.7918 6.928C57.3438 6.928 56.9598 6.768 56.6398 6.448C56.3198 6.128 56.1598 5.744 56.1598 5.296ZM56.6078 16.848C56.6078 15.888 56.5864 14.8853 56.5438 13.84C56.5224 12.7733 56.4584 11.7813 56.3518 10.864C56.9491 10.9707 57.4291 11.024 57.7918 11.024C58.1544 11.024 58.6344 10.9707 59.2318 10.864C59.1251 11.7813 59.0504 12.7733 59.0078 13.84C58.9864 14.8853 58.9758 15.888 58.9758 16.848V20.176C58.9758 21.136 58.9864 22.1493 59.0078 23.216C59.0504 24.2613 59.1251 25.2107 59.2318 26.064C58.7411 26.0213 58.2611 26 57.7918 26C57.3224 26 56.8424 26.0213 56.3518 26.064C56.4584 25.2107 56.5224 24.2613 56.5438 23.216C56.5864 22.1493 56.6078 21.136 56.6078 20.176V16.848ZM75.114 17.072C75.114 15.472 74.8047 14.2667 74.186 13.456C73.5673 12.624 72.714 12.208 71.626 12.208C70.1327 12.208 69.034 12.6667 68.33 13.584C67.6473 14.5013 67.306 15.792 67.306 17.456V20.176C67.306 21.136 67.3167 22.1493 67.338 23.216C67.3807 24.2613 67.4553 25.2107 67.562 26.064C67.0713 26.0213 66.5913 26 66.122 26C65.6527 26 65.1727 26.0213 64.682 26.064C64.7887 25.2107 64.8527 24.2613 64.874 23.216C64.9167 22.1493 64.938 21.136 64.938 20.176V16.848C64.938 15.888 64.9167 14.8853 64.874 13.84C64.8527 12.7733 64.7887 11.7813 64.682 10.864C65.2793 10.9707 65.7593 11.024 66.122 11.024C66.2927 11.024 66.474 11.0133 66.666 10.992C66.8793 10.9493 67.1247 10.9067 67.402 10.864C67.338 11.7173 67.306 12.5707 67.306 13.424H67.37C67.9673 12.5067 68.682 11.8027 69.514 11.312C70.346 10.8 71.338 10.544 72.49 10.544C73.0873 10.544 73.6847 10.6293 74.282 10.8C74.9007 10.9707 75.4553 11.2693 75.946 11.696C76.4367 12.1013 76.8313 12.6667 77.13 13.392C77.45 14.096 77.61 15.0027 77.61 16.112C77.61 17.0293 77.5887 17.9787 77.546 18.96C77.5033 19.92 77.482 20.944 77.482 22.032V24.112C77.482 24.4533 77.482 24.7947 77.482 25.136C77.5033 25.456 77.5247 25.7653 77.546 26.064C77.1193 26.0213 76.6713 26 76.202 26C75.754 26 75.3167 26.0213 74.89 26.064C74.9327 24.9547 74.9753 23.8133 75.018 22.64C75.082 21.4667 75.114 20.2613 75.114 19.024V17.072ZM92.9913 29.456C92.9913 28.176 92.6179 27.28 91.8713 26.768C91.1246 26.256 89.8873 26 88.1593 26C86.5593 26 85.3219 26.256 84.4473 26.768C83.5726 27.3013 83.1353 28.2507 83.1353 29.616C83.1353 30.3413 83.2526 30.96 83.4873 31.472C83.7433 31.984 84.0739 32.4 84.4793 32.72C84.9059 33.04 85.4073 33.2747 85.9833 33.424C86.5593 33.5733 87.1779 33.648 87.8393 33.648C88.4793 33.648 89.1086 33.5627 89.7273 33.392C90.3459 33.2213 90.8899 32.9653 91.3593 32.624C91.8499 32.2827 92.2446 31.8453 92.5433 31.312C92.8419 30.8 92.9913 30.1813 92.9913 29.456ZM91.2633 15.6C91.2633 14.256 90.9433 13.232 90.3033 12.528C89.6633 11.824 88.8206 11.472 87.7753 11.472C86.6233 11.472 85.7273 11.8667 85.0873 12.656C84.4473 13.424 84.1273 14.4587 84.1273 15.76C84.1273 17.104 84.4153 18.1707 84.9913 18.96C85.5886 19.728 86.5059 20.112 87.7433 20.112C88.3619 20.112 88.8846 19.9947 89.3113 19.76C89.7593 19.504 90.1219 19.1733 90.3993 18.768C90.6979 18.3413 90.9113 17.8613 91.0393 17.328C91.1886 16.7733 91.2633 16.1973 91.2633 15.6ZM81.6313 15.76C81.6313 14.864 81.7913 14.096 82.1113 13.456C82.4313 12.7947 82.8686 12.2507 83.4233 11.824C83.9993 11.3973 84.6499 11.0773 85.3753 10.864C86.1219 10.6507 86.9113 10.544 87.7433 10.544C88.1486 10.544 88.5326 10.5547 88.8953 10.576C89.2793 10.5973 89.7593 10.6293 90.3353 10.672C90.8259 10.7147 91.2633 10.7467 91.6473 10.768C92.0313 10.7893 92.3406 10.8 92.5753 10.8C93.7699 10.8 94.6339 10.7467 95.1673 10.64C95.1459 10.7467 95.1246 10.864 95.1033 10.992C95.1033 11.0987 95.1033 11.2053 95.1033 11.312C95.1033 11.4187 95.1033 11.536 95.1033 11.664C95.1246 11.7707 95.1459 11.8773 95.1673 11.984C94.5486 11.9413 93.9406 11.8987 93.3433 11.856C92.7673 11.792 92.1913 11.7493 91.6153 11.728L91.5513 11.792C92.2126 12.1547 92.7459 12.72 93.1513 13.488C93.5566 14.2347 93.7593 15.0133 93.7593 15.824C93.7593 17.424 93.2153 18.6827 92.1273 19.6C91.0606 20.496 89.6206 20.944 87.8073 20.944C87.5086 20.944 87.2099 20.9333 86.9113 20.912C86.6339 20.8907 86.3459 20.88 86.0473 20.88C85.6633 20.88 85.3006 21.0187 84.9593 21.296C84.6393 21.5733 84.4793 21.9253 84.4793 22.352C84.4793 22.9067 84.6073 23.312 84.8633 23.568C85.1406 23.824 85.6419 23.9627 86.3673 23.984C86.9646 24.0053 87.5513 24.0267 88.1273 24.048C88.7033 24.048 89.2899 24.0587 89.8873 24.08C90.8686 24.1013 91.7006 24.2187 92.3833 24.432C93.0873 24.6453 93.6526 24.9333 94.0793 25.296C94.5273 25.6587 94.8473 26.0747 95.0393 26.544C95.2526 27.0133 95.3593 27.5253 95.3593 28.08C95.3593 28.8267 95.2099 29.584 94.9113 30.352C94.6339 31.12 94.1859 31.8133 93.5673 32.432C92.9699 33.0507 92.1913 33.5627 91.2313 33.968C90.2713 34.3733 89.1193 34.576 87.7753 34.576C85.7059 34.576 84.0739 34.16 82.8793 33.328C81.6846 32.5173 81.0872 31.3973 81.0872 29.968C81.0872 29.4133 81.1833 28.9013 81.3753 28.432C81.5886 27.9627 81.8553 27.5467 82.1753 27.184C82.4953 26.8213 82.8579 26.5333 83.2633 26.32C83.6686 26.1067 84.0846 25.9467 84.5113 25.84V25.776C83.8499 25.584 83.3486 25.264 83.0073 24.816C82.6659 24.368 82.4953 23.8347 82.4953 23.216C82.4953 22.8533 82.5593 22.5227 82.6873 22.224C82.8366 21.9253 83.0179 21.6587 83.2313 21.424C83.4446 21.1893 83.6899 20.9973 83.9673 20.848C84.2446 20.6987 84.5113 20.6027 84.7673 20.56V20.496C83.7859 20.0693 83.0179 19.472 82.4633 18.704C81.9086 17.9147 81.6313 16.9333 81.6313 15.76Z" fill="#2A4072"/>
<line y1="48.5" x2="24" y2="48.5" stroke="#2A4072"/>
<path d="M45.69 44.242C45.718 44.2047 45.76 44.1487 45.816 44.074C45.872 43.99 45.9187 43.9293 45.956 43.892C46.0027 43.8453 46.0447 43.822 46.082 43.822C46.1567 43.822 46.3433 43.9527 46.642 44.214C46.95 44.466 47.1367 44.6573 47.202 44.788C47.2113 44.8347 47.2113 44.8813 47.202 44.928C47.146 45.0307 47.0387 45.082 46.88 45.082H41.714C41.1727 45.9593 40.5753 46.6593 39.922 47.182C39.866 47.2287 39.81 47.224 39.754 47.168L39.74 47.154C39.6933 47.1073 39.6887 47.056 39.726 47C40.0993 46.5333 40.4773 45.9127 40.86 45.138C41.0467 44.7367 41.2147 44.2653 41.364 43.724C41.5227 43.1733 41.6207 42.6973 41.658 42.296C41.6767 42.212 41.7233 42.184 41.798 42.212C42.274 42.3707 42.6053 42.4967 42.792 42.59C42.988 42.674 43.086 42.744 43.086 42.8C43.086 42.828 43.044 42.8607 42.96 42.898L42.708 42.996C42.5213 43.5187 42.2693 44.074 41.952 44.662H45.41L45.69 44.242ZM45.83 46.86C45.858 46.832 45.9 46.776 45.956 46.692C46.0213 46.608 46.082 46.566 46.138 46.566C46.2127 46.566 46.362 46.6733 46.586 46.888C46.8193 47.0933 46.9687 47.2613 47.034 47.392C47.0527 47.4293 47.0387 47.4713 46.992 47.518C46.9173 47.5833 46.768 47.63 46.544 47.658C46.544 49.058 46.5113 50.0473 46.446 50.626C46.3807 51.2047 46.2547 51.5873 46.068 51.774C45.8813 51.9793 45.6013 52.096 45.228 52.124C45.1533 52.124 45.116 52.0867 45.116 52.012C45.0973 51.7973 45.046 51.6387 44.962 51.536C44.8967 51.452 44.7427 51.3773 44.5 51.312C44.4347 51.3027 44.402 51.2653 44.402 51.2V51.172C44.402 51.0973 44.4393 51.06 44.514 51.06C44.7567 51.088 44.99 51.102 45.214 51.102C45.3727 51.102 45.48 51.074 45.536 51.018C45.62 50.9153 45.676 50.612 45.704 50.108C45.7413 49.604 45.7647 48.7593 45.774 47.574L44.178 48.176V49.688C44.206 50.9387 44.2387 51.8907 44.276 52.544C44.276 52.5813 44.262 52.6233 44.234 52.67C44.1687 52.754 44.0707 52.8287 43.94 52.894C43.8093 52.9593 43.6787 52.992 43.548 52.992C43.4733 52.992 43.408 52.964 43.352 52.908C43.296 52.852 43.268 52.7867 43.268 52.712C43.3333 51.8813 43.3753 50.9713 43.394 49.982V48.47L41.938 49.016V53.594C41.938 53.7527 41.9847 53.8647 42.078 53.93C42.1807 53.986 42.3907 54.014 42.708 54.014H44.402C45.2607 54.014 45.788 54 45.984 53.972C46.0773 53.9627 46.1427 53.9533 46.18 53.944C46.2267 53.9253 46.2687 53.8927 46.306 53.846C46.418 53.706 46.5393 53.328 46.67 52.712C46.6793 52.6467 46.7213 52.614 46.796 52.614C46.852 52.614 46.88 52.6513 46.88 52.726L46.908 53.86C47.0667 53.9067 47.174 53.958 47.23 54.014C47.2953 54.07 47.328 54.1447 47.328 54.238C47.328 54.3873 47.2487 54.4993 47.09 54.574C46.9407 54.658 46.656 54.714 46.236 54.742C45.8253 54.7793 45.2047 54.798 44.374 54.798H42.624C42.232 54.798 41.9333 54.7653 41.728 54.7C41.5227 54.644 41.378 54.5413 41.294 54.392C41.21 54.252 41.168 54.0467 41.168 53.776V49.31L39.908 49.786C39.8613 49.8047 39.8147 49.7907 39.768 49.744L39.6 49.534C39.5347 50.9713 39.4273 52.0913 39.278 52.894C39.138 53.6873 38.9467 54.2147 38.704 54.476C38.564 54.6347 38.3867 54.756 38.172 54.84C37.9667 54.9333 37.7427 54.9847 37.5 54.994C37.4253 54.994 37.388 54.9567 37.388 54.882C37.3693 54.6487 37.2993 54.476 37.178 54.364C37.0567 54.2427 36.7533 54.1353 36.268 54.042C36.1933 54.0233 36.156 53.9813 36.156 53.916V53.888C36.156 53.8507 36.1653 53.8227 36.184 53.804C36.212 53.7853 36.2447 53.7807 36.282 53.79C37.0007 53.8553 37.458 53.888 37.654 53.888C37.7753 53.888 37.8687 53.8787 37.934 53.86C37.9993 53.8413 38.0647 53.7993 38.13 53.734C38.494 53.3513 38.7273 51.4147 38.83 47.924H37.346C37.2527 49.4173 37.0333 50.7427 36.688 51.9C36.3427 53.0573 35.7687 54.084 34.966 54.98C34.91 55.036 34.854 55.036 34.798 54.98L34.728 54.91C34.6813 54.8633 34.6767 54.812 34.714 54.756C35.2553 53.9347 35.652 53.02 35.904 52.012C36.1653 51.004 36.324 50.0193 36.38 49.058C36.436 48.0967 36.4687 46.8787 36.478 45.404H35.96C35.7173 45.4133 35.4513 45.4647 35.162 45.558C35.0967 45.586 35.05 45.5673 35.022 45.502L34.784 45.026C34.7747 45.0167 34.77 44.998 34.77 44.97C34.77 44.9233 34.8027 44.9 34.868 44.9C35.316 44.9467 35.8153 44.9793 36.366 44.998H37.136C37.136 44.0553 37.0847 43.2013 36.982 42.436C36.982 42.3427 37.0287 42.31 37.122 42.338C37.5793 42.478 37.8967 42.59 38.074 42.674C38.2513 42.7487 38.34 42.8187 38.34 42.884C38.34 42.912 38.3027 42.954 38.228 43.01L38.018 43.15V44.998H38.872L39.152 44.578C39.18 44.5313 39.222 44.4707 39.278 44.396C39.3433 44.312 39.3947 44.2513 39.432 44.214C39.4693 44.1673 39.5067 44.144 39.544 44.144C39.6187 44.144 39.8007 44.2747 40.09 44.536C40.3887 44.788 40.5707 44.984 40.636 45.124L40.65 45.18C40.65 45.2547 40.6173 45.3107 40.552 45.348C40.4867 45.3853 40.4027 45.404 40.3 45.404H37.43C37.4113 46.356 37.388 47.0653 37.36 47.532H38.704L38.914 47.252C38.942 47.2147 38.9887 47.1587 39.054 47.084C39.1193 47 39.18 46.958 39.236 46.958C39.32 46.958 39.4787 47.056 39.712 47.252C39.9453 47.448 40.0947 47.6113 40.16 47.742C40.188 47.7793 40.1787 47.8213 40.132 47.868C40.048 47.952 39.8893 48.008 39.656 48.036C39.6373 48.6613 39.6187 49.128 39.6 49.436L41.168 48.848V47.644C41.168 47.2053 41.1493 46.832 41.112 46.524C41.112 46.4307 41.1587 46.4027 41.252 46.44C41.9333 46.6733 42.274 46.8507 42.274 46.972C42.274 47.0187 42.2367 47.0653 42.162 47.112L41.938 47.252V48.554L43.394 48.008V46.748C43.394 46.2907 43.3753 45.8987 43.338 45.572C43.338 45.4787 43.3847 45.446 43.478 45.474C43.87 45.6047 44.1453 45.712 44.304 45.796C44.4627 45.8707 44.542 45.9407 44.542 46.006C44.542 46.0433 44.5 46.0947 44.416 46.16L44.178 46.314V47.714L45.578 47.182L45.634 47.154L45.83 46.86ZM51.976 43.136C51.6307 43.668 51.192 44.2233 50.66 44.802C50.1373 45.3713 49.596 45.866 49.036 46.286C48.9707 46.3327 48.9193 46.328 48.882 46.272C48.8353 46.2253 48.8353 46.1693 48.882 46.104C49.274 45.6653 49.6193 45.2127 49.918 44.746C50.1607 44.382 50.3847 43.9807 50.59 43.542C50.8047 43.1033 50.9633 42.6973 51.066 42.324C51.0753 42.2867 51.0893 42.2633 51.108 42.254C51.136 42.2447 51.1687 42.2493 51.206 42.268L51.85 42.66C52.2047 42.8 52.382 42.912 52.382 42.996C52.382 43.0427 52.3307 43.0753 52.228 43.094L51.976 43.136ZM55.378 45.656V51.298C55.3967 52.4553 55.434 53.5287 55.49 54.518C55.49 54.5647 55.476 54.6067 55.448 54.644C55.3733 54.7373 55.2613 54.8213 55.112 54.896C54.972 54.9707 54.832 55.008 54.692 55.008C54.608 55.008 54.5333 54.98 54.468 54.924C54.4027 54.868 54.37 54.8027 54.37 54.728C54.4073 54.1773 54.44 53.6453 54.468 53.132C54.496 52.6093 54.5147 51.928 54.524 51.088V45.656H53.838C53.4647 45.6653 53.0867 45.7213 52.704 45.824C52.6293 45.8427 52.5827 45.824 52.564 45.768L52.312 45.278L52.298 45.222C52.298 45.166 52.3353 45.1473 52.41 45.166C52.858 45.2127 53.3153 45.2407 53.782 45.25H54.524C54.524 44.2327 54.4727 43.3273 54.37 42.534V42.506C54.37 42.4313 54.412 42.408 54.496 42.436C55.308 42.6787 55.714 42.8607 55.714 42.982C55.714 43.0287 55.6767 43.0753 55.602 43.122L55.378 43.276V45.25H56.316L56.568 44.914C56.596 44.886 56.6427 44.8253 56.708 44.732C56.7827 44.6387 56.848 44.5827 56.904 44.564C56.848 44.5453 56.806 44.522 56.778 44.494C56.7407 44.4753 56.7127 44.4333 56.694 44.368C56.6567 44.1627 56.5727 43.9387 56.442 43.696C56.3113 43.444 56.1713 43.22 56.022 43.024C55.9847 42.9587 55.9893 42.9073 56.036 42.87C56.0733 42.842 56.1247 42.8373 56.19 42.856C56.6193 43.0333 56.932 43.2387 57.128 43.472C57.3333 43.7053 57.436 43.9247 57.436 44.13C57.436 44.2607 57.3987 44.3727 57.324 44.466C57.2493 44.55 57.156 44.592 57.044 44.592H57.016C57.1467 44.648 57.3193 44.7647 57.534 44.942C57.758 45.1193 57.898 45.2593 57.954 45.362C57.9633 45.4087 57.9587 45.4507 57.94 45.488C57.9027 45.6 57.8 45.656 57.632 45.656H55.378ZM59.76 44.06C59.144 44.0787 58.5607 44.1393 58.01 44.242H57.968C57.9307 44.242 57.898 44.2187 57.87 44.172L57.618 43.696L57.604 43.64C57.604 43.5747 57.6413 43.5513 57.716 43.57C57.9587 43.6073 58.3227 43.6353 58.808 43.654H59.396L59.662 43.248C59.69 43.2107 59.7273 43.1547 59.774 43.08C59.83 42.996 59.8767 42.9353 59.914 42.898C59.9513 42.8607 59.9887 42.842 60.026 42.842C60.1007 42.842 60.2827 42.9633 60.572 43.206C60.8613 43.4487 61.0387 43.6353 61.104 43.766C61.1133 43.7847 61.118 43.808 61.118 43.836C61.118 43.9107 61.0853 43.9667 61.02 44.004C60.9547 44.0413 60.8753 44.06 60.782 44.06H59.76ZM51.122 47.742C51.4207 47.9753 51.57 48.148 51.57 48.26C51.57 48.3067 51.528 48.3533 51.444 48.4L51.248 48.484V51.424C51.2667 52.5907 51.304 53.6593 51.36 54.63C51.36 54.686 51.3413 54.7327 51.304 54.77C51.22 54.854 51.108 54.924 50.968 54.98C50.828 55.0453 50.6927 55.078 50.562 55.078C50.4873 55.078 50.4173 55.05 50.352 54.994C50.2867 54.938 50.254 54.8727 50.254 54.798C50.2913 54.2473 50.324 53.7153 50.352 53.202C50.38 52.6793 50.3987 51.998 50.408 51.158V48.708C49.904 49.3333 49.414 49.8607 48.938 50.29C48.882 50.3367 48.8307 50.3367 48.784 50.29L48.756 50.262C48.7093 50.2153 48.7093 50.164 48.756 50.108C49.2693 49.4453 49.7547 48.6847 50.212 47.826C50.4173 47.434 50.604 47.0187 50.772 46.58C50.9493 46.132 51.08 45.7213 51.164 45.348C51.1733 45.264 51.2247 45.2453 51.318 45.292C52.0927 45.6747 52.48 45.9267 52.48 46.048C52.48 46.076 52.438 46.0993 52.354 46.118L52.102 46.16C51.822 46.664 51.4953 47.1913 51.122 47.742ZM60.208 45.964C60.2827 45.964 60.4647 46.09 60.754 46.342C61.0527 46.594 61.2347 46.7853 61.3 46.916C61.3093 46.9627 61.3047 47.0093 61.286 47.056C61.23 47.1587 61.1227 47.21 60.964 47.21H59.844V53.762C59.844 54.154 59.7647 54.4527 59.606 54.658C59.4473 54.8727 59.1253 55.0173 58.64 55.092H58.612C58.5653 55.092 58.5327 55.0593 58.514 54.994C58.486 54.742 58.4067 54.5647 58.276 54.462C58.108 54.3127 57.7953 54.2053 57.338 54.14C57.2633 54.1213 57.226 54.084 57.226 54.028C57.226 53.9627 57.254 53.93 57.31 53.93C57.4407 53.93 57.576 53.9347 57.716 53.944C57.8653 53.9533 58.0053 53.9627 58.136 53.972L58.696 54C58.808 54 58.8827 53.9813 58.92 53.944C58.9573 53.9067 58.976 53.8367 58.976 53.734V47.21H58.43C58.1407 47.2193 57.856 47.2753 57.576 47.378H57.534C57.4967 47.378 57.464 47.3547 57.436 47.308L57.184 46.818C57.1747 46.8087 57.17 46.79 57.17 46.762C57.17 46.7153 57.2073 46.692 57.282 46.692C57.7207 46.7387 58.2153 46.7713 58.766 46.79H59.536L59.816 46.384C59.844 46.3467 59.886 46.2907 59.942 46.216C59.998 46.132 60.0447 46.0713 60.082 46.034C60.1287 45.9873 60.1707 45.964 60.208 45.964ZM57.52 50.542C57.52 50.878 57.4687 51.1533 57.366 51.368C57.2727 51.5733 57.1607 51.676 57.03 51.676C56.946 51.676 56.862 51.6247 56.778 51.522C56.75 51.4753 56.736 51.4333 56.736 51.396C56.6333 49.576 56.3487 48.176 55.882 47.196L55.868 47.14C55.868 47.1027 55.8913 47.07 55.938 47.042L55.952 47.028L55.994 47.014C56.05 47.014 56.1107 47.056 56.176 47.14C56.6427 47.7653 56.9833 48.372 57.198 48.96C57.4127 49.548 57.52 50.0753 57.52 50.542ZM52.9 47.14C52.9 47.1027 52.9093 47.0793 52.928 47.07C52.956 47.0513 52.984 47.0467 53.012 47.056L53.712 47.224C54.076 47.252 54.258 47.308 54.258 47.392C54.258 47.4293 54.2113 47.4807 54.118 47.546L53.88 47.686C53.5253 49.8887 52.9653 51.5593 52.2 52.698C52.1907 52.7353 52.1673 52.7587 52.13 52.768C52.102 52.768 52.074 52.7587 52.046 52.74L52.018 52.712C51.9713 52.6653 51.9573 52.614 51.976 52.558C52.2747 51.7647 52.508 50.9387 52.676 50.08C52.7507 49.7253 52.8067 49.3287 52.844 48.89C52.8907 48.442 52.914 48.0313 52.914 47.658L52.9 47.154V47.14ZM67.544 47.182C67.572 47.1353 67.6093 47.0793 67.656 47.014C67.712 46.9393 67.754 46.8833 67.782 46.846C67.8193 46.8087 67.8567 46.79 67.894 46.79C67.978 46.79 68.1553 46.9067 68.426 47.14C68.6967 47.364 68.8647 47.5413 68.93 47.672C68.9393 47.7187 68.9393 47.7653 68.93 47.812C68.874 47.9147 68.762 47.966 68.594 47.966H66.284V48.904C67.0867 49.1373 67.6747 49.4407 68.048 49.814C68.4307 50.178 68.622 50.528 68.622 50.864C68.622 51.0133 68.5847 51.1347 68.51 51.228C68.4353 51.3213 68.3373 51.368 68.216 51.368C68.1227 51.368 68.034 51.3447 67.95 51.298C67.9313 51.2887 67.8987 51.2513 67.852 51.186C67.7493 50.8593 67.5487 50.5093 67.25 50.136C66.9513 49.7533 66.6293 49.422 66.284 49.142V51.368C66.3027 52.5253 66.34 53.5987 66.396 54.588C66.396 54.6347 66.382 54.6767 66.354 54.714C66.2793 54.8167 66.172 54.9007 66.032 54.966C65.892 55.0407 65.752 55.078 65.612 55.078C65.5373 55.078 65.4673 55.05 65.402 54.994C65.346 54.938 65.318 54.8727 65.318 54.798C65.3553 54.2847 65.3833 53.7807 65.402 53.286C65.43 52.782 65.4487 52.1473 65.458 51.382V49.52C64.8327 50.8267 64.0207 51.9327 63.022 52.838C62.966 52.894 62.9147 52.8893 62.868 52.824L62.854 52.81C62.8073 52.7633 62.8027 52.7073 62.84 52.642C63.3347 52.0073 63.7687 51.2887 64.142 50.486C64.5153 49.6833 64.814 48.8433 65.038 47.966H64.31C63.918 47.9753 63.5307 48.0313 63.148 48.134C63.0733 48.1527 63.0267 48.134 63.008 48.078L62.756 47.588C62.7467 47.5787 62.742 47.56 62.742 47.532C62.742 47.4853 62.7747 47.462 62.84 47.462C63.3533 47.5087 63.9227 47.5413 64.548 47.56H65.458V45.096C65.458 44.0787 65.4067 43.1687 65.304 42.366V42.338C65.304 42.2633 65.346 42.24 65.43 42.268C65.8873 42.408 66.2047 42.52 66.382 42.604C66.5593 42.688 66.648 42.7627 66.648 42.828C66.648 42.884 66.606 42.9353 66.522 42.982L66.284 43.136V47.56H67.292L67.544 47.182ZM73.97 49.912C73.9887 49.8653 74.0167 49.7953 74.054 49.702C74.1007 49.5993 74.138 49.5247 74.166 49.478C74.2033 49.422 74.2407 49.394 74.278 49.394C74.334 49.394 74.4553 49.45 74.642 49.562C74.838 49.674 75.0153 49.7953 75.174 49.926C75.342 50.0567 75.426 50.1547 75.426 50.22C75.426 50.2947 75.398 50.36 75.342 50.416C75.2953 50.472 75.23 50.5093 75.146 50.528L73.41 50.92V52.194C73.438 53.2487 73.4707 54.042 73.508 54.574C73.508 54.63 73.494 54.6767 73.466 54.714C73.4007 54.8073 73.2933 54.8913 73.144 54.966C73.004 55.0407 72.864 55.078 72.724 55.078C72.64 55.078 72.57 55.05 72.514 54.994C72.458 54.938 72.43 54.8727 72.43 54.798C72.486 54.014 72.5233 53.23 72.542 52.446V51.116L68.748 51.956H68.706C68.6687 51.956 68.636 51.9327 68.608 51.886L68.538 51.732C68.5287 51.7227 68.524 51.704 68.524 51.676C68.524 51.6293 68.552 51.6013 68.608 51.592L72.542 50.696V45.096C72.542 44.0787 72.4907 43.1687 72.388 42.366V42.338C72.388 42.2633 72.43 42.24 72.514 42.268C72.9807 42.408 73.3027 42.5247 73.48 42.618C73.6667 42.702 73.76 42.7767 73.76 42.842C73.76 42.8887 73.7227 42.9353 73.648 42.982L73.41 43.136V50.5L73.774 50.416L73.97 49.912ZM67.418 43.402C67.4367 43.3273 67.4833 43.304 67.558 43.332L68.244 43.612C68.6173 43.7053 68.804 43.794 68.804 43.878C68.804 43.9247 68.7573 43.9713 68.664 44.018L68.44 44.116C67.8987 45.1613 67.4367 45.9687 67.054 46.538C67.0073 46.594 66.956 46.608 66.9 46.58L66.858 46.566C66.802 46.538 66.7833 46.4867 66.802 46.412L66.886 46.16C67.0073 45.7493 67.1147 45.2873 67.208 44.774C67.3107 44.2607 67.3807 43.8033 67.418 43.402ZM63.05 43.626C63.0313 43.598 63.0267 43.57 63.036 43.542C63.0453 43.514 63.0593 43.4953 63.078 43.486C63.1433 43.4673 63.1947 43.4767 63.232 43.514C63.7173 43.8873 64.072 44.27 64.296 44.662C64.52 45.054 64.632 45.4087 64.632 45.726C64.632 45.9407 64.5853 46.1133 64.492 46.244C64.408 46.3653 64.3007 46.426 64.17 46.426C64.0767 46.426 63.974 46.384 63.862 46.3C63.8247 46.2627 63.806 46.216 63.806 46.16C63.7873 45.7773 63.7033 45.3573 63.554 44.9C63.414 44.4333 63.246 44.0087 63.05 43.626ZM69.462 43.794C69.3873 43.7567 69.378 43.71 69.434 43.654C69.4807 43.6073 69.5273 43.598 69.574 43.626C70.3113 43.822 70.8573 44.0927 71.212 44.438C71.576 44.774 71.758 45.1007 71.758 45.418C71.758 45.5673 71.7207 45.6887 71.646 45.782C71.5713 45.866 71.4733 45.908 71.352 45.908C71.2493 45.908 71.1607 45.8847 71.086 45.838C71.0393 45.8193 71.0113 45.782 71.002 45.726C70.8993 45.418 70.6987 45.0867 70.4 44.732C70.1107 44.3773 69.798 44.0647 69.462 43.794ZM69.126 47.07C69.0607 47.0233 69.0513 46.9767 69.098 46.93C69.1353 46.8833 69.1867 46.8647 69.252 46.874C70.0267 47.042 70.6007 47.294 70.974 47.63C71.3473 47.966 71.534 48.2927 71.534 48.61C71.534 48.7593 71.4967 48.8807 71.422 48.974C71.3473 49.058 71.2493 49.1 71.128 49.1C71.0347 49.1 70.9507 49.0813 70.876 49.044C70.8387 49.0253 70.806 48.988 70.778 48.932C70.6567 48.624 70.4373 48.2973 70.12 47.952C69.812 47.6067 69.4807 47.3127 69.126 47.07ZM83.504 42.828C84.0733 43.64 84.862 44.4053 85.87 45.124C86.8873 45.8333 88.0027 46.4353 89.216 46.93C89.272 46.958 89.3 47.0047 89.3 47.07V47.084C89.2813 47.14 89.244 47.182 89.188 47.21C89.0293 47.2567 88.8893 47.336 88.768 47.448C88.6467 47.56 88.558 47.686 88.502 47.826C88.474 47.91 88.4227 47.9287 88.348 47.882C87.2373 47.294 86.2247 46.5707 85.31 45.712C84.3953 44.8533 83.7047 43.948 83.238 42.996C82.594 43.976 81.6793 44.97 80.494 45.978C79.3087 46.986 78.1047 47.784 76.882 48.372C76.854 48.3907 76.826 48.3953 76.798 48.386C76.7793 48.3767 76.7607 48.358 76.742 48.33C76.7327 48.3207 76.728 48.302 76.728 48.274C76.728 48.2367 76.7467 48.204 76.784 48.176C77.512 47.7373 78.268 47.1727 79.052 46.482C79.836 45.782 80.5267 45.0633 81.124 44.326C81.7213 43.57 82.1087 42.8373 82.286 42.128C82.2953 42.0627 82.342 42.0393 82.426 42.058L83.924 42.534C83.9613 42.5433 83.9893 42.5573 84.008 42.576C84.0267 42.5853 84.0313 42.5993 84.022 42.618C83.966 42.7487 83.7933 42.8187 83.504 42.828ZM86.878 49.184C86.906 49.1467 86.948 49.0907 87.004 49.016C87.06 48.932 87.1067 48.8713 87.144 48.834C87.1907 48.7873 87.2327 48.764 87.27 48.764C87.3447 48.764 87.536 48.89 87.844 49.142C88.152 49.394 88.3433 49.5853 88.418 49.716C88.4273 49.7627 88.4227 49.8093 88.404 49.856C88.348 49.9493 88.2407 49.996 88.082 49.996H83.392V54.252H87.06L87.368 53.804C87.396 53.7667 87.4427 53.706 87.508 53.622C87.5733 53.5287 87.6247 53.4633 87.662 53.426C87.7087 53.3793 87.7507 53.356 87.788 53.356C87.8627 53.356 88.0633 53.4913 88.39 53.762C88.7167 54.0327 88.9173 54.238 88.992 54.378C89.0013 54.4247 88.9967 54.4713 88.978 54.518C88.922 54.6113 88.8053 54.658 88.628 54.658H79.402C78.8047 54.6673 78.1373 54.728 77.4 54.84H77.358C77.3207 54.84 77.288 54.8167 77.26 54.77L77.008 54.28C76.9987 54.2707 76.994 54.252 76.994 54.224C76.994 54.1773 77.0267 54.154 77.092 54.154C77.6053 54.2007 78.1747 54.2333 78.8 54.252H82.482V49.996H80.046C79.4487 50.0053 78.7813 50.066 78.044 50.178H78.002C77.9647 50.178 77.932 50.1547 77.904 50.108L77.652 49.632C77.6427 49.6227 77.638 49.604 77.638 49.576C77.638 49.5293 77.6753 49.506 77.75 49.506C78.254 49.5527 78.8187 49.5853 79.444 49.604H82.482V47.364H81.544C80.984 47.3733 80.4567 47.434 79.962 47.546H79.92C79.8827 47.546 79.85 47.5227 79.822 47.476L79.57 46.986C79.5607 46.9767 79.556 46.958 79.556 46.93C79.556 46.8833 79.5887 46.86 79.654 46.86C80.1673 46.9067 80.7367 46.9393 81.362 46.958H84.484L84.75 46.594C84.7873 46.5473 84.8247 46.496 84.862 46.44C84.9087 46.384 84.9553 46.3327 85.002 46.286C85.0487 46.2393 85.0907 46.216 85.128 46.216C85.2027 46.216 85.38 46.328 85.66 46.552C85.9493 46.776 86.1267 46.9487 86.192 47.07C86.2013 47.1167 86.2013 47.1633 86.192 47.21C86.136 47.3127 86.024 47.364 85.856 47.364H83.392V49.604H86.584L86.878 49.184ZM85.604 50.5C85.6133 50.4253 85.66 50.402 85.744 50.43L86.43 50.78C86.8033 50.892 86.99 50.99 86.99 51.074C86.99 51.13 86.9387 51.172 86.836 51.2L86.584 51.27C86.2947 51.7273 85.9773 52.18 85.632 52.628C85.2867 53.0667 84.9553 53.44 84.638 53.748C84.5913 53.7947 84.54 53.7993 84.484 53.762L84.456 53.734C84.4 53.6967 84.386 53.6453 84.414 53.58L84.638 53.174C84.8433 52.7727 85.0347 52.32 85.212 51.816C85.3987 51.312 85.5293 50.8733 85.604 50.5ZM79.234 50.752C79.1873 50.6867 79.1967 50.64 79.262 50.612C79.318 50.584 79.374 50.584 79.43 50.612C80.0273 51.004 80.4613 51.41 80.732 51.83C81.012 52.25 81.152 52.6327 81.152 52.978C81.152 53.1833 81.1053 53.3513 81.012 53.482C80.9187 53.6127 80.802 53.678 80.662 53.678C80.55 53.678 80.4333 53.6313 80.312 53.538C80.2747 53.5007 80.256 53.454 80.256 53.398C80.228 52.9967 80.116 52.558 79.92 52.082C79.724 51.5967 79.4953 51.1533 79.234 50.752Z" fill="#2A4072"/>
</svg>
