<svg width="219" height="60" viewBox="0 0 219 60" fill="none" xmlns="http://www.w3.org/2000/svg">
<path d="M154.25 33H217.25L211.25 27" stroke="#2A4072"/>
<path d="M7.878 26.234C7.914 26.174 7.962 26.102 8.022 26.018C8.094 25.922 8.148 25.85 8.184 25.802C8.232 25.754 8.28 25.73 8.328 25.73C8.436 25.73 8.664 25.88 9.012 26.18C9.36 26.468 9.576 26.696 9.66 26.864C9.672 26.924 9.672 26.984 9.66 27.044C9.588 27.176 9.444 27.242 9.228 27.242H6.258V28.448C7.29 28.748 8.046 29.138 8.526 29.618C9.018 30.086 9.264 30.536 9.264 30.968C9.264 31.16 9.216 31.316 9.12 31.436C9.024 31.556 8.898 31.616 8.742 31.616C8.622 31.616 8.508 31.586 8.4 31.526C8.376 31.514 8.334 31.466 8.274 31.382C8.142 30.962 7.884 30.512 7.5 30.032C7.116 29.54 6.702 29.114 6.258 28.754V31.616C6.282 33.104 6.33 34.484 6.402 35.756C6.402 35.816 6.384 35.87 6.348 35.918C6.252 36.05 6.114 36.158 5.934 36.242C5.754 36.338 5.574 36.386 5.394 36.386C5.298 36.386 5.208 36.35 5.124 36.278C5.052 36.206 5.016 36.122 5.016 36.026C5.064 35.366 5.1 34.718 5.124 34.082C5.16 33.434 5.184 32.618 5.196 31.634V29.24C4.392 30.92 3.348 32.342 2.064 33.506C1.992 33.578 1.926 33.572 1.866 33.488L1.848 33.47C1.788 33.41 1.782 33.338 1.83 33.254C2.466 32.438 3.024 31.514 3.504 30.482C3.984 29.45 4.368 28.37 4.656 27.242H3.72C3.216 27.254 2.718 27.326 2.226 27.458C2.13 27.482 2.07 27.458 2.046 27.386L1.722 26.756C1.71 26.744 1.704 26.72 1.704 26.684C1.704 26.624 1.746 26.594 1.83 26.594C2.49 26.654 3.222 26.696 4.026 26.72H5.196V23.552C5.196 22.244 5.13 21.074 4.998 20.042V20.006C4.998 19.91 5.052 19.88 5.16 19.916C5.748 20.096 6.156 20.24 6.384 20.348C6.612 20.456 6.726 20.552 6.726 20.636C6.726 20.708 6.672 20.774 6.564 20.834L6.258 21.032V26.72H7.554L7.878 26.234ZM16.14 29.744C16.164 29.684 16.2 29.594 16.248 29.474C16.308 29.342 16.356 29.246 16.392 29.186C16.44 29.114 16.488 29.078 16.536 29.078C16.608 29.078 16.764 29.15 17.004 29.294C17.256 29.438 17.484 29.594 17.688 29.762C17.904 29.93 18.012 30.056 18.012 30.14C18.012 30.236 17.976 30.32 17.904 30.392C17.844 30.464 17.76 30.512 17.652 30.536L15.42 31.04V32.678C15.456 34.034 15.498 35.054 15.546 35.738C15.546 35.81 15.528 35.87 15.492 35.918C15.408 36.038 15.27 36.146 15.078 36.242C14.898 36.338 14.718 36.386 14.538 36.386C14.43 36.386 14.34 36.35 14.268 36.278C14.196 36.206 14.16 36.122 14.16 36.026C14.232 35.018 14.28 34.01 14.304 33.002V31.292L9.426 32.372H9.372C9.324 32.372 9.282 32.342 9.246 32.282L9.156 32.084C9.144 32.072 9.138 32.048 9.138 32.012C9.138 31.952 9.174 31.916 9.246 31.904L14.304 30.752V23.552C14.304 22.244 14.238 21.074 14.106 20.042V20.006C14.106 19.91 14.16 19.88 14.268 19.916C14.868 20.096 15.282 20.246 15.51 20.366C15.75 20.474 15.87 20.57 15.87 20.654C15.87 20.714 15.822 20.774 15.726 20.834L15.42 21.032V30.5L15.888 30.392L16.14 29.744ZM7.716 21.374C7.74 21.278 7.8 21.248 7.896 21.284L8.778 21.644C9.258 21.764 9.498 21.878 9.498 21.986C9.498 22.046 9.438 22.106 9.318 22.166L9.03 22.292C8.334 23.636 7.74 24.674 7.248 25.406C7.188 25.478 7.122 25.496 7.05 25.46L6.996 25.442C6.924 25.406 6.9 25.34 6.924 25.244L7.032 24.92C7.188 24.392 7.326 23.798 7.446 23.138C7.578 22.478 7.668 21.89 7.716 21.374ZM2.1 21.662C2.076 21.626 2.07 21.59 2.082 21.554C2.094 21.518 2.112 21.494 2.136 21.482C2.22 21.458 2.286 21.47 2.334 21.518C2.958 21.998 3.414 22.49 3.702 22.994C3.99 23.498 4.134 23.954 4.134 24.362C4.134 24.638 4.074 24.86 3.954 25.028C3.846 25.184 3.708 25.262 3.54 25.262C3.42 25.262 3.288 25.208 3.144 25.1C3.096 25.052 3.072 24.992 3.072 24.92C3.048 24.428 2.94 23.888 2.748 23.3C2.568 22.7 2.352 22.154 2.1 21.662ZM10.344 21.878C10.248 21.83 10.236 21.77 10.308 21.698C10.368 21.638 10.428 21.626 10.488 21.662C11.436 21.914 12.138 22.262 12.594 22.706C13.062 23.138 13.296 23.558 13.296 23.966C13.296 24.158 13.248 24.314 13.152 24.434C13.056 24.542 12.93 24.596 12.774 24.596C12.642 24.596 12.528 24.566 12.432 24.506C12.372 24.482 12.336 24.434 12.324 24.362C12.192 23.966 11.934 23.54 11.55 23.084C11.178 22.628 10.776 22.226 10.344 21.878ZM9.912 26.09C9.828 26.03 9.816 25.97 9.876 25.91C9.924 25.85 9.99 25.826 10.074 25.838C11.07 26.054 11.808 26.378 12.288 26.81C12.768 27.242 13.008 27.662 13.008 28.07C13.008 28.262 12.96 28.418 12.864 28.538C12.768 28.646 12.642 28.7 12.486 28.7C12.366 28.7 12.258 28.676 12.162 28.628C12.114 28.604 12.072 28.556 12.036 28.484C11.88 28.088 11.598 27.668 11.19 27.224C10.794 26.78 10.368 26.402 9.912 26.09ZM28.398 20.636C29.13 21.68 30.144 22.664 31.44 23.588C32.748 24.5 34.182 25.274 35.742 25.91C35.814 25.946 35.85 26.006 35.85 26.09V26.108C35.826 26.18 35.778 26.234 35.706 26.27C35.502 26.33 35.322 26.432 35.166 26.576C35.01 26.72 34.896 26.882 34.824 27.062C34.788 27.17 34.722 27.194 34.626 27.134C33.198 26.378 31.896 25.448 30.72 24.344C29.544 23.24 28.656 22.076 28.056 20.852C27.228 22.112 26.052 23.39 24.528 24.686C23.004 25.982 21.456 27.008 19.884 27.764C19.848 27.788 19.812 27.794 19.776 27.782C19.752 27.77 19.728 27.746 19.704 27.71C19.692 27.698 19.686 27.674 19.686 27.638C19.686 27.59 19.71 27.548 19.758 27.512C20.694 26.948 21.666 26.222 22.674 25.334C23.682 24.434 24.57 23.51 25.338 22.562C26.106 21.59 26.604 20.648 26.832 19.736C26.844 19.652 26.904 19.622 27.012 19.646L28.938 20.258C28.986 20.27 29.022 20.288 29.046 20.312C29.07 20.324 29.076 20.342 29.064 20.366C28.992 20.534 28.77 20.624 28.398 20.636ZM32.736 28.808C32.772 28.76 32.826 28.688 32.898 28.592C32.97 28.484 33.03 28.406 33.078 28.358C33.138 28.298 33.192 28.268 33.24 28.268C33.336 28.268 33.582 28.43 33.978 28.754C34.374 29.078 34.62 29.324 34.716 29.492C34.728 29.552 34.722 29.612 34.698 29.672C34.626 29.792 34.488 29.852 34.284 29.852H28.254V35.324H32.97L33.366 34.748C33.402 34.7 33.462 34.622 33.546 34.514C33.63 34.394 33.696 34.31 33.744 34.262C33.804 34.202 33.858 34.172 33.906 34.172C34.002 34.172 34.26 34.346 34.68 34.694C35.1 35.042 35.358 35.306 35.454 35.486C35.466 35.546 35.46 35.606 35.436 35.666C35.364 35.786 35.214 35.846 34.986 35.846H23.124C22.356 35.858 21.498 35.936 20.55 36.08H20.496C20.448 36.08 20.406 36.05 20.37 35.99L20.046 35.36C20.034 35.348 20.028 35.324 20.028 35.288C20.028 35.228 20.07 35.198 20.154 35.198C20.814 35.258 21.546 35.3 22.35 35.324H27.084V29.852H23.952C23.184 29.864 22.326 29.942 21.378 30.086H21.324C21.276 30.086 21.234 30.056 21.198 29.996L20.874 29.384C20.862 29.372 20.856 29.348 20.856 29.312C20.856 29.252 20.904 29.222 21 29.222C21.648 29.282 22.374 29.324 23.178 29.348H27.084V26.468H25.878C25.158 26.48 24.48 26.558 23.844 26.702H23.79C23.742 26.702 23.7 26.672 23.664 26.612L23.34 25.982C23.328 25.97 23.322 25.946 23.322 25.91C23.322 25.85 23.364 25.82 23.448 25.82C24.108 25.88 24.84 25.922 25.644 25.946H29.658L30 25.478C30.048 25.418 30.096 25.352 30.144 25.28C30.204 25.208 30.264 25.142 30.324 25.082C30.384 25.022 30.438 24.992 30.486 24.992C30.582 24.992 30.81 25.136 31.17 25.424C31.542 25.712 31.77 25.934 31.854 26.09C31.866 26.15 31.866 26.21 31.854 26.27C31.782 26.402 31.638 26.468 31.422 26.468H28.254V29.348H32.358L32.736 28.808ZM31.098 30.5C31.11 30.404 31.17 30.374 31.278 30.41L32.16 30.86C32.64 31.004 32.88 31.13 32.88 31.238C32.88 31.31 32.814 31.364 32.682 31.4L32.358 31.49C31.986 32.078 31.578 32.66 31.134 33.236C30.69 33.8 30.264 34.28 29.856 34.676C29.796 34.736 29.73 34.742 29.658 34.694L29.622 34.658C29.55 34.61 29.532 34.544 29.568 34.46L29.856 33.938C30.12 33.422 30.366 32.84 30.594 32.192C30.834 31.544 31.002 30.98 31.098 30.5ZM22.908 30.824C22.848 30.74 22.86 30.68 22.944 30.644C23.016 30.608 23.088 30.608 23.16 30.644C23.928 31.148 24.486 31.67 24.834 32.21C25.194 32.75 25.374 33.242 25.374 33.686C25.374 33.95 25.314 34.166 25.194 34.334C25.074 34.502 24.924 34.586 24.744 34.586C24.6 34.586 24.45 34.526 24.294 34.406C24.246 34.358 24.222 34.298 24.222 34.226C24.186 33.71 24.042 33.146 23.79 32.534C23.538 31.91 23.244 31.34 22.908 30.824ZM51.042 26.504C51.102 26.42 51.18 26.306 51.276 26.162C51.372 26.018 51.45 25.916 51.51 25.856C51.57 25.784 51.624 25.748 51.672 25.748C51.78 25.748 52.104 25.988 52.644 26.468C53.184 26.936 53.508 27.272 53.616 27.476C53.652 27.536 53.652 27.596 53.616 27.656C53.556 27.788 53.394 27.854 53.13 27.854H40.98C40.212 27.866 39.354 27.944 38.406 28.088H38.352C38.304 28.088 38.262 28.058 38.226 27.998L37.866 27.278C37.854 27.266 37.848 27.242 37.848 27.206C37.848 27.146 37.89 27.116 37.974 27.116C38.634 27.176 39.366 27.218 40.17 27.242H50.538L51.042 26.504ZM69.51 21.914C69.558 21.854 69.606 21.782 69.654 21.698C69.714 21.614 69.774 21.542 69.834 21.482C69.894 21.422 69.948 21.392 69.996 21.392C70.092 21.392 70.32 21.548 70.68 21.86C71.04 22.16 71.262 22.394 71.346 22.562C71.358 22.622 71.352 22.682 71.328 22.742C71.256 22.874 71.118 22.94 70.914 22.94H66.018C65.466 23.732 64.836 24.38 64.128 24.884C64.056 24.932 63.99 24.926 63.93 24.866L63.912 24.848C63.852 24.788 63.846 24.722 63.894 24.65C64.182 24.278 64.446 23.882 64.686 23.462C64.962 22.982 65.202 22.406 65.406 21.734C65.622 21.05 65.754 20.444 65.802 19.916C65.826 19.808 65.886 19.772 65.982 19.808C67.074 20.18 67.62 20.438 67.62 20.582C67.62 20.618 67.566 20.66 67.458 20.708L67.152 20.816C66.912 21.404 66.642 21.938 66.342 22.418H69.15L69.51 21.914ZM62.868 25.388C62.904 25.34 62.952 25.274 63.012 25.19C63.084 25.106 63.138 25.046 63.174 25.01C63.222 24.974 63.27 24.956 63.318 24.956C63.426 24.956 63.636 25.088 63.948 25.352C64.272 25.604 64.476 25.808 64.56 25.964C64.572 26.024 64.572 26.084 64.56 26.144C64.488 26.276 64.356 26.342 64.164 26.342H58.008V27.08C58.008 27.14 57.918 27.218 57.738 27.314C57.558 27.41 57.348 27.458 57.108 27.458C57.036 27.458 56.97 27.422 56.91 27.35C56.862 27.278 56.838 27.194 56.838 27.098C56.886 26.558 56.922 25.862 56.946 25.01V23.786C56.946 22.37 56.88 21.206 56.748 20.294V20.258C56.748 20.21 56.76 20.18 56.784 20.168C56.808 20.156 56.844 20.162 56.892 20.186L58.224 20.78H62.166L62.49 20.33C62.526 20.282 62.574 20.216 62.634 20.132C62.706 20.036 62.76 19.97 62.796 19.934C62.844 19.886 62.892 19.862 62.94 19.862C63.036 19.862 63.24 20 63.552 20.276C63.876 20.54 64.08 20.75 64.164 20.906C64.176 20.966 64.17 21.026 64.146 21.086C64.074 21.218 63.936 21.284 63.732 21.284H60.636V22.328H61.95L62.202 22.04C62.238 22.004 62.292 21.944 62.364 21.86C62.436 21.776 62.508 21.734 62.58 21.734C62.688 21.734 62.886 21.842 63.174 22.058C63.474 22.262 63.66 22.442 63.732 22.598C63.768 22.646 63.756 22.7 63.696 22.76C63.54 22.892 63.348 22.976 63.12 23.012V23.57L63.174 24.488C63.198 24.548 63.186 24.602 63.138 24.65C63.054 24.746 62.922 24.836 62.742 24.92C62.562 24.992 62.4 25.028 62.256 25.028H62.238C62.142 25.028 62.094 24.98 62.094 24.884V24.632H60.636V25.82H62.562L62.868 25.388ZM59.646 22.328V21.284H58.008V22.328H59.646ZM62.094 24.092V22.868H58.008V24.092H62.094ZM67.008 25.658C66.528 25.67 66.042 25.742 65.55 25.874C65.454 25.898 65.394 25.874 65.37 25.802L65.046 25.19C65.034 25.178 65.028 25.154 65.028 25.118C65.028 25.058 65.076 25.028 65.172 25.028C65.82 25.088 66.546 25.13 67.35 25.154H68.88L69.204 24.65C69.24 24.602 69.288 24.53 69.348 24.434C69.42 24.338 69.48 24.266 69.528 24.218C69.576 24.17 69.624 24.146 69.672 24.146C69.78 24.146 70.008 24.296 70.356 24.596C70.704 24.884 70.92 25.112 71.004 25.28C71.016 25.304 71.022 25.334 71.022 25.37C71.022 25.466 70.974 25.538 70.878 25.586C70.794 25.634 70.686 25.658 70.554 25.658H67.008ZM58.008 25.82H59.646V24.632H58.008V25.82ZM67.746 26.882C67.782 26.834 67.824 26.774 67.872 26.702C67.932 26.63 67.98 26.576 68.016 26.54C68.064 26.504 68.112 26.486 68.16 26.486C68.256 26.486 68.46 26.624 68.772 26.9C69.084 27.164 69.282 27.374 69.366 27.53C69.402 27.59 69.39 27.65 69.33 27.71C69.174 27.842 68.976 27.926 68.736 27.962V29.726C68.772 31.202 68.814 32.3 68.862 33.02C68.862 33.08 68.844 33.14 68.808 33.2C68.7 33.308 68.544 33.404 68.34 33.488C68.148 33.572 67.974 33.614 67.818 33.614H67.782C67.686 33.614 67.638 33.566 67.638 33.47V32.876H65.712V34.892C65.712 35 65.748 35.066 65.82 35.09C65.904 35.126 66.102 35.144 66.414 35.144H68.286C69.27 35.144 69.846 35.138 70.014 35.126C70.11 35.126 70.176 35.114 70.212 35.09C70.26 35.066 70.308 35.012 70.356 34.928C70.428 34.76 70.572 34.178 70.788 33.182C70.8 33.098 70.848 33.056 70.932 33.056C71.004 33.056 71.04 33.104 71.04 33.2L71.094 34.964C71.262 35.024 71.376 35.09 71.436 35.162C71.508 35.234 71.544 35.33 71.544 35.45C71.544 35.63 71.46 35.768 71.292 35.864C71.124 35.96 70.806 36.032 70.338 36.08C69.87 36.128 69.174 36.152 68.25 36.152H66.234C65.778 36.152 65.436 36.122 65.208 36.062C64.992 36.002 64.842 35.9 64.758 35.756C64.686 35.612 64.65 35.396 64.65 35.108V32.876H63.066C62.706 34.04 61.992 34.88 60.924 35.396C59.868 35.924 58.392 36.26 56.496 36.404H56.46C56.388 36.404 56.34 36.368 56.316 36.296V36.26V36.206C56.316 36.158 56.352 36.122 56.424 36.098C58.032 35.834 59.256 35.462 60.096 34.982C60.948 34.502 61.518 33.8 61.806 32.876H60.132V33.326C60.132 33.386 60.03 33.464 59.826 33.56C59.622 33.656 59.418 33.704 59.214 33.704C59.13 33.704 59.058 33.668 58.998 33.596C58.95 33.524 58.926 33.44 58.926 33.344C58.974 32.828 59.01 32.168 59.034 31.364V30.194C59.034 28.85 58.974 27.722 58.854 26.81V26.774C58.854 26.726 58.866 26.696 58.89 26.684C58.914 26.672 58.95 26.678 58.998 26.702L60.222 27.26H67.476L67.746 26.882ZM67.638 29.024V27.782H60.132V29.024H67.638ZM60.132 30.68H67.638V29.546H60.132V30.68ZM67.638 31.202H60.132V32.354H67.638V31.202ZM87.96 33.308C88.296 33.644 88.464 33.944 88.464 34.208C88.464 34.34 88.422 34.46 88.338 34.568C88.254 34.676 88.146 34.73 88.014 34.73C87.858 34.73 87.696 34.676 87.528 34.568C87.36 34.448 87.192 34.316 87.024 34.172C86.856 34.016 86.73 33.902 86.646 33.83C86.406 33.626 86.16 33.452 85.908 33.308C85.74 33.212 85.584 33.128 85.44 33.056C85.404 33.74 85.176 34.274 84.756 34.658C84.336 35.042 83.694 35.234 82.83 35.234C82.122 35.234 81.504 35.078 80.976 34.766C80.448 34.442 80.184 33.98 80.184 33.38C80.184 32.684 80.55 32.21 81.282 31.958C82.014 31.706 82.71 31.58 83.37 31.58C83.73 31.58 84.054 31.604 84.342 31.652C84.342 31.34 84.336 31.022 84.324 30.698C84.312 30.374 84.3 30.062 84.288 29.762L84.216 26.846C84.108 26.87 83.946 26.894 83.73 26.918C83.646 26.93 83.514 26.936 83.334 26.936C82.806 26.936 82.356 26.84 81.984 26.648C81.624 26.444 81.288 26.108 80.976 25.64C80.916 25.556 80.886 25.478 80.886 25.406C80.886 25.322 80.922 25.28 80.994 25.28C81.03 25.28 81.084 25.31 81.156 25.37C81.24 25.418 81.294 25.454 81.318 25.478C81.486 25.61 81.672 25.724 81.876 25.82C82.092 25.916 82.368 25.964 82.704 25.964C83.016 25.964 83.514 25.892 84.198 25.748C84.186 25.34 84.18 24.77 84.18 24.038V23.12C84.18 22.604 83.922 22.226 83.406 21.986C83.298 21.926 83.244 21.872 83.244 21.824C83.244 21.752 83.31 21.686 83.442 21.626C83.586 21.566 83.82 21.536 84.144 21.536C84.492 21.536 84.804 21.644 85.08 21.86C85.368 22.064 85.512 22.274 85.512 22.49C85.512 22.514 85.476 22.634 85.404 22.85C85.32 23.018 85.26 23.18 85.224 23.336C85.176 23.564 85.152 23.69 85.152 23.714C85.704 24.134 86.154 24.386 86.502 24.47C86.61 24.494 86.754 24.524 86.934 24.56C87.126 24.596 87.258 24.638 87.33 24.686C87.402 24.734 87.45 24.806 87.474 24.902C87.498 24.974 87.51 25.052 87.51 25.136C87.51 25.4 87.276 25.652 86.808 25.892C86.052 26.252 85.44 26.504 84.972 26.648V26.756C84.972 27.836 85.074 29.18 85.278 30.788C85.302 30.968 85.344 31.34 85.404 31.904C86.496 32.228 87.348 32.696 87.96 33.308ZM78.762 26.27C78.798 26.27 78.816 26.3 78.816 26.36C78.816 26.408 78.798 26.486 78.762 26.594C78.318 27.854 77.934 29.042 77.61 30.158C77.286 31.274 77.124 32.06 77.124 32.516C77.124 32.696 77.178 33.086 77.286 33.686C77.382 34.166 77.43 34.472 77.43 34.604C77.43 34.772 77.388 34.91 77.304 35.018C77.22 35.138 77.106 35.198 76.962 35.198C76.734 35.198 76.554 35.126 76.422 34.982C76.29 34.838 76.134 34.61 75.954 34.298C75.51 33.578 75.288 32.528 75.288 31.148C75.288 30.476 75.348 29.672 75.468 28.736C75.6 27.8 75.762 26.864 75.954 25.928C76.002 25.712 76.032 25.556 76.044 25.46C76.128 25.088 76.2 24.728 76.26 24.38C76.32 24.02 76.35 23.714 76.35 23.462C76.35 23.162 76.326 22.94 76.278 22.796C76.242 22.652 76.146 22.442 75.99 22.166C75.954 22.094 75.936 22.04 75.936 22.004C75.936 21.956 75.948 21.914 75.972 21.878C76.008 21.842 76.05 21.824 76.098 21.824C76.17 21.824 76.272 21.878 76.404 21.986C76.692 22.262 76.95 22.592 77.178 22.976C77.418 23.348 77.538 23.708 77.538 24.056C77.538 24.296 77.496 24.548 77.412 24.812C77.34 25.076 77.22 25.43 77.052 25.874L76.8 26.558C76.584 27.17 76.422 27.8 76.314 28.448C76.206 29.084 76.152 29.678 76.152 30.23C76.152 30.89 76.23 31.22 76.386 31.22C76.482 31.22 76.596 31.076 76.728 30.788C76.872 30.488 77.076 30.008 77.34 29.348C77.736 28.352 78.15 27.386 78.582 26.45C78.63 26.33 78.69 26.27 78.762 26.27ZM85.008 25.532C85.74 25.292 86.106 25.088 86.106 24.92C86.106 24.86 86.022 24.764 85.854 24.632C85.698 24.488 85.554 24.368 85.422 24.272C85.29 24.176 85.188 24.098 85.116 24.038L85.008 25.532ZM82.632 34.406C83.1 34.406 83.496 34.292 83.82 34.064C84.144 33.836 84.324 33.356 84.36 32.624C83.772 32.444 83.214 32.354 82.686 32.354C82.206 32.354 81.762 32.426 81.354 32.57C80.958 32.702 80.76 32.942 80.76 33.29C80.76 33.674 80.964 33.956 81.372 34.136C81.792 34.316 82.212 34.406 82.632 34.406ZM98.22 26.306C98.16 26.306 98.13 26.282 98.13 26.234C98.13 26.174 98.166 26.108 98.238 26.036C98.442 25.832 98.706 25.598 99.03 25.334C99.222 25.166 99.396 25.01 99.552 24.866C99.708 24.722 99.786 24.632 99.786 24.596C99.786 24.464 99.54 24.356 99.048 24.272C98.604 24.188 98.178 24.038 97.77 23.822C97.374 23.594 97.086 23.378 96.906 23.174C96.858 23.114 96.81 23.042 96.762 22.958C96.726 22.874 96.708 22.802 96.708 22.742C96.708 22.694 96.72 22.67 96.744 22.67L96.816 22.688C96.852 22.712 96.906 22.748 96.978 22.796C97.062 22.832 97.176 22.886 97.32 22.958C97.608 23.102 97.968 23.222 98.4 23.318C98.832 23.414 99.216 23.462 99.552 23.462C99.876 23.462 100.248 23.432 100.668 23.372C101.1 23.324 101.4 23.3 101.568 23.3C101.712 23.3 101.838 23.318 101.946 23.354C102.462 23.534 102.72 23.792 102.72 24.128C102.72 24.272 102.654 24.38 102.522 24.452C102.402 24.524 102.126 24.584 101.694 24.632C100.698 24.764 99.63 25.28 98.49 26.18C98.37 26.264 98.28 26.306 98.22 26.306ZM100.056 34.892C99.204 34.892 98.418 34.82 97.698 34.676C96.99 34.52 96.42 34.274 95.988 33.938C95.436 33.506 95.16 32.912 95.16 32.156C95.16 31.82 95.196 31.544 95.268 31.328C95.34 31.1 95.412 30.986 95.484 30.986C95.58 30.986 95.628 31.1 95.628 31.328V31.598C95.628 32.342 96.066 32.882 96.942 33.218C97.518 33.434 98.226 33.542 99.066 33.542C99.75 33.542 100.704 33.44 101.928 33.236C102.636 33.128 103.092 33.074 103.296 33.074C103.608 33.074 103.842 33.134 103.998 33.254C104.166 33.374 104.25 33.536 104.25 33.74C104.25 34.076 103.95 34.334 103.35 34.514C102.99 34.622 102.51 34.712 101.91 34.784C101.322 34.856 100.704 34.892 100.056 34.892ZM119.46 28.412C120.396 28.412 121.14 28.694 121.692 29.258C122.244 29.81 122.52 30.56 122.52 31.508C122.52 32.828 121.95 33.878 120.81 34.658C119.682 35.426 118.032 35.876 115.86 36.008H115.752C115.596 36.008 115.518 35.972 115.518 35.9C115.518 35.828 115.614 35.78 115.806 35.756C117.474 35.552 118.806 35.09 119.802 34.37C120.81 33.638 121.314 32.606 121.314 31.274C121.314 30.59 121.152 30.038 120.828 29.618C120.504 29.198 120.018 28.988 119.37 28.988C118.83 28.988 118.32 29.132 117.84 29.42C117.36 29.708 116.946 30.056 116.598 30.464C116.262 30.86 116.016 31.22 115.86 31.544C115.668 31.952 115.446 32.156 115.194 32.156C115.038 32.156 114.888 32.066 114.744 31.886C114.54 31.634 114.408 31.352 114.348 31.04C114.288 30.728 114.258 30.362 114.258 29.942C114.258 29.498 114.306 28.916 114.402 28.196C114.498 27.476 114.648 26.504 114.852 25.28C114.876 25.088 114.9 24.956 114.924 24.884C113.52 24.836 112.56 24.326 112.044 23.354C111.996 23.258 111.972 23.186 111.972 23.138C111.972 23.03 112.014 22.976 112.098 22.976C112.158 22.976 112.272 23.042 112.44 23.174C113.052 23.678 113.736 23.93 114.492 23.93C114.744 23.93 114.936 23.924 115.068 23.912C115.26 22.736 115.356 22.016 115.356 21.752C115.356 21.416 115.218 21.134 114.942 20.906C114.894 20.87 114.846 20.84 114.798 20.816C114.75 20.78 114.708 20.75 114.672 20.726C114.648 20.69 114.636 20.654 114.636 20.618C114.636 20.534 114.738 20.468 114.942 20.42C115.146 20.372 115.338 20.348 115.518 20.348C115.866 20.348 116.148 20.414 116.364 20.546C116.592 20.666 116.706 20.858 116.706 21.122C116.706 21.218 116.67 21.374 116.598 21.59C116.538 21.794 116.496 21.926 116.472 21.986C117.144 22.43 117.684 22.676 118.092 22.724C118.428 22.76 118.668 22.796 118.812 22.832C118.956 22.856 119.058 22.916 119.118 23.012C119.154 23.06 119.172 23.126 119.172 23.21C119.172 23.426 119.046 23.654 118.794 23.894C118.554 24.122 118.242 24.308 117.858 24.452C117.606 24.548 117.282 24.638 116.886 24.722C116.49 24.794 116.082 24.842 115.662 24.866C115.35 26.534 115.194 27.854 115.194 28.826C115.194 29.642 115.296 30.05 115.5 30.05C115.584 30.05 115.74 29.966 115.968 29.798C116.436 29.426 116.988 29.102 117.624 28.826C118.272 28.55 118.884 28.412 119.46 28.412ZM116.328 22.346C116.076 23.054 115.92 23.552 115.86 23.84C116.496 23.756 116.97 23.642 117.282 23.498C117.474 23.414 117.57 23.336 117.57 23.264C117.57 23.24 117.54 23.186 117.48 23.102C117.408 23.018 117.246 22.892 116.994 22.724C116.742 22.544 116.52 22.418 116.328 22.346ZM133.284 35.648C133.128 35.648 133.05 35.612 133.05 35.54C133.05 35.48 133.08 35.438 133.14 35.414C133.212 35.39 133.314 35.366 133.446 35.342C135.354 35.018 136.8 34.502 137.784 33.794C138.78 33.086 139.278 32.18 139.278 31.076C139.278 30.404 139.116 29.876 138.792 29.492C138.48 29.108 138.03 28.916 137.442 28.916C136.902 28.916 136.398 29.132 135.93 29.564C135.474 29.996 134.958 30.65 134.382 31.526C134.274 31.694 134.112 31.844 133.896 31.976C133.692 32.096 133.53 32.156 133.41 32.156C132.294 32.156 131.736 31.49 131.736 30.158C131.736 29.594 131.802 28.508 131.934 26.9C132.006 25.964 132.042 25.478 132.042 25.442C132.042 25.37 132.024 25.19 131.988 24.902C131.952 24.794 131.934 24.674 131.934 24.542C131.934 24.314 131.988 24.134 132.096 24.002C132.204 23.858 132.378 23.678 132.618 23.462C132.798 23.306 133.002 23.168 133.23 23.048C133.458 22.928 133.752 22.79 134.112 22.634C134.448 22.502 134.694 22.394 134.85 22.31C135.006 22.214 135.084 22.118 135.084 22.022C135.084 21.902 134.982 21.752 134.778 21.572C134.574 21.392 134.358 21.236 134.13 21.104C134.094 21.08 134.04 21.056 133.968 21.032C133.908 20.996 133.878 20.96 133.878 20.924C133.878 20.888 133.95 20.864 134.094 20.852C134.25 20.828 134.37 20.816 134.454 20.816C134.922 20.816 135.33 20.912 135.678 21.104C136.038 21.284 136.338 21.602 136.578 22.058C136.674 22.226 136.722 22.418 136.722 22.634C136.722 22.85 136.662 23.036 136.542 23.192C136.422 23.336 136.296 23.408 136.164 23.408C136.068 23.408 135.978 23.384 135.894 23.336C135.822 23.276 135.774 23.24 135.75 23.228C135.618 23.132 135.492 23.06 135.372 23.012C135.252 22.964 135.096 22.94 134.904 22.94C134.34 22.94 133.74 23.156 133.104 23.588C132.96 23.684 132.852 23.804 132.78 23.948C132.708 24.092 132.672 24.236 132.672 24.38C132.672 24.488 132.714 24.614 132.798 24.758C132.918 24.998 132.978 25.226 132.978 25.442C132.978 25.574 132.936 25.988 132.852 26.684C132.684 28.088 132.6 28.94 132.6 29.24C132.6 29.564 132.648 29.864 132.744 30.14C132.852 30.416 132.99 30.554 133.158 30.554C133.254 30.554 133.368 30.518 133.5 30.446C133.644 30.362 133.794 30.266 133.95 30.158C134.106 30.05 134.22 29.972 134.292 29.924C134.94 29.456 135.522 29.09 136.038 28.826C136.566 28.562 137.124 28.43 137.712 28.43C138.252 28.43 138.732 28.58 139.152 28.88C139.572 29.168 139.896 29.546 140.124 30.014C140.364 30.482 140.484 30.968 140.484 31.472C140.484 31.988 140.364 32.486 140.124 32.966C139.896 33.446 139.272 33.938 138.252 34.442C137.244 34.946 135.702 35.336 133.626 35.612C133.482 35.636 133.368 35.648 133.284 35.648Z" fill="#2A4072"/>
<path d="M154.25 0C170.819 0 184.25 13.4315 184.25 30C184.25 46.5685 170.819 60 154.25 60C144.436 60 135.723 55.2867 130.25 48.001C130.46 47.7213 130.664 47.4366 130.864 47.1494C136.142 54.3349 144.651 59 154.25 59C170.266 59 183.25 46.0163 183.25 30C183.25 13.9837 170.266 1 154.25 1C144.651 1 136.142 5.66452 130.864 12.8496C130.664 12.5624 130.46 12.2778 130.25 11.998C135.723 4.71268 144.436 0 154.25 0Z" fill="#2A4072"/>
</svg>
