<svg width="34" height="34" viewBox="0 0 34 34" fill="none" xmlns="http://www.w3.org/2000/svg">
<circle cx="17" cy="17" r="16.5" stroke="#2A4072"/>
<path d="M20.8232 16.3486L13.9922 20.3662C15.1201 19.2754 15.8232 17.7477 15.8232 16.0547C15.8232 14.4907 15.2235 13.067 14.2432 11.999L20.8232 16.3486Z" fill="#333333"/>
<path d="M20.8232 16.3486L21.0767 16.7796L21.7674 16.3734L21.099 15.9315L20.8232 16.3486ZM13.9922 20.3662L13.6446 20.0068L14.2457 20.7972L13.9922 20.3662ZM15.8232 16.0547L16.3232 16.0547V16.0547H15.8232ZM14.2432 11.999L14.5189 11.5819L13.8748 12.3371L14.2432 11.999ZM20.8232 16.3486L20.5698 15.9176L13.7387 19.9352L13.9922 20.3662L14.2457 20.7972L21.0767 16.7796L20.8232 16.3486ZM13.9922 20.3662L14.3398 20.7256C15.5607 19.5449 16.3231 17.8892 16.3232 16.0547L15.8232 16.0547L15.3232 16.0547C15.3232 17.6062 14.6795 19.0059 13.6446 20.0068L13.9922 20.3662ZM15.8232 16.0547H16.3232C16.3232 14.3603 15.673 12.8173 14.6115 11.6609L14.2432 11.999L13.8748 12.3371C14.7741 13.3168 15.3232 14.6211 15.3232 16.0547H15.8232ZM14.2432 11.999L13.9674 12.4161L20.5475 16.7657L20.8232 16.3486L21.099 15.9315L14.5189 11.5819L14.2432 11.999Z" fill="#2A4072"/>
</svg>
