<svg width="114" height="31" viewBox="0 0 114 31" fill="none" xmlns="http://www.w3.org/2000/svg">
<path d="M3.76 10.768C4.48533 10.9387 5.24267 11.024 6.032 11.024C6.69333 11.024 7.376 10.9493 8.08 10.8C8.784 10.6507 9.424 10.384 10 10C10.5973 9.59467 11.0773 9.05067 11.44 8.368C11.824 7.664 12.016 6.768 12.016 5.68C12.016 4.76267 11.888 4.016 11.632 3.44C11.376 2.864 11.0133 2.416 10.544 2.096C10.096 1.776 9.54133 1.56267 8.88 1.456C8.21867 1.328 7.472 1.264 6.64 1.264H3.76V10.768ZM1.136 8.368C1.136 6.96 1.104 5.584 1.04 4.24C0.997333 2.87467 0.944 1.488 0.88 0.079998C1.392 0.122665 1.904 0.165332 2.416 0.207998C2.94933 0.229333 3.472 0.24 3.984 0.24C4.24 0.24 4.54933 0.229333 4.912 0.207998C5.27467 0.186665 5.63733 0.175999 6 0.175999C6.384 0.154666 6.74667 0.133333 7.088 0.112C7.42933 0.0906652 7.71733 0.079998 7.952 0.079998C8.272 0.079998 8.66667 0.0906652 9.136 0.112C9.60533 0.133333 10.096 0.197332 10.608 0.303999C11.1413 0.410666 11.664 0.570665 12.176 0.783998C12.688 0.997332 13.1467 1.30667 13.552 1.712C13.9787 2.11733 14.32 2.62933 14.576 3.248C14.832 3.84533 14.96 4.592 14.96 5.488C14.96 6.896 14.6507 8.03733 14.032 8.912C13.4347 9.78667 12.688 10.4693 11.792 10.96C10.9173 11.4507 9.97867 11.7813 8.976 11.952C7.99467 12.1227 7.12 12.208 6.352 12.208C5.86133 12.208 5.41333 12.208 5.008 12.208C4.60267 12.1867 4.18667 12.1547 3.76 12.112V13.872C3.76 15.28 3.78133 16.6667 3.824 18.032C3.888 19.3973 3.952 20.7413 4.016 22.064C3.52533 22.0213 3.00267 22 2.448 22C1.89333 22 1.37067 22.0213 0.88 22.064C0.944 20.7413 0.997333 19.3973 1.04 18.032C1.104 16.6667 1.136 15.28 1.136 13.872V8.368ZM23.4998 14.096C23.1371 14.224 22.7104 14.3307 22.2198 14.416C21.7504 14.5013 21.2704 14.5973 20.7798 14.704C20.2891 14.7893 19.7984 14.9067 19.3078 15.056C18.8384 15.2053 18.4118 15.408 18.0278 15.664C17.6651 15.92 17.3664 16.24 17.1318 16.624C16.9184 17.008 16.8118 17.4987 16.8118 18.096C16.8118 19.0987 17.0998 19.856 17.6758 20.368C18.2518 20.88 18.8918 21.136 19.5958 21.136C20.4064 21.136 21.1424 20.912 21.8038 20.464C22.4864 20.016 23.0091 19.4933 23.3718 18.896L23.4998 14.096ZM15.5958 8.4C16.5558 7.67467 17.4411 7.184 18.2518 6.928C19.0624 6.672 19.8944 6.544 20.7478 6.544C21.5158 6.544 22.2198 6.66133 22.8598 6.896C23.4998 7.10933 24.0438 7.42933 24.4918 7.856C24.9398 8.26133 25.2918 8.76267 25.5478 9.36C25.8038 9.936 25.9318 10.576 25.9318 11.28C25.9318 12.496 25.9104 13.712 25.8678 14.928C25.8251 16.1227 25.8038 17.392 25.8038 18.736C25.8038 18.992 25.8038 19.2693 25.8038 19.568C25.8251 19.8453 25.8784 20.1013 25.9638 20.336C26.0491 20.5493 26.1664 20.7307 26.3158 20.88C26.4864 21.0293 26.7318 21.104 27.0518 21.104C27.1584 21.104 27.2651 21.104 27.3718 21.104C27.4998 21.0827 27.6171 21.04 27.7238 20.976V21.68C27.4891 21.7867 27.1904 21.872 26.8278 21.936C26.4864 22 26.1024 22.032 25.6758 22.032C24.9931 22.032 24.4704 21.8613 24.1078 21.52C23.7451 21.1573 23.5318 20.6987 23.4678 20.144C22.6998 20.912 21.9424 21.4773 21.1958 21.84C20.4491 22.2027 19.5318 22.384 18.4438 22.384C17.9104 22.384 17.3878 22.3093 16.8758 22.16C16.3638 22.0107 15.9051 21.7653 15.4998 21.424C15.1158 21.0827 14.7958 20.6773 14.5398 20.208C14.3051 19.7173 14.1878 19.1627 14.1878 18.544C14.1878 17.264 14.5824 16.272 15.3718 15.568C16.1824 14.864 17.2918 14.3947 18.6998 14.16C19.8518 13.968 20.7478 13.808 21.3878 13.68C22.0491 13.5307 22.5291 13.3813 22.8278 13.232C23.1478 13.0827 23.3398 12.912 23.4038 12.72C23.4678 12.5067 23.4998 12.24 23.4998 11.92C23.4998 11.3867 23.4358 10.8747 23.3078 10.384C23.1798 9.89333 22.9771 9.46667 22.6998 9.104C22.4224 8.74133 22.0598 8.45333 21.6118 8.24C21.1638 8.00533 20.6198 7.888 19.9798 7.888C19.1264 7.888 18.3264 8.08 17.5798 8.464C16.8544 8.848 16.3104 9.38133 15.9478 10.064H15.5958V8.4ZM34.979 22.096C34.7443 21.52 34.435 20.7733 34.051 19.856C33.6883 18.9387 33.2937 17.9787 32.867 16.976C32.4403 15.952 32.003 14.9173 31.555 13.872C31.107 12.8053 30.6803 11.8133 30.275 10.896C29.891 9.95733 29.5497 9.136 29.251 8.432C28.9523 7.728 28.7283 7.20533 28.579 6.864C28.8563 6.90667 29.1123 6.94933 29.347 6.992C29.5817 7.01333 29.8163 7.024 30.051 7.024C30.2857 7.024 30.5203 7.01333 30.755 6.992C30.9897 6.94933 31.2457 6.90667 31.523 6.864C32.1843 8.912 32.9203 10.9387 33.731 12.944C34.5417 14.9493 35.395 17.0187 36.291 19.152C37.187 17.2747 38.0403 15.2693 38.851 13.136C39.683 11.0027 40.419 8.912 41.059 6.864C41.4857 6.97067 41.8377 7.024 42.115 7.024C42.3923 7.024 42.7443 6.97067 43.171 6.864C43.0217 7.16267 42.7763 7.67467 42.435 8.4C42.115 9.104 41.7203 9.95733 41.251 10.96C40.803 11.9413 40.3017 13.04 39.747 14.256C39.2137 15.4507 38.659 16.688 38.083 17.968C37.5283 19.2267 36.9737 20.4853 36.419 21.744C35.8643 22.9813 35.3523 24.1547 34.883 25.264C34.4137 26.3947 33.9977 27.408 33.635 28.304C33.2937 29.2213 33.0377 29.9467 32.867 30.48C32.4403 30.3733 32.0777 30.32 31.779 30.32C31.4803 30.32 31.1177 30.3733 30.691 30.48C32.3763 27.6853 33.8057 24.8907 34.979 22.096ZM46.371 12.848C46.371 11.888 46.3497 10.8853 46.307 9.84C46.2857 8.77333 46.2217 7.78133 46.115 6.864C46.7123 6.97067 47.1923 7.024 47.555 7.024C47.7257 7.024 47.907 7.01333 48.099 6.992C48.3123 6.94933 48.5577 6.90667 48.835 6.864C48.771 7.71733 48.739 8.57067 48.739 9.424H48.803C49.9337 7.504 51.523 6.544 53.571 6.544C54.1043 6.544 54.627 6.62933 55.139 6.8C55.651 6.94933 56.1097 7.16267 56.515 7.44C56.9417 7.71733 57.3043 8.05867 57.603 8.464C57.9017 8.848 58.1043 9.264 58.211 9.712H58.275C58.787 8.688 59.4803 7.90933 60.355 7.376C61.251 6.82133 62.275 6.544 63.427 6.544C64.131 6.544 64.7817 6.64 65.379 6.832C65.9763 7.024 66.4883 7.32267 66.915 7.728C67.363 8.13333 67.7043 8.656 67.939 9.296C68.195 9.936 68.323 10.704 68.323 11.6C68.323 11.9627 68.3123 12.3573 68.291 12.784C68.2697 13.2107 68.2483 13.712 68.227 14.288C68.2057 14.8427 68.1843 15.4827 68.163 16.208C68.1417 16.912 68.131 17.7333 68.131 18.672C68.131 19.248 68.131 19.8027 68.131 20.336C68.1523 20.8693 68.1843 21.4453 68.227 22.064C67.9923 22.0213 67.7577 22 67.523 22C67.2883 22 67.0643 22 66.851 22C66.6163 22 66.3817 22 66.147 22C65.9123 22 65.6777 22.0213 65.443 22.064C65.507 21.5307 65.571 20.4533 65.635 18.832C65.7203 17.2107 65.763 14.9493 65.763 12.048C65.763 11.5147 65.699 11.0133 65.571 10.544C65.4643 10.0747 65.283 9.66933 65.027 9.328C64.771 8.98667 64.4297 8.72 64.003 8.528C63.5763 8.31467 63.043 8.208 62.403 8.208C61.635 8.208 60.9843 8.35733 60.451 8.656C59.9177 8.95467 59.5017 9.30667 59.203 9.712C59.0323 9.94667 58.8937 10.1813 58.787 10.416C58.7017 10.6507 58.627 11.0133 58.563 11.504C58.5203 11.9733 58.4883 12.6453 58.467 13.52C58.4457 14.3733 58.435 15.5573 58.435 17.072C58.435 17.9893 58.4457 18.832 58.467 19.6C58.5097 20.3467 58.5523 21.168 58.595 22.064C58.1043 22.0213 57.635 22 57.187 22C56.739 22 56.2697 22.0213 55.779 22.064C55.8857 20.8907 55.9603 19.696 56.003 18.48C56.0457 17.264 56.067 16.0693 56.067 14.896C56.067 13.8933 56.0563 13.1147 56.035 12.56C56.035 11.984 56.0137 11.536 55.971 11.216C55.9283 10.8747 55.8643 10.5973 55.779 10.384C55.715 10.1707 55.619 9.936 55.491 9.68C55.2563 9.27467 54.883 8.93333 54.371 8.656C53.8803 8.35733 53.3683 8.208 52.835 8.208C51.427 8.208 50.3923 8.66667 49.731 9.584C49.0697 10.5013 48.739 11.792 48.739 13.456V16.176C48.739 17.136 48.7497 18.1493 48.771 19.216C48.8137 20.2613 48.8883 21.2107 48.995 22.064C48.5043 22.0213 48.0243 22 47.555 22C47.0857 22 46.6057 22.0213 46.115 22.064C46.2217 21.2107 46.2857 20.2613 46.307 19.216C46.3497 18.1493 46.371 17.136 46.371 16.176V12.848ZM79.0433 7.568C78.2539 7.568 77.5819 7.74933 77.0273 8.112C76.4939 8.47467 76.0459 8.93333 75.6833 9.488C75.3419 10.0213 75.0753 10.6187 74.8833 11.28C74.7126 11.92 74.6059 12.528 74.5633 13.104C75.2246 13.1253 75.9073 13.1467 76.6113 13.168C77.3366 13.1893 78.0406 13.2 78.7233 13.2C79.4273 13.2 80.1419 13.1893 80.8673 13.168C81.5926 13.1467 82.2966 13.1253 82.9793 13.104C82.9793 12.528 82.9259 11.92 82.8193 11.28C82.7339 10.64 82.5419 10.0427 82.2433 9.488C81.9659 8.93333 81.5713 8.47467 81.0593 8.112C80.5473 7.74933 79.8753 7.568 79.0433 7.568ZM71.6513 14.96C71.6513 12.336 72.2699 10.2773 73.5073 8.784C74.7659 7.29067 76.5899 6.544 78.9792 6.544C80.1099 6.544 81.0806 6.72533 81.8913 7.088C82.7233 7.42933 83.4166 7.89867 83.9713 8.496C84.5259 9.072 84.9313 9.75467 85.1873 10.544C85.4646 11.3333 85.6033 12.176 85.6033 13.072C85.6033 13.2853 85.5926 13.4987 85.5713 13.712C85.5713 13.904 85.5606 14.1067 85.5393 14.32C84.3873 14.2987 83.2459 14.2773 82.1153 14.256C80.9846 14.2347 79.8433 14.224 78.6913 14.224C77.9873 14.224 77.2833 14.2347 76.5793 14.256C75.8966 14.2773 75.2033 14.2987 74.4993 14.32C74.4779 14.4267 74.4673 14.5867 74.4673 14.8V15.216C74.4673 16.048 74.5846 16.8267 74.8193 17.552C75.0753 18.2773 75.4379 18.9067 75.9073 19.44C76.3766 19.952 76.9526 20.368 77.6353 20.688C78.3179 20.9867 79.1073 21.136 80.0033 21.136C80.4299 21.136 80.8673 21.0827 81.3153 20.976C81.7633 20.848 82.2006 20.688 82.6273 20.496C83.0539 20.2827 83.4486 20.0373 83.8113 19.76C84.1953 19.4827 84.5259 19.184 84.8033 18.864L84.9633 18.96L84.7713 20.528C84.1313 21.04 83.3313 21.4773 82.3713 21.84C81.4326 22.2027 80.4513 22.384 79.4273 22.384C78.2753 22.384 77.2193 22.2133 76.2593 21.872C75.3206 21.5093 74.4993 20.9973 73.7953 20.336C73.1126 19.6533 72.5793 18.8533 72.1953 17.936C71.8326 17.0187 71.6513 16.0267 71.6513 14.96ZM99.3953 13.072C99.3953 11.472 99.0859 10.2667 98.4673 9.456C97.8486 8.624 96.9953 8.208 95.9073 8.208C94.4139 8.208 93.3153 8.66667 92.6113 9.584C91.9286 10.5013 91.5873 11.792 91.5873 13.456V16.176C91.5873 17.136 91.5979 18.1493 91.6193 19.216C91.6619 20.2613 91.7366 21.2107 91.8433 22.064C91.3526 22.0213 90.8726 22 90.4033 22C89.9339 22 89.4539 22.0213 88.9633 22.064C89.0699 21.2107 89.1339 20.2613 89.1553 19.216C89.1979 18.1493 89.2193 17.136 89.2193 16.176V12.848C89.2193 11.888 89.1979 10.8853 89.1553 9.84C89.1339 8.77333 89.0699 7.78133 88.9633 6.864C89.5606 6.97067 90.0406 7.024 90.4033 7.024C90.5739 7.024 90.7553 7.01333 90.9473 6.992C91.1606 6.94933 91.4059 6.90667 91.6833 6.864C91.6193 7.71733 91.5873 8.57067 91.5873 9.424H91.6513C92.2486 8.50667 92.9633 7.80267 93.7953 7.312C94.6273 6.8 95.6193 6.544 96.7713 6.544C97.3686 6.544 97.9659 6.62933 98.5633 6.8C99.1819 6.97067 99.7366 7.26933 100.227 7.696C100.718 8.10133 101.113 8.66667 101.411 9.392C101.731 10.096 101.891 11.0027 101.891 12.112C101.891 13.0293 101.87 13.9787 101.827 14.96C101.785 15.92 101.763 16.944 101.763 18.032V20.112C101.763 20.4533 101.763 20.7947 101.763 21.136C101.785 21.456 101.806 21.7653 101.827 22.064C101.401 22.0213 100.953 22 100.483 22C100.035 22 99.5979 22.0213 99.1713 22.064C99.2139 20.9547 99.2566 19.8133 99.2993 18.64C99.3633 17.4667 99.3953 16.2613 99.3953 15.024V13.072ZM109.657 2.576C109.593 3.38667 109.539 4.18667 109.497 4.976C109.475 5.744 109.443 6.52267 109.401 7.312C109.635 7.312 110.073 7.312 110.713 7.312C111.353 7.29067 112.046 7.25867 112.793 7.216C112.771 7.28 112.76 7.39733 112.76 7.568V7.888V8.24C112.76 8.38933 112.771 8.496 112.793 8.56C112.515 8.53867 112.227 8.528 111.929 8.528C111.63 8.50667 111.31 8.496 110.969 8.496H109.401C109.379 8.58133 109.347 8.92267 109.305 9.52C109.283 10.1173 109.262 10.832 109.241 11.664C109.219 12.4747 109.198 13.328 109.177 14.224C109.177 15.12 109.177 15.92 109.177 16.624C109.177 17.2213 109.187 17.808 109.209 18.384C109.251 18.96 109.358 19.4827 109.529 19.952C109.699 20.4 109.955 20.7627 110.297 21.04C110.638 21.3173 111.129 21.456 111.769 21.456C111.939 21.456 112.163 21.4347 112.441 21.392C112.739 21.3493 112.995 21.296 113.209 21.232V22C112.846 22.064 112.441 22.1387 111.993 22.224C111.566 22.3307 111.15 22.384 110.745 22.384C109.401 22.384 108.409 22.0533 107.769 21.392C107.129 20.7307 106.809 19.76 106.809 18.48C106.809 17.904 106.819 17.2853 106.841 16.624C106.862 15.9413 106.883 15.2053 106.905 14.416C106.947 13.6053 106.979 12.72 107.001 11.76C107.022 10.7787 107.033 9.69067 107.033 8.496H106.009C105.838 8.496 105.657 8.50667 105.465 8.528C105.273 8.528 105.07 8.53867 104.857 8.56C104.878 8.432 104.889 8.31467 104.889 8.208C104.91 8.08 104.921 7.952 104.921 7.824C104.921 7.71733 104.91 7.61067 104.889 7.504C104.889 7.39733 104.878 7.29067 104.857 7.184C105.817 7.248 106.521 7.28 106.969 7.28C106.947 6.85333 106.926 6.32 106.905 5.68C106.905 5.04 106.883 4.37867 106.841 3.696L109.497 2.576H109.657Z" fill="#2A4072"/>
</svg>
