<svg width="24" height="24" viewBox="0 0 24 24" fill="none" xmlns="http://www.w3.org/2000/svg">
<path d="M22.499 10.5458C22.499 5.84769 17.789 2.02539 11.9995 2.02539C6.20997 2.02539 1.5 5.84769 1.5 10.5458C1.5 14.7579 5.2357 18.2849 10.2812 18.9521C10.6227 19.026 11.0882 19.1775 11.2063 19.4698C11.3126 19.7355 11.2752 20.1508 11.2408 20.4195C11.2408 20.4195 11.1177 21.1605 11.0912 21.318C11.0449 21.5837 10.8806 22.3562 12.0005 21.8838C13.1214 21.4114 18.0469 18.3233 20.2493 15.7882C21.7708 14.1192 22.5 12.4265 22.5 10.5458H22.499ZM8.2953 13.0583C8.2953 13.1695 8.20575 13.259 8.09455 13.259H5.14516C5.03395 13.259 4.9444 13.1695 4.9444 13.0583V13.0553V8.47626C4.9444 8.36505 5.03395 8.2755 5.14516 8.2755H5.89013C6.00035 8.2755 6.09089 8.36603 6.09089 8.47626V12.1135H8.09553C8.20575 12.1135 8.29629 12.2041 8.29629 12.3143V13.0593L8.2953 13.0583ZM10.0706 13.0583C10.0706 13.1685 9.98109 13.259 9.86989 13.259H9.12491C9.01469 13.259 8.92415 13.1695 8.92415 13.0583V8.47626C8.92415 8.36603 9.01371 8.2755 9.12491 8.2755H9.86989C9.98109 8.2755 10.0706 8.36505 10.0706 8.47626V13.0583ZM15.1398 13.0583C15.1398 13.1685 15.0503 13.259 14.9391 13.259H14.199C14.1813 13.259 14.1636 13.2561 14.1468 13.2522C14.1468 13.2522 14.1449 13.2522 14.1439 13.2522C14.139 13.2512 14.135 13.2492 14.1301 13.2482C14.1281 13.2482 14.1262 13.2463 14.1242 13.2463C14.1213 13.2453 14.1173 13.2433 14.1144 13.2423C14.1114 13.2403 14.1075 13.2394 14.1045 13.2374C14.1026 13.2364 14.1006 13.2354 14.0986 13.2344C14.0947 13.2325 14.0898 13.2295 14.0858 13.2266C14.0858 13.2266 14.0839 13.2256 14.0839 13.2246C14.0642 13.2108 14.0465 13.1941 14.0317 13.1744L11.9326 10.3392V13.0603C11.9326 13.1705 11.843 13.261 11.7318 13.261H10.9869C10.8766 13.261 10.7861 13.1715 10.7861 13.0603V8.47822C10.7861 8.368 10.8757 8.27746 10.9869 8.27746H11.7269C11.7269 8.27746 11.7318 8.27746 11.7338 8.27746C11.7377 8.27746 11.7407 8.27746 11.7446 8.27746C11.7486 8.27746 11.7515 8.27746 11.7554 8.27845C11.7584 8.27845 11.7614 8.27845 11.7643 8.27943C11.7682 8.27943 11.7722 8.2814 11.7761 8.28238C11.7781 8.28238 11.781 8.28337 11.783 8.28435C11.7869 8.28534 11.7909 8.2873 11.7948 8.28829C11.7968 8.28829 11.7987 8.29026 11.8017 8.29026C11.8056 8.29223 11.8096 8.29321 11.8135 8.29518C11.8155 8.29616 11.8174 8.29715 11.8194 8.29813C11.8234 8.3001 11.8273 8.30207 11.8302 8.30403C11.8322 8.30502 11.8342 8.306 11.8361 8.30797C11.8401 8.30994 11.843 8.31289 11.847 8.31486C11.8489 8.31584 11.8509 8.31781 11.8529 8.3188C11.8568 8.32175 11.8598 8.3247 11.8637 8.32765C11.8647 8.32864 11.8667 8.32962 11.8676 8.33061C11.8716 8.33454 11.8755 8.33848 11.8794 8.3434C11.8794 8.3434 11.8794 8.3434 11.8804 8.34438C11.8863 8.35127 11.8913 8.35816 11.8962 8.36505L13.9923 11.1963V8.47527C13.9923 8.36505 14.0819 8.27451 14.1931 8.27451H14.9381C15.0483 8.27451 15.1388 8.36407 15.1388 8.47527V13.0573L15.1398 13.0583ZM19.2062 9.22024C19.2062 9.33145 19.1166 9.421 19.0054 9.421H17.0008V10.1945H19.0054C19.1156 10.1945 19.2062 10.2851 19.2062 10.3953V11.1403C19.2062 11.2515 19.1166 11.341 19.0054 11.341H17.0008V12.1145H19.0054C19.1156 12.1145 19.2062 12.2051 19.2062 12.3153V13.0603C19.2062 13.1715 19.1166 13.261 19.0054 13.261H16.056C15.9448 13.261 15.8553 13.1715 15.8553 13.0603V13.0573V8.48314V8.47822C15.8553 8.36702 15.9448 8.27746 16.056 8.27746H19.0054C19.1156 8.27746 19.2062 8.368 19.2062 8.47822V9.2232V9.22024Z" fill="white"/>
</svg>
