<svg width="202" height="78" viewBox="0 0 202 78" fill="none" xmlns="http://www.w3.org/2000/svg">
<path d="M0.898 32.974C0.898 28.53 0.797001 24.187 0.595001 19.945C0.460334 15.6357 0.292 11.259 0.0900004 6.81499C3.12 6.94966 6.11633 7.08433 9.079 7.21899C12.109 7.28633 15.139 7.32 18.169 7.32C21.199 7.32 24.2627 7.28633 27.36 7.21899C30.4573 7.08433 33.824 6.94966 37.46 6.81499C37.258 7.825 37.157 8.835 37.157 9.845C37.157 10.855 37.258 11.865 37.46 12.875C35.642 12.673 33.4537 12.5047 30.895 12.37C28.3363 12.168 25.7103 12.0333 23.017 11.966C20.391 11.8313 17.8323 11.7303 15.341 11.663C12.917 11.5957 10.897 11.562 9.281 11.562C9.21367 13.9187 9.14633 16.1743 9.079 18.329C9.079 20.4837 9.079 22.6383 9.079 24.793C9.079 27.1497 9.079 29.338 9.079 31.358C9.14633 33.3107 9.18 35.3643 9.18 37.519C13.624 37.519 18.0007 37.4517 22.31 37.317C26.6867 37.1823 30.996 36.913 35.238 36.509C34.9687 37.519 34.834 38.529 34.834 39.539C34.834 40.549 34.9687 41.559 35.238 42.569C33.5547 42.367 31.6357 42.2323 29.481 42.165C27.3937 42.0303 25.2053 41.9293 22.916 41.862C20.6267 41.7947 18.3037 41.761 15.947 41.761C13.5903 41.761 11.3347 41.761 9.18 41.761V50.346C9.18 54.79 9.24733 59.1667 9.382 63.476C9.584 67.7853 9.786 72.0273 9.988 76.202C8.43933 76.0673 6.78967 76 5.039 76C3.28833 76 1.63867 76.0673 0.0900004 76.202C0.292 72.0273 0.460334 67.7853 0.595001 63.476C0.797001 59.1667 0.898 54.79 0.898 50.346V32.974ZM51.802 29.136C51.802 26.8467 51.7683 24.3553 51.701 21.662C51.701 18.9687 51.6673 16.309 51.6 13.683C51.5327 11.057 51.4317 8.56566 51.297 6.209C51.2297 3.78499 51.1287 1.73133 50.994 0.0479966C52.8793 0.384663 54.3943 0.552996 55.539 0.552996C56.6837 0.552996 58.1987 0.384663 60.084 0.0479966C59.9493 1.73133 59.8147 3.78499 59.68 6.209C59.6127 8.56566 59.5453 11.057 59.478 13.683C59.4107 16.309 59.3433 18.9687 59.276 21.662C59.276 24.3553 59.276 26.8467 59.276 29.136V47.417C59.276 49.7063 59.276 52.1977 59.276 54.891C59.3433 57.5843 59.4107 60.244 59.478 62.87C59.5453 65.496 59.6127 67.9873 59.68 70.344C59.8147 72.7007 59.9493 74.6533 60.084 76.202C58.5353 76.0673 57.0203 76 55.539 76C54.0577 76 52.5427 76.0673 50.994 76.202C51.1287 74.6533 51.2297 72.7007 51.297 70.344C51.4317 67.9873 51.5327 65.496 51.6 62.87C51.6673 60.244 51.701 57.5843 51.701 54.891C51.7683 52.1977 51.802 49.7063 51.802 47.417V29.136ZM82.0334 52.366C82.0334 55.194 82.269 57.921 82.7404 60.547C83.279 63.173 84.1544 65.5297 85.3664 67.617C86.5784 69.637 88.1944 71.253 90.2144 72.465C92.2344 73.677 94.7257 74.283 97.6884 74.283C100.651 74.283 103.142 73.677 105.162 72.465C107.182 71.253 108.798 69.637 110.01 67.617C111.222 65.5297 112.064 63.173 112.535 60.547C113.074 57.921 113.343 55.194 113.343 52.366C113.343 49.538 113.074 46.811 112.535 44.185C112.064 41.559 111.222 39.236 110.01 37.216C108.798 35.1287 107.182 33.479 105.162 32.267C103.142 31.055 100.651 30.449 97.6884 30.449C94.7257 30.449 92.2344 31.055 90.2144 32.267C88.1944 33.479 86.5784 35.1287 85.3664 37.216C84.1544 39.236 83.279 41.559 82.7404 44.185C82.269 46.811 82.0334 49.538 82.0334 52.366ZM73.1454 52.366C73.1454 47.7873 73.8524 43.9157 75.2664 40.751C76.7477 37.519 78.6667 34.9267 81.0234 32.974C83.38 30.954 86.006 29.5063 88.9014 28.631C91.864 27.6883 94.793 27.217 97.6884 27.217C100.651 27.217 103.58 27.6883 106.475 28.631C109.371 29.5063 111.997 30.954 114.353 32.974C116.71 34.9267 118.595 37.519 120.009 40.751C121.491 43.9157 122.231 47.7873 122.231 52.366C122.231 56.9447 121.491 60.85 120.009 64.082C118.595 67.2467 116.71 69.839 114.353 71.859C111.997 73.8117 109.371 75.192 106.475 76C103.58 76.808 100.651 77.212 97.6884 77.212C94.793 77.212 91.864 76.808 88.9014 76C86.006 75.192 83.38 73.8117 81.0234 71.859C78.6667 69.839 76.7477 67.2467 75.2664 64.082C73.8524 60.85 73.1454 56.9447 73.1454 52.366ZM144.042 76.202C143.234 73.7107 142.156 70.546 140.81 66.708C139.463 62.87 137.982 58.7963 136.366 54.487C134.817 50.1103 133.167 45.6663 131.417 41.155C129.733 36.5763 128.05 32.267 126.367 28.227C127.175 28.3617 127.949 28.4963 128.69 28.631C129.498 28.6983 130.306 28.732 131.114 28.732C131.854 28.732 132.595 28.6983 133.336 28.631C134.076 28.4963 134.884 28.3617 135.76 28.227C137.51 34.5563 139.429 40.9193 141.517 47.316C143.671 53.6453 146.062 60.1767 148.688 66.91C149.496 65.0247 150.472 62.5333 151.617 59.436C152.761 56.3387 153.94 53.0057 155.152 49.437C156.364 45.8683 157.576 42.2323 158.788 38.529C160 34.8257 161.077 31.3917 162.02 28.227C163.232 28.5637 164.242 28.732 165.05 28.732C165.588 28.732 166.06 28.6983 166.464 28.631C166.868 28.4963 167.339 28.3617 167.878 28.227C169.561 34.691 171.514 41.0877 173.736 47.417C175.958 53.679 178.281 60.1767 180.705 66.91C181.58 64.7553 182.59 62.1293 183.735 59.032C184.947 55.8673 186.192 52.568 187.472 49.134C188.751 45.6327 190.03 42.064 191.31 38.428C192.656 34.792 193.902 31.3917 195.047 28.227C196.393 28.5637 197.471 28.732 198.279 28.732C199.154 28.732 200.164 28.5637 201.309 28.227C197.471 36.3743 193.868 44.4207 190.502 52.366C187.202 60.3113 184.105 68.2567 181.21 76.202C180.469 76.0673 179.594 76 178.584 76C178.112 76 177.641 76 177.17 76C176.698 76 176.294 76.0673 175.958 76.202C174.207 70.2093 172.288 64.183 170.201 58.123C168.113 52.063 165.723 45.7 163.03 39.034C162.222 41.054 161.245 43.579 160.101 46.609C158.956 49.5717 157.778 52.77 156.566 56.204C155.354 59.638 154.142 63.1393 152.93 66.708C151.718 70.2093 150.64 73.374 149.698 76.202C148.89 76.0673 147.947 76 146.87 76C145.792 76 144.85 76.0673 144.042 76.202Z" fill="#2A4072"/>
</svg>
