<svg width="51" height="75" viewBox="0 0 51 75" fill="none" xmlns="http://www.w3.org/2000/svg">
<path d="M11.216 13.452C11.3013 13.644 11.4133 13.8413 11.552 14.044C11.7013 14.236 11.8773 14.412 12.08 14.572C12.2933 14.732 12.5387 14.8653 12.816 14.972C13.0933 15.068 13.4027 15.116 13.744 15.116C14.096 15.116 14.4107 15.0573 14.688 14.94C14.976 14.812 15.216 14.6467 15.408 14.444C15.6107 14.2307 15.7653 13.9853 15.872 13.708C15.9787 13.42 16.032 13.116 16.032 12.796C16.032 12.3053 15.904 11.916 15.648 11.628C15.4027 11.34 15.0933 11.1 14.72 10.908C14.3467 10.716 13.9413 10.54 13.504 10.38C13.0773 10.22 12.6773 10.0227 12.304 9.788C11.9307 9.54267 11.616 9.23333 11.36 8.86C11.1147 8.48667 10.992 7.98533 10.992 7.356C10.992 6.908 11.072 6.50267 11.232 6.14C11.392 5.76667 11.6213 5.44667 11.92 5.18C12.2293 4.91333 12.5973 4.70533 13.024 4.556C13.4507 4.40667 13.9307 4.332 14.464 4.332C14.976 4.332 15.4187 4.396 15.792 4.524C16.1653 4.64133 16.512 4.828 16.832 5.084C16.736 5.26533 16.656 5.45733 16.592 5.66C16.528 5.86267 16.464 6.11867 16.4 6.428H16.208C16.1547 6.27867 16.08 6.11867 15.984 5.948C15.8987 5.76667 15.776 5.60133 15.616 5.452C15.4667 5.30267 15.2853 5.18 15.072 5.084C14.8587 4.97733 14.6027 4.924 14.304 4.924C14.0053 4.924 13.728 4.972 13.472 5.068C13.2267 5.164 13.008 5.30267 12.816 5.484C12.6347 5.65467 12.4907 5.86267 12.384 6.108C12.288 6.35333 12.24 6.62 12.24 6.908C12.24 7.40933 12.3627 7.804 12.608 8.092C12.864 8.38 13.1787 8.62533 13.552 8.828C13.9253 9.02 14.3253 9.196 14.752 9.356C15.1893 9.50533 15.5947 9.692 15.968 9.916C16.3413 10.14 16.6507 10.428 16.896 10.78C17.152 11.132 17.28 11.6013 17.28 12.188C17.28 12.6787 17.1893 13.1427 17.008 13.58C16.8373 14.0173 16.5813 14.4013 16.24 14.732C15.9093 15.052 15.4987 15.3027 15.008 15.484C14.528 15.6547 13.9787 15.74 13.36 15.74C12.6987 15.74 12.16 15.6547 11.744 15.484C11.3387 15.3027 10.9973 15.1 10.72 14.876C10.816 14.6307 10.88 14.412 10.912 14.22C10.9547 14.0173 10.992 13.7613 11.024 13.452H11.216ZM20.672 5.788C20.64 6.19333 20.6133 6.59333 20.592 6.988C20.5813 7.372 20.5653 7.76133 20.544 8.156C20.6613 8.156 20.88 8.156 21.2 8.156C21.52 8.14533 21.8667 8.12933 22.24 8.108C22.2293 8.14 22.224 8.19867 22.224 8.284V8.444V8.62C22.224 8.69467 22.2293 8.748 22.24 8.78C22.1013 8.76933 21.9573 8.764 21.808 8.764C21.6587 8.75333 21.4987 8.748 21.328 8.748H20.544C20.5333 8.79067 20.5173 8.96133 20.496 9.26C20.4853 9.55867 20.4747 9.916 20.464 10.332C20.4533 10.7373 20.4427 11.164 20.432 11.612C20.432 12.06 20.432 12.46 20.432 12.812C20.432 13.1107 20.4373 13.404 20.448 13.692C20.4693 13.98 20.5227 14.2413 20.608 14.476C20.6933 14.7 20.8213 14.8813 20.992 15.02C21.1627 15.1587 21.408 15.228 21.728 15.228C21.8133 15.228 21.9253 15.2173 22.064 15.196C22.2133 15.1747 22.3413 15.148 22.448 15.116V15.5C22.2667 15.532 22.064 15.5693 21.84 15.612C21.6267 15.6653 21.4187 15.692 21.216 15.692C20.544 15.692 20.048 15.5267 19.728 15.196C19.408 14.8653 19.248 14.38 19.248 13.74C19.248 13.452 19.2533 13.1427 19.264 12.812C19.2747 12.4707 19.2853 12.1027 19.296 11.708C19.3173 11.3027 19.3333 10.86 19.344 10.38C19.3547 9.88933 19.36 9.34533 19.36 8.748H18.848C18.7627 8.748 18.672 8.75333 18.576 8.764C18.48 8.764 18.3787 8.76933 18.272 8.78C18.2827 8.716 18.288 8.65733 18.288 8.604C18.2987 8.54 18.304 8.476 18.304 8.412C18.304 8.35867 18.2987 8.30533 18.288 8.252C18.288 8.19867 18.2827 8.14533 18.272 8.092C18.752 8.124 19.104 8.14 19.328 8.14C19.3173 7.92667 19.3067 7.66 19.296 7.34C19.296 7.02 19.2853 6.68933 19.264 6.348L20.592 5.788H20.672ZM26.7091 8.284C26.3145 8.284 25.9785 8.37467 25.7011 8.556C25.4345 8.73733 25.2105 8.96667 25.0291 9.244C24.8585 9.51067 24.7251 9.80933 24.6291 10.14C24.5438 10.46 24.4905 10.764 24.4691 11.052C24.7998 11.0627 25.1411 11.0733 25.4931 11.084C25.8558 11.0947 26.2078 11.1 26.5491 11.1C26.9011 11.1 27.2585 11.0947 27.6211 11.084C27.9838 11.0733 28.3358 11.0627 28.6771 11.052C28.6771 10.764 28.6505 10.46 28.5971 10.14C28.5545 9.82 28.4585 9.52133 28.3091 9.244C28.1705 8.96667 27.9731 8.73733 27.7171 8.556C27.4611 8.37467 27.1251 8.284 26.7091 8.284ZM23.0131 11.98C23.0131 10.668 23.3225 9.63867 23.9411 8.892C24.5705 8.14533 25.4825 7.772 26.6771 7.772C27.2425 7.772 27.7278 7.86267 28.1331 8.044C28.5491 8.21467 28.8958 8.44933 29.1731 8.748C29.4505 9.036 29.6531 9.37733 29.7811 9.772C29.9198 10.1667 29.9891 10.588 29.9891 11.036C29.9891 11.1427 29.9838 11.2493 29.9731 11.356C29.9731 11.452 29.9678 11.5533 29.9571 11.66C29.3811 11.6493 28.8105 11.6387 28.2451 11.628C27.6798 11.6173 27.1091 11.612 26.5331 11.612C26.1811 11.612 25.8291 11.6173 25.4771 11.628C25.1358 11.6387 24.7891 11.6493 24.4371 11.66C24.4265 11.7133 24.4211 11.7933 24.4211 11.9V12.108C24.4211 12.524 24.4798 12.9133 24.5971 13.276C24.7251 13.6387 24.9065 13.9533 25.1411 14.22C25.3758 14.476 25.6638 14.684 26.0051 14.844C26.3465 14.9933 26.7411 15.068 27.1891 15.068C27.4025 15.068 27.6211 15.0413 27.8451 14.988C28.0691 14.924 28.2878 14.844 28.5011 14.748C28.7145 14.6413 28.9118 14.5187 29.0931 14.38C29.2851 14.2413 29.4505 14.092 29.5891 13.932L29.6691 13.98L29.5731 14.764C29.2531 15.02 28.8531 15.2387 28.3731 15.42C27.9038 15.6013 27.4131 15.692 26.9011 15.692C26.3251 15.692 25.7971 15.6067 25.3171 15.436C24.8478 15.2547 24.4371 14.9987 24.0851 14.668C23.7438 14.3267 23.4771 13.9267 23.2851 13.468C23.1038 13.0093 23.0131 12.5133 23.0131 11.98ZM31.4931 12.588C31.4931 12.2253 31.4878 11.8307 31.4771 11.404C31.4771 10.9773 31.4718 10.556 31.4611 10.14C31.4505 9.71333 31.4345 9.308 31.4131 8.924C31.4025 8.54 31.3865 8.20933 31.3651 7.932C31.6638 7.98533 31.9038 8.012 32.0851 8.012C32.2665 8.012 32.5065 7.98533 32.8051 7.932C32.7625 8.20933 32.7305 8.476 32.7091 8.732C32.6878 8.988 32.6771 9.244 32.6771 9.5H32.7091C32.7838 9.32933 32.8905 9.148 33.0291 8.956C33.1678 8.75333 33.3438 8.56667 33.5571 8.396C33.7811 8.21467 34.0478 8.06533 34.3571 7.948C34.6665 7.83067 35.0185 7.772 35.4131 7.772C35.8185 7.772 36.2185 7.852 36.6131 8.012C37.0078 8.16133 37.3545 8.396 37.6531 8.716C37.9625 9.036 38.2078 9.44667 38.3891 9.948C38.5811 10.4387 38.6771 11.0253 38.6771 11.708C38.6771 12.3907 38.5758 12.9827 38.3731 13.484C38.1705 13.9853 37.9038 14.4013 37.5731 14.732C37.2531 15.0627 36.8851 15.308 36.4691 15.468C36.0531 15.6173 35.6371 15.692 35.2211 15.692C34.0478 15.692 33.2105 15.1853 32.7091 14.172H32.6771V15.18C32.6771 15.5213 32.6771 15.9 32.6771 16.316C32.6878 16.7427 32.6985 17.164 32.7091 17.58C32.7198 17.996 32.7305 18.3907 32.7411 18.764C32.7625 19.148 32.7838 19.4733 32.8051 19.74C32.5065 19.6867 32.2665 19.66 32.0851 19.66C31.9038 19.66 31.6638 19.6867 31.3651 19.74C31.3865 19.4733 31.4025 19.148 31.4131 18.764C31.4345 18.3907 31.4505 17.996 31.4611 17.58C31.4718 17.164 31.4771 16.7427 31.4771 16.316C31.4878 15.9 31.4931 15.5213 31.4931 15.18V12.588ZM37.2691 11.692C37.2691 11.052 37.1998 10.524 37.0611 10.108C36.9331 9.692 36.7625 9.36133 36.5491 9.116C36.3465 8.86 36.1118 8.684 35.8451 8.588C35.5785 8.492 35.3171 8.444 35.0611 8.444C34.6345 8.444 34.2665 8.53467 33.9571 8.716C33.6585 8.89733 33.4131 9.14267 33.2211 9.452C33.0291 9.75067 32.8905 10.108 32.8051 10.524C32.7198 10.9293 32.6771 11.3613 32.6771 11.82C32.6771 14.0387 33.4558 15.148 35.0131 15.148C35.3971 15.148 35.7278 15.0627 36.0051 14.892C36.2931 14.7107 36.5278 14.4653 36.7091 14.156C36.9011 13.836 37.0398 13.468 37.1251 13.052C37.2211 12.6253 37.2691 12.172 37.2691 11.692Z" fill="#2A4072"/>
<path d="M1.98 46.74C1.98 44.61 2.16 42.615 2.52 40.755C2.88 38.865 3.465 37.23 4.275 35.85C5.115 34.44 6.21 33.33 7.56 32.52C8.91 31.68 10.56 31.26 12.51 31.26C14.67 31.26 16.425 31.68 17.775 32.52C19.155 33.33 20.235 34.44 21.015 35.85C21.795 37.23 22.32 38.865 22.59 40.755C22.89 42.615 23.04 44.61 23.04 46.74C23.04 48.81 22.83 50.775 22.41 52.635C21.99 54.495 21.345 56.13 20.475 57.54C19.635 58.95 18.555 60.06 17.235 60.87C15.915 61.68 14.34 62.085 12.51 62.085C10.35 62.085 8.58 61.695 7.2 60.915C5.85 60.135 4.785 59.055 4.005 57.675C3.225 56.265 2.685 54.63 2.385 52.77C2.115 50.88 1.98 48.87 1.98 46.74ZM5.67 46.74C5.67 48.72 5.775 50.565 5.985 52.275C6.225 53.985 6.615 55.47 7.155 56.73C7.695 57.99 8.4 58.98 9.27 59.7C10.14 60.42 11.22 60.78 12.51 60.78C13.8 60.78 14.88 60.42 15.75 59.7C16.62 58.98 17.325 57.99 17.865 56.73C18.405 55.47 18.78 53.985 18.99 52.275C19.23 50.565 19.35 48.72 19.35 46.74C19.35 44.76 19.23 42.915 18.99 41.205C18.78 39.495 18.405 38.01 17.865 36.75C17.325 35.49 16.62 34.5 15.75 33.78C14.88 33.06 13.8 32.7 12.51 32.7C11.22 32.7 10.14 33.03 9.27 33.69C8.4 34.35 7.695 35.295 7.155 36.525C6.615 37.755 6.225 39.24 5.985 40.98C5.775 42.69 5.67 44.61 5.67 46.74ZM28.5599 33.96C29.1599 33.36 29.9849 32.76 31.0349 32.16C32.1149 31.56 33.4799 31.26 35.1299 31.26C36.2999 31.26 37.4099 31.395 38.4599 31.665C39.5099 31.935 40.4249 32.34 41.2049 32.88C41.9849 33.42 42.5999 34.11 43.0499 34.95C43.4999 35.79 43.7249 36.795 43.7249 37.965C43.7249 39.045 43.5299 40.02 43.1399 40.89C42.7499 41.73 42.2549 42.465 41.6549 43.095C41.0849 43.695 40.4399 44.19 39.7199 44.58C38.9999 44.97 38.3099 45.255 37.6499 45.435V45.705C38.4299 45.765 39.2549 45.915 40.1249 46.155C40.9949 46.365 41.8049 46.74 42.5549 47.28C43.3049 47.79 43.9199 48.48 44.3999 49.35C44.9099 50.22 45.1649 51.33 45.1649 52.68C45.1649 54.06 44.8799 55.335 44.3099 56.505C43.7699 57.645 42.9899 58.635 41.9699 59.475C40.9799 60.315 39.7799 60.96 38.3699 61.41C36.9599 61.86 35.3999 62.085 33.6899 62.085C32.1299 62.085 30.8099 61.935 29.7299 61.635C28.6499 61.365 27.7049 61.035 26.8949 60.645C27.0149 60.405 27.1199 60.015 27.2099 59.475C27.3299 58.905 27.4049 58.395 27.4349 57.945L27.7049 57.765C27.9749 58.065 28.3049 58.395 28.6949 58.755C29.0849 59.115 29.5349 59.445 30.0449 59.745C30.5849 60.045 31.1549 60.3 31.7549 60.51C32.3849 60.69 33.0599 60.78 33.7799 60.78C34.9199 60.78 35.9249 60.6 36.7949 60.24C37.6949 59.88 38.4599 59.37 39.0899 58.71C39.7199 58.05 40.1999 57.255 40.5299 56.325C40.8599 55.395 41.0249 54.375 41.0249 53.265C41.0249 52.035 40.8599 51 40.5299 50.16C40.2299 49.29 39.7949 48.6 39.2249 48.09C38.6849 47.55 38.0249 47.16 37.2449 46.92C36.4649 46.68 35.6099 46.56 34.6799 46.56C34.3499 46.56 33.9899 46.59 33.5999 46.65C33.2399 46.71 32.9249 46.77 32.6549 46.83C32.6849 46.68 32.6999 46.53 32.6999 46.38C32.7299 46.2 32.7449 46.035 32.7449 45.885C32.7449 45.735 32.7299 45.585 32.6999 45.435C32.6999 45.255 32.6849 45.09 32.6549 44.94C33.2549 45.06 33.9299 45.12 34.6799 45.12C35.7299 45.12 36.5849 44.91 37.2449 44.49C37.9049 44.04 38.4149 43.485 38.7749 42.825C39.1649 42.135 39.4199 41.385 39.5399 40.575C39.6899 39.765 39.7649 38.985 39.7649 38.235C39.7649 37.275 39.6149 36.45 39.3149 35.76C39.0449 35.04 38.6849 34.455 38.2349 34.005C37.7849 33.555 37.2749 33.225 36.7049 33.015C36.1349 32.805 35.5499 32.7 34.9499 32.7C33.6899 32.7 32.6099 33.075 31.7099 33.825C30.8399 34.545 30.2399 35.37 29.9099 36.3L29.5949 36.39L28.5599 33.96Z" fill="#2A4072"/>
</svg>
