<svg width="51" height="74" viewBox="0 0 51 74" fill="none" xmlns="http://www.w3.org/2000/svg">
<path d="M11.216 12.952C11.3013 13.144 11.4133 13.3413 11.552 13.544C11.7013 13.736 11.8773 13.912 12.08 14.072C12.2933 14.232 12.5387 14.3653 12.816 14.472C13.0933 14.568 13.4027 14.616 13.744 14.616C14.096 14.616 14.4107 14.5573 14.688 14.44C14.976 14.312 15.216 14.1467 15.408 13.944C15.6107 13.7307 15.7653 13.4853 15.872 13.208C15.9787 12.92 16.032 12.616 16.032 12.296C16.032 11.8053 15.904 11.416 15.648 11.128C15.4027 10.84 15.0933 10.6 14.72 10.408C14.3467 10.216 13.9413 10.04 13.504 9.88C13.0773 9.72 12.6773 9.52267 12.304 9.288C11.9307 9.04267 11.616 8.73333 11.36 8.36C11.1147 7.98667 10.992 7.48533 10.992 6.856C10.992 6.408 11.072 6.00267 11.232 5.64C11.392 5.26667 11.6213 4.94667 11.92 4.68C12.2293 4.41333 12.5973 4.20533 13.024 4.056C13.4507 3.90667 13.9307 3.832 14.464 3.832C14.976 3.832 15.4187 3.896 15.792 4.024C16.1653 4.14133 16.512 4.328 16.832 4.584C16.736 4.76533 16.656 4.95733 16.592 5.16C16.528 5.36267 16.464 5.61867 16.4 5.928H16.208C16.1547 5.77867 16.08 5.61867 15.984 5.448C15.8987 5.26667 15.776 5.10133 15.616 4.952C15.4667 4.80267 15.2853 4.68 15.072 4.584C14.8587 4.47733 14.6027 4.424 14.304 4.424C14.0053 4.424 13.728 4.472 13.472 4.568C13.2267 4.664 13.008 4.80267 12.816 4.984C12.6347 5.15467 12.4907 5.36267 12.384 5.608C12.288 5.85333 12.24 6.12 12.24 6.408C12.24 6.90933 12.3627 7.304 12.608 7.592C12.864 7.88 13.1787 8.12533 13.552 8.328C13.9253 8.52 14.3253 8.696 14.752 8.856C15.1893 9.00533 15.5947 9.192 15.968 9.416C16.3413 9.64 16.6507 9.928 16.896 10.28C17.152 10.632 17.28 11.1013 17.28 11.688C17.28 12.1787 17.1893 12.6427 17.008 13.08C16.8373 13.5173 16.5813 13.9013 16.24 14.232C15.9093 14.552 15.4987 14.8027 15.008 14.984C14.528 15.1547 13.9787 15.24 13.36 15.24C12.6987 15.24 12.16 15.1547 11.744 14.984C11.3387 14.8027 10.9973 14.6 10.72 14.376C10.816 14.1307 10.88 13.912 10.912 13.72C10.9547 13.5173 10.992 13.2613 11.024 12.952H11.216ZM20.672 5.288C20.64 5.69333 20.6133 6.09333 20.592 6.488C20.5813 6.872 20.5653 7.26133 20.544 7.656C20.6613 7.656 20.88 7.656 21.2 7.656C21.52 7.64533 21.8667 7.62933 22.24 7.608C22.2293 7.64 22.224 7.69867 22.224 7.784V7.944V8.12C22.224 8.19467 22.2293 8.248 22.24 8.28C22.1013 8.26933 21.9573 8.264 21.808 8.264C21.6587 8.25333 21.4987 8.248 21.328 8.248H20.544C20.5333 8.29067 20.5173 8.46133 20.496 8.76C20.4853 9.05867 20.4747 9.416 20.464 9.832C20.4533 10.2373 20.4427 10.664 20.432 11.112C20.432 11.56 20.432 11.96 20.432 12.312C20.432 12.6107 20.4373 12.904 20.448 13.192C20.4693 13.48 20.5227 13.7413 20.608 13.976C20.6933 14.2 20.8213 14.3813 20.992 14.52C21.1627 14.6587 21.408 14.728 21.728 14.728C21.8133 14.728 21.9253 14.7173 22.064 14.696C22.2133 14.6747 22.3413 14.648 22.448 14.616V15C22.2667 15.032 22.064 15.0693 21.84 15.112C21.6267 15.1653 21.4187 15.192 21.216 15.192C20.544 15.192 20.048 15.0267 19.728 14.696C19.408 14.3653 19.248 13.88 19.248 13.24C19.248 12.952 19.2533 12.6427 19.264 12.312C19.2747 11.9707 19.2853 11.6027 19.296 11.208C19.3173 10.8027 19.3333 10.36 19.344 9.88C19.3547 9.38933 19.36 8.84533 19.36 8.248H18.848C18.7627 8.248 18.672 8.25333 18.576 8.264C18.48 8.264 18.3787 8.26933 18.272 8.28C18.2827 8.216 18.288 8.15733 18.288 8.104C18.2987 8.04 18.304 7.976 18.304 7.912C18.304 7.85867 18.2987 7.80533 18.288 7.752C18.288 7.69867 18.2827 7.64533 18.272 7.592C18.752 7.624 19.104 7.64 19.328 7.64C19.3173 7.42667 19.3067 7.16 19.296 6.84C19.296 6.52 19.2853 6.18933 19.264 5.848L20.592 5.288H20.672ZM26.7091 7.784C26.3145 7.784 25.9785 7.87467 25.7011 8.056C25.4345 8.23733 25.2105 8.46667 25.0291 8.744C24.8585 9.01067 24.7251 9.30933 24.6291 9.64C24.5438 9.96 24.4905 10.264 24.4691 10.552C24.7998 10.5627 25.1411 10.5733 25.4931 10.584C25.8558 10.5947 26.2078 10.6 26.5491 10.6C26.9011 10.6 27.2585 10.5947 27.6211 10.584C27.9838 10.5733 28.3358 10.5627 28.6771 10.552C28.6771 10.264 28.6505 9.96 28.5971 9.64C28.5545 9.32 28.4585 9.02133 28.3091 8.744C28.1705 8.46667 27.9731 8.23733 27.7171 8.056C27.4611 7.87467 27.1251 7.784 26.7091 7.784ZM23.0131 11.48C23.0131 10.168 23.3225 9.13867 23.9411 8.392C24.5705 7.64533 25.4825 7.272 26.6771 7.272C27.2425 7.272 27.7278 7.36267 28.1331 7.544C28.5491 7.71467 28.8958 7.94933 29.1731 8.248C29.4505 8.536 29.6531 8.87733 29.7811 9.272C29.9198 9.66667 29.9891 10.088 29.9891 10.536C29.9891 10.6427 29.9838 10.7493 29.9731 10.856C29.9731 10.952 29.9678 11.0533 29.9571 11.16C29.3811 11.1493 28.8105 11.1387 28.2451 11.128C27.6798 11.1173 27.1091 11.112 26.5331 11.112C26.1811 11.112 25.8291 11.1173 25.4771 11.128C25.1358 11.1387 24.7891 11.1493 24.4371 11.16C24.4265 11.2133 24.4211 11.2933 24.4211 11.4V11.608C24.4211 12.024 24.4798 12.4133 24.5971 12.776C24.7251 13.1387 24.9065 13.4533 25.1411 13.72C25.3758 13.976 25.6638 14.184 26.0051 14.344C26.3465 14.4933 26.7411 14.568 27.1891 14.568C27.4025 14.568 27.6211 14.5413 27.8451 14.488C28.0691 14.424 28.2878 14.344 28.5011 14.248C28.7145 14.1413 28.9118 14.0187 29.0931 13.88C29.2851 13.7413 29.4505 13.592 29.5891 13.432L29.6691 13.48L29.5731 14.264C29.2531 14.52 28.8531 14.7387 28.3731 14.92C27.9038 15.1013 27.4131 15.192 26.9011 15.192C26.3251 15.192 25.7971 15.1067 25.3171 14.936C24.8478 14.7547 24.4371 14.4987 24.0851 14.168C23.7438 13.8267 23.4771 13.4267 23.2851 12.968C23.1038 12.5093 23.0131 12.0133 23.0131 11.48ZM31.4931 12.088C31.4931 11.7253 31.4878 11.3307 31.4771 10.904C31.4771 10.4773 31.4718 10.056 31.4611 9.64C31.4505 9.21333 31.4345 8.808 31.4131 8.424C31.4025 8.04 31.3865 7.70933 31.3651 7.432C31.6638 7.48533 31.9038 7.512 32.0851 7.512C32.2665 7.512 32.5065 7.48533 32.8051 7.432C32.7625 7.70933 32.7305 7.976 32.7091 8.232C32.6878 8.488 32.6771 8.744 32.6771 9H32.7091C32.7838 8.82933 32.8905 8.648 33.0291 8.456C33.1678 8.25333 33.3438 8.06667 33.5571 7.896C33.7811 7.71467 34.0478 7.56533 34.3571 7.448C34.6665 7.33067 35.0185 7.272 35.4131 7.272C35.8185 7.272 36.2185 7.352 36.6131 7.512C37.0078 7.66133 37.3545 7.896 37.6531 8.216C37.9625 8.536 38.2078 8.94667 38.3891 9.448C38.5811 9.93867 38.6771 10.5253 38.6771 11.208C38.6771 11.8907 38.5758 12.4827 38.3731 12.984C38.1705 13.4853 37.9038 13.9013 37.5731 14.232C37.2531 14.5627 36.8851 14.808 36.4691 14.968C36.0531 15.1173 35.6371 15.192 35.2211 15.192C34.0478 15.192 33.2105 14.6853 32.7091 13.672H32.6771V14.68C32.6771 15.0213 32.6771 15.4 32.6771 15.816C32.6878 16.2427 32.6985 16.664 32.7091 17.08C32.7198 17.496 32.7305 17.8907 32.7411 18.264C32.7625 18.648 32.7838 18.9733 32.8051 19.24C32.5065 19.1867 32.2665 19.16 32.0851 19.16C31.9038 19.16 31.6638 19.1867 31.3651 19.24C31.3865 18.9733 31.4025 18.648 31.4131 18.264C31.4345 17.8907 31.4505 17.496 31.4611 17.08C31.4718 16.664 31.4771 16.2427 31.4771 15.816C31.4878 15.4 31.4931 15.0213 31.4931 14.68V12.088ZM37.2691 11.192C37.2691 10.552 37.1998 10.024 37.0611 9.608C36.9331 9.192 36.7625 8.86133 36.5491 8.616C36.3465 8.36 36.1118 8.184 35.8451 8.088C35.5785 7.992 35.3171 7.944 35.0611 7.944C34.6345 7.944 34.2665 8.03467 33.9571 8.216C33.6585 8.39733 33.4131 8.64267 33.2211 8.952C33.0291 9.25067 32.8905 9.608 32.8051 10.024C32.7198 10.4293 32.6771 10.8613 32.6771 11.32C32.6771 13.5387 33.4558 14.648 35.0131 14.648C35.3971 14.648 35.7278 14.5627 36.0051 14.392C36.2931 14.2107 36.5278 13.9653 36.7091 13.656C36.9011 13.336 37.0398 12.968 37.1251 12.552C37.2211 12.1253 37.2691 11.672 37.2691 11.192Z" fill="#2A4072"/>
<path d="M1.98 46.24C1.98 44.11 2.16 42.115 2.52 40.255C2.88 38.365 3.465 36.73 4.275 35.35C5.115 33.94 6.21 32.83 7.56 32.02C8.91 31.18 10.56 30.76 12.51 30.76C14.67 30.76 16.425 31.18 17.775 32.02C19.155 32.83 20.235 33.94 21.015 35.35C21.795 36.73 22.32 38.365 22.59 40.255C22.89 42.115 23.04 44.11 23.04 46.24C23.04 48.31 22.83 50.275 22.41 52.135C21.99 53.995 21.345 55.63 20.475 57.04C19.635 58.45 18.555 59.56 17.235 60.37C15.915 61.18 14.34 61.585 12.51 61.585C10.35 61.585 8.58 61.195 7.2 60.415C5.85 59.635 4.785 58.555 4.005 57.175C3.225 55.765 2.685 54.13 2.385 52.27C2.115 50.38 1.98 48.37 1.98 46.24ZM5.67 46.24C5.67 48.22 5.775 50.065 5.985 51.775C6.225 53.485 6.615 54.97 7.155 56.23C7.695 57.49 8.4 58.48 9.27 59.2C10.14 59.92 11.22 60.28 12.51 60.28C13.8 60.28 14.88 59.92 15.75 59.2C16.62 58.48 17.325 57.49 17.865 56.23C18.405 54.97 18.78 53.485 18.99 51.775C19.23 50.065 19.35 48.22 19.35 46.24C19.35 44.26 19.23 42.415 18.99 40.705C18.78 38.995 18.405 37.51 17.865 36.25C17.325 34.99 16.62 34 15.75 33.28C14.88 32.56 13.8 32.2 12.51 32.2C11.22 32.2 10.14 32.53 9.27 33.19C8.4 33.85 7.695 34.795 7.155 36.025C6.615 37.255 6.225 38.74 5.985 40.48C5.775 42.19 5.67 44.11 5.67 46.24ZM30.5849 36.61C30.2549 36.01 29.8049 35.53 29.2349 35.17V34.855C30.9449 34.165 32.6849 33.415 34.4549 32.605C36.2549 31.765 37.9349 30.955 39.4949 30.175L39.8099 30.4C39.6899 32.38 39.5999 34.345 39.5399 36.295C39.4799 38.215 39.4499 40.165 39.4499 42.145V49.66C39.4499 51.64 39.4799 53.59 39.5399 55.51C39.5999 57.4 39.6899 59.26 39.8099 61.09C39.4499 61.03 39.0899 61 38.7299 61C38.3999 61 38.0549 61 37.6949 61C37.3349 61 36.9749 61 36.6149 61C36.2849 61 35.9399 61.03 35.5799 61.09C35.7299 59.23 35.8199 57.355 35.8499 55.465C35.9099 53.575 35.9399 51.64 35.9399 49.66V33.64L30.5849 36.61Z" fill="#2A4072"/>
</svg>
